SplineFontDB: 3.2
FontName: Untitled10
FullName: Untitled10
FamilyName: Untitled10
Weight: Regular
Copyright: Copyright (c) 2022, Unknown
UComments: "2022-10-18: Created with FontForge (http://fontforge.org)"
Version: 001.000
ItalicAngle: 0
UnderlinePosition: -100
UnderlineWidth: 50
Ascent: 800
Descent: 200
InvalidEm: 0
LayerCount: 2
Layer: 0 0 "Back" 1
Layer: 1 0 "Fore" 0
XUID: [1021 367 -1442065788 923433]
StyleMap: 0x0000
FSType: 0
OS2Version: 0
OS2_WeightWidthSlopeOnly: 0
OS2_UseTypoMetrics: 1
CreationTime: 1666115666
ModificationTime: 1666115666
OS2TypoAscent: 0
OS2TypoAOffset: 1
OS2TypoDescent: 0
OS2TypoDOffset: 1
OS2TypoLinegap: 90
OS2WinAscent: 0
OS2WinAOffset: 1
OS2WinDescent: 0
OS2WinDOffset: 1
HheadAscent: 0
HheadAOffset: 1
HheadDescent: 0
HheadDOffset: 1
Lookup: 1 0 0 "Nunito-Medium-'aalt' Access All Alternates lookup 0" { "Nunito-Medium-'aalt' Access All Alternates lookup 0 subtable"  } ['aalt' ('DFLT' <'dflt' > 'cyrl' <'BSH ' 'CHU ' 'dflt' > 'latn' <'AZE ' 'CAT ' 'CRT ' 'KAZ ' 'MOL ' 'NLD ' 'ROM ' 'TAT ' 'TRK ' 'dflt' > ) ]
Lookup: 3 0 0 "Nunito-Medium-'aalt' Access All Alternates lookup 1" { "Nunito-Medium-'aalt' Access All Alternates lookup 1 subtable"  } ['aalt' ('DFLT' <'dflt' > 'cyrl' <'BSH ' 'CHU ' 'dflt' > 'latn' <'AZE ' 'CAT ' 'CRT ' 'KAZ ' 'MOL ' 'NLD ' 'ROM ' 'TAT ' 'TRK ' 'dflt' > ) ]
Lookup: 6 0 0 "Nunito-Medium-'ccmp' Glyph Composition/Decomposition lookup 2" { "Nunito-Medium-'ccmp' Glyph Composition/Decomposition lookup 2 contextual 0"  "Nunito-Medium-'ccmp' Glyph Composition/Decomposition lookup 2 contextual 1"  "Nunito-Medium-'ccmp' Glyph Composition/Decomposition lookup 2 contextual 2"  "Nunito-Medium-'ccmp' Glyph Composition/Decomposition lookup 2 contextual 3"  } ['ccmp' ('DFLT' <'dflt' > 'cyrl' <'BSH ' 'CHU ' 'dflt' > 'latn' <'AZE ' 'CAT ' 'CRT ' 'KAZ ' 'MOL ' 'NLD ' 'ROM ' 'TAT ' 'TRK ' 'dflt' > ) ]
Lookup: 1 0 0 "Nunito-Medium-Single Substitution lookup 3" { "Nunito-Medium-Single Substitution lookup 3 subtable"  } []

StartChar: .notdef
Encoding: 256 -1 0
Width: 500
GlyphClass: 1
Flags: W
LayerCount: 2
Fore
SplineSet
50 -180 m 1
 50 705 l 1
 450 705 l 1
 450 -180 l 1
 50 -180 l 1
100 -130 m 1
 400 -130 l 1
 400 655 l 1
 100 655 l 1
 100 -130 l 1
EndSplineSet
EndChar

StartChar: A
Encoding: 65 65 1
Width: 733
GlyphClass: 2
Flags: W
AnchorPoint: "Anchor-3" 695 0 basechar 0
AnchorPoint: "Anchor-2" 367 0 basechar 0
AnchorPoint: "Anchor-0" 367 705 basechar 0
LayerCount: 2
Fore
SplineSet
75 -7 m 256
 63 -7 53.5 -4.33333333333 46.5 1 c 128
 39.5 6.33333333333 35.3333333333 13.6666666667 34 23 c 128
 32.6666666667 32.3333333333 34.6666666667 42.6666666667 40 54 c 2
 313 672 l 2
 319 686 326.666666667 696.166666667 336 702.5 c 128
 345.333333333 708.833333333 355.666666667 712 367 712 c 256
 378.333333333 712 388.5 708.833333333 397.5 702.5 c 128
 406.5 696.166666667 414.333333333 686 421 672 c 2
 694 54 l 2
 699.333333333 42.6666666667 701.5 32.1666666667 700.5 22.5 c 128
 699.5 12.8333333333 695.666666667 5.5 689 0.5 c 128
 682.333333333 -4.5 673 -7 661 -7 c 0
 647.666666667 -7 637 -3.5 629 3.5 c 128
 621 10.5 614 20.6666666667 608 34 c 2
 537 200 l 1
 580 176 l 1
 152 176 l 1
 195 200 l 1
 124 34 l 2
 118 19.3333333333 111.333333333 8.83333333333 104 2.5 c 128
 96.6666666667 -3.83333333333 87 -7 75 -7 c 256
365 600 m 1
 209 231 l 1
 185 252 l 1
 547 252 l 1
 524 231 l 1
 367 600 l 1
 365 600 l 1
EndSplineSet
Substitution2: "Nunito-Medium-Single Substitution lookup 29 subtable" ordfeminine
Substitution2: "Nunito-Medium-'aalt' Access All Alternates lookup 0 subtable" ordfeminine
EndChar

StartChar: Aogonek
Encoding: 275 260 24
Width: 733
GlyphClass: 1
Flags: W
LayerCount: 2
Fore
SplineSet
676 -193 m 0
 642.666666667 -193 616.166666667 -184 596.5 -166 c 128
 576.833333333 -148 567 -124 567 -94 c 0
 567 -72.6666666667 572.5 -52.3333333333 583.5 -33 c 128
 594.5 -13.6666666667 609.333333333 3 628 17 c 1
 630 3 l 1
 625.333333333 7 621.333333333 11.5 618 16.5 c 128
 614.666666667 21.5 611.333333333 27.3333333333 608 34 c 2
 537 200 l 1
 580 176 l 1
 152 176 l 1
 195 200 l 1
 124 34 l 2
 118 19.3333333333 111.333333333 8.83333333333 104 2.5 c 128
 96.6666666667 -3.83333333333 87 -7 75 -7 c 256
 63 -7 53.5 -4.33333333333 46.5 1 c 128
 39.5 6.33333333333 35.1666666667 13.6666666667 33.5 23 c 128
 31.8333333333 32.3333333333 33.6666666667 42.6666666667 39 54 c 2
 313 672 l 2
 319 686 326.666666667 696.166666667 336 702.5 c 128
 345.333333333 708.833333333 355.666666667 712 367 712 c 256
 378.333333333 712 388.5 708.833333333 397.5 702.5 c 128
 406.5 696.166666667 414.333333333 686 421 672 c 2
 694 54 l 2
 700 41.3333333333 702.166666667 30 700.5 20 c 128
 698.833333333 10 693.666666667 2.66666666667 685 -2 c 0
 677.666666667 -6 669.666666667 -12 661 -20 c 128
 652.333333333 -28 645 -37.3333333333 639 -48 c 128
 633 -58.6666666667 630 -70.6666666667 630 -84 c 0
 630 -102 635.5 -115.666666667 646.5 -125 c 128
 657.5 -134.333333333 671.333333333 -139 688 -139 c 0
 693.333333333 -139 698.833333333 -138.5 704.5 -137.5 c 128
 710.166666667 -136.5 715.666666667 -135 721 -133 c 0
 731 -130.333333333 738.666666667 -130.833333333 744 -134.5 c 128
 749.333333333 -138.166666667 752.833333333 -143.333333333 754.5 -150 c 128
 756.166666667 -156.666666667 755.333333333 -163.166666667 752 -169.5 c 128
 748.666666667 -175.833333333 743 -180.666666667 735 -184 c 0
 725 -188 715 -190.5 705 -191.5 c 128
 695 -192.5 685.333333333 -193 676 -193 c 0
365 600 m 1
 209 231 l 1
 185 252 l 1
 547 252 l 1
 524 231 l 1
 367 600 l 1
 365 600 l 1
EndSplineSet
EndChar

StartChar: AE
Encoding: 198 198 28
Width: 984
GlyphClass: 2
Flags: W
AnchorPoint: "Anchor-2" 488 0 basechar 0
AnchorPoint: "Anchor-0" 487 705 basechar 0
LayerCount: 2
Fore
SplineSet
45 -7 m 0
 31 -7 20.5 -4.16666666667 13.5 1.5 c 128
 6.5 7.16666666667 3 14.5 3 23.5 c 128
 3 32.5 5.66666666667 42 11 52 c 2
 394 678 l 2
 399.333333333 687.333333333 406 694.166666667 414 698.5 c 128
 422 702.833333333 431.333333333 705 442 705 c 2
 899 705 l 2
 912.333333333 705 922.5 701.833333333 929.5 695.5 c 128
 936.5 689.166666667 940 680 940 668 c 0
 940 655.333333333 936.5 645.666666667 929.5 639 c 128
 922.5 632.333333333 912.333333333 629 899 629 c 2
 485 629 l 1
 506 659 l 1
 567 371 l 1
 535 396 l 1
 879 396 l 2
 892.333333333 396 902.333333333 392.666666667 909 386 c 128
 915.666666667 379.333333333 919 370 919 358 c 0
 919 345.333333333 915.666666667 335.833333333 909 329.5 c 128
 902.333333333 323.166666667 892.333333333 320 879 320 c 2
 551 320 l 1
 573 344 l 1
 637 47 l 1
 601 76 l 1
 899 76 l 2
 912.333333333 76 922.5 72.8333333333 929.5 66.5 c 128
 936.5 60.1666666667 940 50.6666666667 940 38 c 256
 940 25.3333333333 936.5 15.8333333333 929.5 9.5 c 128
 922.5 3.16666666667 912.333333333 0 899 0 c 2
 599 0 l 2
 575 0 560.333333333 12 555 36 c 2
 519 203 l 1
 552 176 l 1
 162 176 l 1
 199 201 l 1
 93 23 l 2
 87 13 80.3333333333 5.5 73 0.5 c 128
 65.6666666667 -4.5 56.3333333333 -7 45 -7 c 0
433 597 m 1
 215 230 l 1
 206 252 l 1
 531 252 l 1
 514 228 l 1
 435 597 l 1
 433 597 l 1
EndSplineSet
EndChar

StartChar: B
Encoding: 66 66 30
Width: 679
GlyphClass: 2
Flags: W
AnchorPoint: "Anchor-2" 342 0 basechar 0
AnchorPoint: "Anchor-0" 341 705 basechar 0
LayerCount: 2
Fore
SplineSet
135 0 m 2
 119 0 106.666666667 4.33333333333 98 13 c 128
 89.3333333333 21.6666666667 85 34 85 50 c 2
 85 655 l 2
 85 671 89.3333333333 683.333333333 98 692 c 128
 106.666666667 700.666666667 119 705 135 705 c 2
 372 705 l 2
 420.666666667 705 462.166666667 697.666666667 496.5 683 c 128
 530.833333333 668.333333333 557 647.333333333 575 620 c 128
 593 592.666666667 602 559.666666667 602 521 c 0
 602 477.666666667 589.333333333 441.333333333 564 412 c 128
 538.666666667 382.666666667 504 363 460 353 c 1
 460 368 l 1
 509.333333333 362 548.166666667 343.833333333 576.5 313.5 c 128
 604.833333333 283.166666667 619 243.666666667 619 195 c 0
 619 132.333333333 598.5 84.1666666667 557.5 50.5 c 128
 516.5 16.8333333333 458.666666667 0 384 0 c 2
 135 0 l 2
175 73 m 1
 374 73 l 2
 426 73 464.666666667 83.1666666667 490 103.5 c 128
 515.333333333 123.833333333 528 155 528 197 c 256
 528 239 515.333333333 270 490 290 c 128
 464.666666667 310 426 320 374 320 c 2
 175 320 l 1
 175 73 l 1
175 394 m 1
 358 394 l 2
 408.666666667 394 446.833333333 404.166666667 472.5 424.5 c 128
 498.166666667 444.833333333 511 474.333333333 511 513 c 256
 511 551.666666667 498.166666667 581.166666667 472.5 601.5 c 128
 446.833333333 621.833333333 408.666666667 632 358 632 c 2
 175 632 l 1
 175 394 l 1
EndSplineSet
EndChar

StartChar: uni0181
Encoding: 278 385 31
Width: 809
GlyphClass: 1
Flags: W
LayerCount: 2
Fore
SplineSet
265 0 m 2
 249 0 236.666666667 4.33333333333 228 13 c 128
 219.333333333 21.6666666667 215 34 215 50 c 2
 215 635 l 1
 184 635 l 2
 148 635 121.333333333 626.666666667 104 610 c 128
 86.6666666667 593.333333333 78 567.666666667 78 533 c 2
 78 514 l 2
 78 508 76.6666666667 502 74 496 c 128
 71.3333333333 490 67.1666666667 485.166666667 61.5 481.5 c 128
 55.8333333333 477.833333333 48.3333333333 476 39 476 c 0
 30.3333333333 476 23.1666666667 478 17.5 482 c 128
 11.8333333333 486 7.5 491 4.5 497 c 128
 1.5 503 0 509.333333333 0 516 c 2
 0 537 l 2
 0 591.666666667 16 633.333333333 48 662 c 128
 80 690.666666667 128 705 192 705 c 2
 502 705 l 2
 550.666666667 705 592.166666667 697.666666667 626.5 683 c 128
 660.833333333 668.333333333 687 647.333333333 705 620 c 128
 723 592.666666667 732 559.666666667 732 521 c 0
 732 477.666666667 719.166666667 441.333333333 693.5 412 c 128
 667.833333333 382.666666667 633.333333333 363 590 353 c 1
 590 368 l 1
 639.333333333 362 678.166666667 343.833333333 706.5 313.5 c 128
 734.833333333 283.166666667 749 243.666666667 749 195 c 0
 749 132.333333333 728.5 84.1666666667 687.5 50.5 c 128
 646.5 16.8333333333 588.666666667 0 514 0 c 2
 265 0 l 2
305 73 m 1
 504 73 l 2
 556 73 594.666666667 83.1666666667 620 103.5 c 128
 645.333333333 123.833333333 658 155 658 197 c 256
 658 239 645.333333333 270 620 290 c 128
 594.666666667 310 556 320 504 320 c 2
 305 320 l 1
 305 73 l 1
305 394 m 1
 488 394 l 2
 538.666666667 394 576.833333333 404.166666667 602.5 424.5 c 128
 628.166666667 444.833333333 641 474.333333333 641 513 c 256
 641 551.666666667 628.166666667 581.166666667 602.5 601.5 c 128
 576.833333333 621.833333333 538.666666667 632 488 632 c 2
 305 632 l 1
 305 394 l 1
EndSplineSet
EndChar

StartChar: C
Encoding: 67 67 32
Width: 675
GlyphClass: 2
Flags: W
AnchorPoint: "Anchor-2" 386 0 basechar 0
AnchorPoint: "Anchor-0" 388 705 basechar 0
LayerCount: 2
Fore
SplineSet
395 -9 m 0
 325 -9 265 5.66666666667 215 35 c 128
 165 64.3333333333 126.5 106.166666667 99.5 160.5 c 128
 72.5 214.833333333 59 279 59 353 c 0
 59 408.333333333 66.6666666667 458.166666667 82 502.5 c 128
 97.3333333333 546.833333333 119.333333333 584.833333333 148 616.5 c 128
 176.666666667 648.166666667 211.833333333 672.333333333 253.5 689 c 128
 295.166666667 705.666666667 342.333333333 714 395 714 c 0
 435 714 473.5 708.333333333 510.5 697 c 128
 547.5 685.666666667 579.333333333 669.666666667 606 649 c 0
 616.666666667 641.666666667 623.666666667 633.333333333 627 624 c 128
 630.333333333 614.666666667 630.833333333 605.833333333 628.5 597.5 c 128
 626.166666667 589.166666667 621.833333333 582.166666667 615.5 576.5 c 128
 609.166666667 570.833333333 601.333333333 567.833333333 592 567.5 c 128
 582.666666667 567.166666667 572.666666667 570.666666667 562 578 c 0
 538.666666667 596 513.166666667 609.166666667 485.5 617.5 c 128
 457.833333333 625.833333333 428.333333333 630 397 630 c 0
 345.666666667 630 302.166666667 619.166666667 266.5 597.5 c 128
 230.833333333 575.833333333 203.833333333 544.5 185.5 503.5 c 128
 167.166666667 462.5 158 412.333333333 158 353 c 0
 158 294.333333333 167.166666667 244.166666667 185.5 202.5 c 128
 203.833333333 160.833333333 230.833333333 129.166666667 266.5 107.5 c 128
 302.166666667 85.8333333333 345.666666667 75 397 75 c 0
 428.333333333 75 458.166666667 79.3333333333 486.5 88 c 128
 514.833333333 96.6666666667 541 110 565 128 c 0
 575.666666667 135.333333333 585.5 138.666666667 594.5 138 c 128
 603.5 137.333333333 611 134.5 617 129.5 c 128
 623 124.5 627.166666667 117.833333333 629.5 109.5 c 128
 631.833333333 101.166666667 631.666666667 92.6666666667 629 84 c 128
 626.333333333 75.3333333333 620.333333333 67.6666666667 611 61 c 0
 583.666666667 37.6666666667 551.166666667 20.1666666667 513.5 8.5 c 128
 475.833333333 -3.16666666667 436.333333333 -9 395 -9 c 0
EndSplineSet
EndChar

StartChar: D
Encoding: 68 68 39
Width: 747
GlyphClass: 2
Flags: W
AnchorPoint: "Anchor-5" 185 358 basechar 0
AnchorPoint: "Anchor-2" 372 0 basechar 0
AnchorPoint: "Anchor-0" 372 705 basechar 0
LayerCount: 2
Fore
SplineSet
135 0 m 2
 119 0 106.666666667 4.33333333333 98 13 c 128
 89.3333333333 21.6666666667 85 34 85 50 c 2
 85 655 l 2
 85 671 89.3333333333 683.333333333 98 692 c 128
 106.666666667 700.666666667 119 705 135 705 c 2
 328 705 l 2
 443.333333333 705 532.166666667 674.833333333 594.5 614.5 c 128
 656.833333333 554.166666667 688 467 688 353 c 0
 688 296.333333333 680 246 664 202 c 128
 648 158 624.666666667 121.166666667 594 91.5 c 128
 563.333333333 61.8333333333 525.833333333 39.1666666667 481.5 23.5 c 128
 437.166666667 7.83333333333 386 0 328 0 c 2
 135 0 l 2
178 79 m 1
 322 79 l 2
 367.333333333 79 406.666666667 84.6666666667 440 96 c 128
 473.333333333 107.333333333 501.166666667 124.333333333 523.5 147 c 128
 545.833333333 169.666666667 562.666666667 198.166666667 574 232.5 c 128
 585.333333333 266.833333333 591 307 591 353 c 0
 591 444.333333333 568.5 512.666666667 523.5 558 c 128
 478.5 603.333333333 411.333333333 626 322 626 c 2
 178 626 l 1
 178 79 l 1
EndSplineSet
EndChar

StartChar: uni018A
Encoding: 288 394 45
Width: 877
GlyphClass: 1
Flags: W
LayerCount: 2
Fore
SplineSet
265 0 m 2
 249 0 236.666666667 4.33333333333 228 13 c 128
 219.333333333 21.6666666667 215 34 215 50 c 2
 215 635 l 1
 184 635 l 2
 148 635 121.333333333 626.666666667 104 610 c 128
 86.6666666667 593.333333333 78 567.666666667 78 533 c 2
 78 514 l 2
 78 508 76.6666666667 502 74 496 c 128
 71.3333333333 490 67.1666666667 485.166666667 61.5 481.5 c 128
 55.8333333333 477.833333333 48.3333333333 476 39 476 c 0
 30.3333333333 476 23.1666666667 478 17.5 482 c 128
 11.8333333333 486 7.5 491 4.5 497 c 128
 1.5 503 0 509.333333333 0 516 c 2
 0 537 l 2
 0 591.666666667 15.6666666667 633.333333333 47 662 c 128
 78.3333333333 690.666666667 124.333333333 705 185 705 c 2
 458 705 l 2
 573.333333333 705 662.166666667 674.833333333 724.5 614.5 c 128
 786.833333333 554.166666667 818 467 818 353 c 0
 818 296.333333333 810 246 794 202 c 128
 778 158 754.666666667 121.166666667 724 91.5 c 128
 693.333333333 61.8333333333 655.833333333 39.1666666667 611.5 23.5 c 128
 567.166666667 7.83333333333 516 0 458 0 c 2
 265 0 l 2
307 79 m 1
 452 79 l 2
 497.333333333 79 536.666666667 84.6666666667 570 96 c 128
 603.333333333 107.333333333 631.166666667 124.333333333 653.5 147 c 128
 675.833333333 169.666666667 692.5 198.166666667 703.5 232.5 c 128
 714.5 266.833333333 720 307 720 353 c 0
 720 444.333333333 697.666666667 512.666666667 653 558 c 128
 608.333333333 603.333333333 541.333333333 626 452 626 c 2
 307 626 l 1
 307 79 l 1
EndSplineSet
EndChar

StartChar: E
Encoding: 69 69 48
Width: 586
GlyphClass: 2
Flags: W
AnchorPoint: "Anchor-3" 495 0 basechar 0
AnchorPoint: "Anchor-2" 325 0 basechar 0
AnchorPoint: "Anchor-0" 325 705 basechar 0
LayerCount: 2
Fore
SplineSet
135 0 m 2
 119 0 106.666666667 4.33333333333 98 13 c 128
 89.3333333333 21.6666666667 85 34 85 50 c 2
 85 655 l 2
 85 671 89.3333333333 683.333333333 98 692 c 128
 106.666666667 700.666666667 119 705 135 705 c 2
 503 705 l 2
 515.666666667 705 525.5 701.833333333 532.5 695.5 c 128
 539.5 689.166666667 543 680 543 668 c 0
 543 655.333333333 539.5 645.666666667 532.5 639 c 128
 525.5 632.333333333 515.666666667 629 503 629 c 2
 175 629 l 1
 175 396 l 1
 482 396 l 2
 494.666666667 396 504.333333333 392.666666667 511 386 c 128
 517.666666667 379.333333333 521 370 521 358 c 0
 521 345.333333333 517.666666667 335.833333333 511 329.5 c 128
 504.333333333 323.166666667 494.666666667 320 482 320 c 2
 175 320 l 1
 175 76 l 1
 503 76 l 2
 515.666666667 76 525.5 72.8333333333 532.5 66.5 c 128
 539.5 60.1666666667 543 50.6666666667 543 38 c 256
 543 25.3333333333 539.5 15.8333333333 532.5 9.5 c 128
 525.5 3.16666666667 515.666666667 0 503 0 c 2
 135 0 l 2
EndSplineSet
EndChar

StartChar: F
Encoding: 70 70 72
Width: 551
GlyphClass: 2
Flags: W
AnchorPoint: "Anchor-2" 297 0 basechar 0
AnchorPoint: "Anchor-0" 299 705 basechar 0
LayerCount: 2
Fore
SplineSet
134 -7 m 0
 118.666666667 -7 106.666666667 -2.66666666667 98 6 c 128
 89.3333333333 14.6666666667 85 27 85 43 c 2
 85 655 l 2
 85 671 89.3333333333 683.333333333 98 692 c 128
 106.666666667 700.666666667 119 705 135 705 c 2
 494 705 l 2
 507.333333333 705 517.333333333 701.833333333 524 695.5 c 128
 530.666666667 689.166666667 534 680 534 668 c 0
 534 655.333333333 530.666666667 645.666666667 524 639 c 128
 517.333333333 632.333333333 507.333333333 629 494 629 c 2
 178 629 l 1
 178 393 l 1
 474 393 l 2
 486.666666667 393 496.333333333 389.666666667 503 383 c 128
 509.666666667 376.333333333 513 367.333333333 513 356 c 0
 513 343.333333333 509.666666667 333.666666667 503 327 c 128
 496.333333333 320.333333333 486.666666667 317 474 317 c 2
 178 317 l 1
 178 43 l 2
 178 9.66666666667 163.333333333 -7 134 -7 c 0
EndSplineSet
EndChar

StartChar: G
Encoding: 71 71 73
Width: 729
GlyphClass: 2
Flags: W
AnchorPoint: "Anchor-2" 401 0 basechar 0
AnchorPoint: "Anchor-0" 394 705 basechar 0
LayerCount: 2
Fore
SplineSet
410 -9 m 0
 334.666666667 -9 270.833333333 5.5 218.5 34.5 c 128
 166.166666667 63.5 126.5 105 99.5 159 c 128
 72.5 213 59 277.333333333 59 352 c 0
 59 408 66.6666666667 458.166666667 82 502.5 c 128
 97.3333333333 546.833333333 119.833333333 584.833333333 149.5 616.5 c 128
 179.166666667 648.166666667 215.166666667 672.333333333 257.5 689 c 128
 299.833333333 705.666666667 347.666666667 714 401 714 c 0
 442.333333333 714 482.333333333 708.5 521 697.5 c 128
 559.666666667 686.5 595 668.666666667 627 644 c 0
 635 638 640.166666667 631 642.5 623 c 128
 644.833333333 615 645 607 643 599 c 128
 641 591 637.166666667 584 631.5 578 c 128
 625.833333333 572 618.833333333 568.5 610.5 567.5 c 128
 602.166666667 566.5 593.333333333 569 584 575 c 0
 556.666666667 595 528.166666667 609.333333333 498.5 618 c 128
 468.833333333 626.666666667 436.333333333 631 401 631 c 0
 348.333333333 631 303.666666667 620.166666667 267 598.5 c 128
 230.333333333 576.833333333 202.833333333 545.166666667 184.5 503.5 c 128
 166.166666667 461.833333333 157 411.333333333 157 352 c 0
 157 260.666666667 178.5 191.333333333 221.5 144 c 128
 264.5 96.6666666667 328.333333333 73 413 73 c 0
 444.333333333 73 474.833333333 76 504.5 82 c 128
 534.166666667 88 562.666666667 96.3333333333 590 107 c 1
 570 57 l 1
 570 298 l 1
 434 298 l 2
 422 298 412.5 301.333333333 405.5 308 c 128
 398.5 314.666666667 395 323.666666667 395 335 c 256
 395 346.333333333 398.5 355 405.5 361 c 128
 412.5 367 422 370 434 370 c 2
 611 370 l 2
 623 370 632.5 366.666666667 639.5 360 c 128
 646.5 353.333333333 650 343.666666667 650 331 c 2
 650 74 l 2
 650 63.3333333333 648 54.1666666667 644 46.5 c 128
 640 38.8333333333 633.333333333 33.3333333333 624 30 c 0
 596 18.6666666667 562.666666667 9.33333333333 524 2 c 128
 485.333333333 -5.33333333333 447.333333333 -9 410 -9 c 0
EndSplineSet
EndChar

StartChar: H
Encoding: 72 72 80
Width: 764
GlyphClass: 2
Flags: W
AnchorPoint: "Anchor-5" 382 555 basechar 0
AnchorPoint: "Anchor-2" 382 0 basechar 0
AnchorPoint: "Anchor-0" 381 705 basechar 0
LayerCount: 2
Fore
SplineSet
131 -7 m 0
 116.333333333 -7 105 -2.83333333333 97 5.5 c 128
 89 13.8333333333 85 25.6666666667 85 41 c 2
 85 664 l 2
 85 680 89 692 97 700 c 128
 105 708 116.333333333 712 131 712 c 0
 146.333333333 712 158 708 166 700 c 128
 174 692 178 680 178 664 c 2
 178 397 l 1
 586 397 l 1
 586 664 l 2
 586 680 590 692 598 700 c 128
 606 708 617.666666667 712 633 712 c 0
 647.666666667 712 659 708 667 700 c 128
 675 692 679 680 679 664 c 2
 679 41 l 2
 679 25.6666666667 675 13.8333333333 667 5.5 c 128
 659 -2.83333333333 647.666666667 -7 633 -7 c 0
 617.666666667 -7 606 -2.83333333333 598 5.5 c 128
 590 13.8333333333 586 25.6666666667 586 41 c 2
 586 318 l 1
 178 318 l 1
 178 41 l 2
 178 25.6666666667 174.166666667 13.8333333333 166.5 5.5 c 128
 158.833333333 -2.83333333333 147 -7 131 -7 c 0
EndSplineSet
EndChar

StartChar: Hbar
Encoding: 316 294 81
Width: 802
GlyphClass: 1
Flags: W
LayerCount: 2
Fore
SplineSet
151 -7 m 256
 135.666666667 -7 124 -2.83333333333 116 5.5 c 128
 108 13.8333333333 104 25.6666666667 104 41 c 2
 104 530 l 1
 130 518 l 1
 45 518 l 2
 19.6666666667 518 7 529.666666667 7 553 c 0
 7 564.333333333 10.3333333333 573.166666667 17 579.5 c 128
 23.6666666667 585.833333333 33 589 45 589 c 2
 121 589 l 1
 104 562 l 1
 104 664 l 2
 104 680 108 692 116 700 c 128
 124 708 135.666666667 712 151 712 c 0
 165.666666667 712 177 708 185 700 c 128
 193 692 197 680 197 664 c 2
 197 562 l 1
 183 589 l 1
 620 589 l 1
 606 562 l 1
 606 664 l 2
 606 680 610 692 618 700 c 128
 626 708 637.666666667 712 653 712 c 0
 667.666666667 712 679 708 687 700 c 128
 695 692 699 680 699 664 c 2
 699 562 l 1
 679 589 l 1
 758 589 l 2
 783.333333333 589 796 577 796 553 c 0
 796 541.666666667 792.666666667 533 786 527 c 128
 779.333333333 521 770 518 758 518 c 2
 670 518 l 1
 699 532 l 1
 699 41 l 2
 699 25.6666666667 695 13.8333333333 687 5.5 c 128
 679 -2.83333333333 667.666666667 -7 653 -7 c 0
 637.666666667 -7 626 -2.83333333333 618 5.5 c 128
 610 13.8333333333 606 25.6666666667 606 41 c 2
 606 312 l 1
 197 312 l 1
 197 41 l 2
 197 25.6666666667 193.166666667 13.8333333333 185.5 5.5 c 128
 177.833333333 -2.83333333333 166.333333333 -7 151 -7 c 256
197 391 m 1
 606 391 l 1
 606 518 l 1
 197 518 l 1
 197 391 l 1
EndSplineSet
EndChar

StartChar: I
Encoding: 73 73 85
Width: 262
GlyphClass: 2
Flags: W
AnchorPoint: "Anchor-3" 162 0 basechar 0
AnchorPoint: "Anchor-2" 131 0 basechar 0
AnchorPoint: "Anchor-0" 131 705 basechar 0
LayerCount: 2
Fore
SplineSet
131 -7 m 0
 116.333333333 -7 105 -2.83333333333 97 5.5 c 128
 89 13.8333333333 85 25.6666666667 85 41 c 2
 85 664 l 2
 85 680 89 692 97 700 c 128
 105 708 116.333333333 712 131 712 c 0
 146.333333333 712 158 708 166 700 c 128
 174 692 178 680 178 664 c 2
 178 41 l 2
 178 25.6666666667 174.166666667 13.8333333333 166.5 5.5 c 128
 158.833333333 -2.83333333333 147 -7 131 -7 c 0
EndSplineSet
EndChar

StartChar: Iogonek
Encoding: 329 302 99
Width: 262
GlyphClass: 1
Flags: W
LayerCount: 2
Fore
SplineSet
142 -193 m 0
 109.333333333 -193 83.1666666667 -184 63.5 -166 c 128
 43.8333333333 -148 34 -124 34 -94 c 0
 34 -72.6666666667 39.5 -52.3333333333 50.5 -33 c 128
 61.5 -13.6666666667 77 3 97 17 c 1
 95 9 l 1
 91.6666666667 12.3333333333 89.1666666667 16.8333333333 87.5 22.5 c 128
 85.8333333333 28.1666666667 85 34.3333333333 85 41 c 2
 85 664 l 2
 85 680 89 692 97 700 c 128
 105 708 116.333333333 712 131 712 c 0
 146.333333333 712 158 708 166 700 c 128
 174 692 178 680 178 664 c 2
 178 41 l 2
 178 30.3333333333 175.833333333 21.1666666667 171.5 13.5 c 128
 167.166666667 5.83333333333 161.666666667 0.333333333333 155 -3 c 0
 140.333333333 -10.3333333333 127 -21 115 -35 c 128
 103 -49 97 -65.3333333333 97 -84 c 0
 97 -102 102.5 -115.666666667 113.5 -125 c 128
 124.5 -134.333333333 138 -139 154 -139 c 0
 160 -139 165.833333333 -138.5 171.5 -137.5 c 128
 177.166666667 -136.5 182.666666667 -135 188 -133 c 0
 198 -130.333333333 205.666666667 -130.833333333 211 -134.5 c 128
 216.333333333 -138.166666667 219.666666667 -143.333333333 221 -150 c 128
 222.333333333 -156.666666667 221.5 -163.166666667 218.5 -169.5 c 128
 215.5 -175.833333333 210 -180.666666667 202 -184 c 0
 192 -188 181.833333333 -190.5 171.5 -191.5 c 128
 161.166666667 -192.5 151.333333333 -193 142 -193 c 0
EndSplineSet
EndChar

StartChar: J
Encoding: 74 74 101
Width: 331
GlyphClass: 2
Flags: W
AnchorPoint: "Anchor-2" 200 0 basechar 0
AnchorPoint: "Anchor-0" 199 705 basechar 0
LayerCount: 2
Fore
SplineSet
32 -6 m 2
 18 -6.66666666667 7 -3 -1 5 c 128
 -9 13 -13 23 -13 35 c 0
 -13 44.3333333333 -10.1666666667 52.5 -4.5 59.5 c 128
 1.16666666667 66.5 10 70.3333333333 22 71 c 2
 53 74 l 2
 85.6666666667 76.6666666667 110.666666667 88 128 108 c 128
 145.333333333 128 154 155.333333333 154 190 c 2
 154 665 l 2
 154 680.333333333 158 692 166 700 c 128
 174 708 185.333333333 712 200 712 c 256
 214.666666667 712 226 708 234 700 c 128
 242 692 246 680.333333333 246 665 c 2
 246 190 l 2
 246 150.666666667 239.166666667 117.166666667 225.5 89.5 c 128
 211.833333333 61.8333333333 191.666666667 40.1666666667 165 24.5 c 128
 138.333333333 8.83333333333 105 -0.666666666667 65 -4 c 2
 32 -6 l 2
EndSplineSet
EndChar

StartChar: K
Encoding: 75 75 103
Width: 634
GlyphClass: 2
Flags: W
AnchorPoint: "Anchor-2" 320 0 basechar 0
AnchorPoint: "Anchor-0" 319 705 basechar 0
LayerCount: 2
Fore
SplineSet
131 -7 m 0
 116.333333333 -7 105 -2.83333333333 97 5.5 c 128
 89 13.8333333333 85 25.6666666667 85 41 c 2
 85 665 l 2
 85 680.333333333 89 692 97 700 c 128
 105 708 116.333333333 712 131 712 c 0
 146.333333333 712 158 708 166 700 c 128
 174 692 178 680.333333333 178 665 c 2
 178 386 l 1
 180 386 l 1
 496 687 l 2
 505.333333333 695.666666667 514.166666667 702 522.5 706 c 128
 530.833333333 710 540 712 550 712 c 0
 564 712 574.166666667 708.5 580.5 701.5 c 128
 586.833333333 694.5 589.333333333 686.166666667 588 676.5 c 128
 586.666666667 666.833333333 581.666666667 657.666666667 573 649 c 2
 243 339 l 1
 244 386 l 1
 589 62 l 2
 599.666666667 52 605.333333333 41.5 606 30.5 c 128
 606.666666667 19.5 603.5 10.5 596.5 3.5 c 128
 589.5 -3.5 579 -7 565 -7 c 0
 553.666666667 -7 544.166666667 -4.66666666667 536.5 0 c 128
 528.833333333 4.66666666667 520 12 510 22 c 2
 180 331 l 1
 178 331 l 1
 178 41 l 2
 178 25.6666666667 174.166666667 13.8333333333 166.5 5.5 c 128
 158.833333333 -2.83333333333 147 -7 131 -7 c 0
EndSplineSet
EndChar

StartChar: L
Encoding: 76 76 105
Width: 548
GlyphClass: 2
Flags: W
AnchorPoint: "Anchor-5" 176 387 basechar 0
AnchorPoint: "Anchor-2" 308 0 basechar 0
AnchorPoint: "Anchor-1" 290 705 basechar 0
AnchorPoint: "Anchor-0" 131 705 basechar 0
LayerCount: 2
Fore
SplineSet
132 0 m 2
 117.333333333 0 105.833333333 4.33333333333 97.5 13 c 128
 89.1666666667 21.6666666667 85 33.3333333333 85 48 c 2
 85 662 l 2
 85 677.333333333 89 689 97 697 c 128
 105 705 116.333333333 709 131 709 c 0
 146.333333333 709 158 705 166 697 c 128
 174 689 178 677.333333333 178 662 c 2
 178 80 l 1
 496 80 l 2
 510 80 520.5 76.6666666667 527.5 70 c 128
 534.5 63.3333333333 538 53.6666666667 538 41 c 0
 538 27.6666666667 534.5 17.5 527.5 10.5 c 128
 520.5 3.5 510 0 496 0 c 2
 132 0 l 2
EndSplineSet
EndChar

StartChar: M
Encoding: 77 77 115
Width: 858
GlyphClass: 2
Flags: W
AnchorPoint: "Anchor-2" 430 0 basechar 0
AnchorPoint: "Anchor-0" 430 705 basechar 0
LayerCount: 2
Fore
SplineSet
129 -7 m 0
 115.666666667 -7 105.333333333 -3 98 5 c 128
 90.6666666667 13 87 23.6666666667 87 37 c 2
 87 668 l 2
 87 682 90.8333333333 692.833333333 98.5 700.5 c 128
 106.166666667 708.166666667 116.666666667 712 130 712 c 0
 142 712 151.5 709.666666667 158.5 705 c 128
 165.5 700.333333333 172 692.333333333 178 681 c 2
 446 178 l 1
 415 178 l 1
 683 681 l 2
 689 692.333333333 695.333333333 700.333333333 702 705 c 128
 708.666666667 709.666666667 718 712 730 712 c 0
 743.333333333 712 753.666666667 708.166666667 761 700.5 c 128
 768.333333333 692.833333333 772 682 772 668 c 2
 772 37 l 2
 772 23.6666666667 768.5 13 761.5 5 c 128
 754.5 -3 744 -7 730 -7 c 256
 716 -7 705.5 -3 698.5 5 c 128
 691.5 13 688 23.6666666667 688 37 c 2
 688 576 l 1
 710 576 l 1
 470 127 l 2
 464.666666667 118.333333333 459.166666667 111.833333333 453.5 107.5 c 128
 447.833333333 103.166666667 440 101 430 101 c 0
 420.666666667 101 412.833333333 103.333333333 406.5 108 c 128
 400.166666667 112.666666667 394.666666667 119 390 127 c 2
 147 577 l 1
 171 577 l 1
 171 37 l 2
 171 23.6666666667 167.5 13 160.5 5 c 128
 153.5 -3 143 -7 129 -7 c 0
EndSplineSet
EndChar

StartChar: N
Encoding: 78 78 117
Width: 741
GlyphClass: 2
Flags: W
AnchorPoint: "Anchor-2" 371 0 basechar 0
AnchorPoint: "Anchor-0" 371 705 basechar 0
LayerCount: 2
Fore
SplineSet
128 -7 m 0
 114.666666667 -7 104.166666667 -3 96.5 5 c 128
 88.8333333333 13 85 24 85 38 c 2
 85 665 l 2
 85 680.333333333 88.6666666667 692 96 700 c 128
 103.333333333 708 113 712 125 712 c 0
 136.333333333 712 145 710 151 706 c 128
 157 702 163.666666667 695 171 685 c 2
 595 123 l 1
 570 123 l 1
 570 667 l 2
 570 681.666666667 573.833333333 692.833333333 581.5 700.5 c 128
 589.166666667 708.166666667 600 712 614 712 c 256
 628 712 638.666666667 708.166666667 646 700.5 c 128
 653.333333333 692.833333333 657 681.666666667 657 667 c 2
 657 38 l 2
 657 24 653.5 13 646.5 5 c 128
 639.5 -3 630.333333333 -7 619 -7 c 0
 608.333333333 -7 599.5 -4.83333333333 592.5 -0.5 c 128
 585.5 3.83333333333 578.333333333 11 571 21 c 2
 148 583 l 1
 171 583 l 1
 171 38 l 2
 171 24 167.333333333 13 160 5 c 128
 152.666666667 -3 142 -7 128 -7 c 0
EndSplineSet
EndChar

StartChar: Eng
Encoding: 349 330 124
Width: 741
GlyphClass: 2
Flags: W
AnchorPoint: "Anchor-2" 371 0 basechar 0
AnchorPoint: "Anchor-0" 371 705 basechar 0
LayerCount: 2
Fore
SplineSet
476 -190 m 0
 464.666666667 -190.666666667 455.5 -189 448.5 -185 c 128
 441.5 -181 436.833333333 -175.5 434.5 -168.5 c 128
 432.166666667 -161.5 431.5 -154.5 432.5 -147.5 c 128
 433.5 -140.5 436.666666667 -134.5 442 -129.5 c 128
 447.333333333 -124.5 454.333333333 -121.666666667 463 -121 c 0
 498.333333333 -118.333333333 525 -109 543 -93 c 128
 561 -77 570 -50.3333333333 570 -13 c 2
 570 40 l 1
 587 0 l 1
 148 583 l 1
 171 583 l 1
 171 38 l 2
 171 24 167.333333333 13 160 5 c 128
 152.666666667 -3 142 -7 128 -7 c 0
 114.666666667 -7 104.166666667 -3 96.5 5 c 128
 88.8333333333 13 85 24 85 38 c 2
 85 665 l 2
 85 680.333333333 88.6666666667 692 96 700 c 128
 103.333333333 708 113 712 125 712 c 0
 136.333333333 712 145 710 151 706 c 128
 157 702 163.666666667 695 171 685 c 2
 595 123 l 1
 570 123 l 1
 570 667 l 2
 570 681.666666667 573.833333333 692.833333333 581.5 700.5 c 128
 589.166666667 708.166666667 600 712 614 712 c 256
 628 712 638.666666667 708.166666667 646 700.5 c 128
 653.333333333 692.833333333 657 681.666666667 657 667 c 2
 657 -3 l 2
 657 -67.6666666667 641.5 -114.333333333 610.5 -143 c 128
 579.5 -171.666666667 534.666666667 -187.333333333 476 -190 c 0
EndSplineSet
EndChar

StartChar: O
Encoding: 79 79 128
Width: 771
GlyphClass: 2
Flags: W
AnchorPoint: "Anchor-5" 386 353 basechar 0
AnchorPoint: "Anchor-3" 443 0 basechar 0
AnchorPoint: "Anchor-2" 385 0 basechar 0
AnchorPoint: "Anchor-1" 456 705 basechar 0
AnchorPoint: "Anchor-0" 385 705 basechar 0
LayerCount: 2
Fore
SplineSet
386 -9 m 0
 319.333333333 -9 261.666666667 5.83333333333 213 35.5 c 128
 164.333333333 65.1666666667 126.5 107.166666667 99.5 161.5 c 128
 72.5 215.833333333 59 279.666666667 59 353 c 0
 59 408.333333333 66.6666666667 458.166666667 82 502.5 c 128
 97.3333333333 546.833333333 119.166666667 584.833333333 147.5 616.5 c 128
 175.833333333 648.166666667 210.166666667 672.333333333 250.5 689 c 128
 290.833333333 705.666666667 336 714 386 714 c 0
 452.666666667 714 510.333333333 699.333333333 559 670 c 128
 607.666666667 640.666666667 645.333333333 599 672 545 c 128
 698.666666667 491 712 427.333333333 712 354 c 0
 712 298.666666667 704.333333333 248.666666667 689 204 c 128
 673.666666667 159.333333333 651.833333333 121 623.5 89 c 128
 595.166666667 57 561 32.6666666667 521 16 c 128
 481 -0.666666666667 436 -9 386 -9 c 0
386 73 m 0
 434 73 475 84 509 106 c 128
 543 128 569.166666667 160 587.5 202 c 128
 605.833333333 244 615 294.333333333 615 353 c 0
 615 441.666666667 595.166666667 510.333333333 555.5 559 c 128
 515.833333333 607.666666667 459.333333333 632 386 632 c 0
 338 632 296.833333333 621.166666667 262.5 599.5 c 128
 228.166666667 577.833333333 202 546.166666667 184 504.5 c 128
 166 462.833333333 157 412.333333333 157 353 c 0
 157 265 177 196.333333333 217 147 c 128
 257 97.6666666667 313.333333333 73 386 73 c 0
EndSplineSet
Substitution2: "Nunito-Medium-Single Substitution lookup 29 subtable" ordmasculine
Substitution2: "Nunito-Medium-'aalt' Access All Alternates lookup 0 subtable" ordmasculine
EndChar

StartChar: OE
Encoding: 379 338 162
Width: 1049
GlyphClass: 2
Flags: W
AnchorPoint: "Anchor-2" 593 0 basechar 0
AnchorPoint: "Anchor-0" 593 705 basechar 0
LayerCount: 2
Fore
SplineSet
419 0 m 2
 304.333333333 0 215.666666667 30.5 153 91.5 c 128
 90.3333333333 152.5 59 239.666666667 59 353 c 0
 59 409.666666667 67 460 83 504 c 128
 99 548 122.333333333 584.833333333 153 614.5 c 128
 183.666666667 644.166666667 221.333333333 666.666666667 266 682 c 128
 310.666666667 697.333333333 361.666666667 705 419 705 c 2
 966 705 l 2
 978.666666667 705 988.333333333 701.833333333 995 695.5 c 128
 1001.66666667 689.166666667 1005 680 1005 668 c 0
 1005 655.333333333 1001.66666667 645.666666667 995 639 c 128
 988.333333333 632.333333333 978.666666667 629 966 629 c 2
 637 629 l 1
 637 396 l 1
 945 396 l 2
 957.666666667 396 967.333333333 392.666666667 974 386 c 128
 980.666666667 379.333333333 984 370 984 358 c 0
 984 345.333333333 980.666666667 335.833333333 974 329.5 c 128
 967.333333333 323.166666667 957.666666667 320 945 320 c 2
 637 320 l 1
 637 76 l 1
 966 76 l 2
 978.666666667 76 988.333333333 72.8333333333 995 66.5 c 128
 1001.66666667 60.1666666667 1005 50.6666666667 1005 38 c 256
 1005 25.3333333333 1001.66666667 15.8333333333 995 9.5 c 128
 988.333333333 3.16666666667 978.666666667 0 966 0 c 2
 419 0 l 2
425 79 m 2
 547 79 l 1
 547 626 l 1
 425 626 l 2
 380.333333333 626 341.166666667 620.5 307.5 609.5 c 128
 273.833333333 598.5 245.833333333 581.5 223.5 558.5 c 128
 201.166666667 535.5 184.5 507 173.5 473 c 128
 162.5 439 157 399 157 353 c 0
 157 261.666666667 179.333333333 193.166666667 224 147.5 c 128
 268.666666667 101.833333333 335.666666667 79 425 79 c 2
EndSplineSet
EndChar

StartChar: P
Encoding: 80 80 163
Width: 637
GlyphClass: 2
Flags: W
AnchorPoint: "Anchor-2" 325 0 basechar 0
AnchorPoint: "Anchor-0" 325 705 basechar 0
LayerCount: 2
Fore
SplineSet
131 -7 m 0
 116.333333333 -7 105 -2.83333333333 97 5.5 c 128
 89 13.8333333333 85 25.6666666667 85 41 c 2
 85 658 l 2
 85 673.333333333 89.1666666667 685 97.5 693 c 128
 105.833333333 701 117.333333333 705 132 705 c 2
 370 705 l 2
 446 705 504.5 686.333333333 545.5 649 c 128
 586.5 611.666666667 607 559.333333333 607 492 c 0
 607 424 586.5 371.333333333 545.5 334 c 128
 504.5 296.666666667 446 278 370 278 c 2
 178 278 l 1
 178 41 l 2
 178 25.6666666667 174.166666667 13.8333333333 166.5 5.5 c 128
 158.833333333 -2.83333333333 147 -7 131 -7 c 0
178 353 m 1
 358 353 l 2
 410 353 449.166666667 364.833333333 475.5 388.5 c 128
 501.833333333 412.166666667 515 446.666666667 515 492 c 256
 515 537.333333333 501.833333333 571.5 475.5 594.5 c 128
 449.166666667 617.5 410 629 358 629 c 2
 178 629 l 1
 178 353 l 1
EndSplineSet
EndChar

StartChar: Thorn
Encoding: 222 222 164
Width: 639
GlyphClass: 2
Flags: W
AnchorPoint: "Anchor-2" 327 0 basechar 0
AnchorPoint: "Anchor-0" 327 705 basechar 0
LayerCount: 2
Fore
SplineSet
131 -4 m 0
 116.333333333 -4 105 0.166666666667 97 8.5 c 128
 89 16.8333333333 85 28.6666666667 85 44 c 2
 85 662 l 2
 85 677.333333333 89.1666666667 689 97.5 697 c 128
 105.833333333 705 117.333333333 709 132 709 c 256
 146.666666667 709 158 705.166666667 166 697.5 c 128
 174 689.833333333 178 679.333333333 178 666 c 2
 178 580 l 1
 371 580 l 2
 447 580 505.5 561.333333333 546.5 524 c 128
 587.5 486.666666667 608 434 608 366 c 0
 608 298.666666667 587.5 246.166666667 546.5 208.5 c 128
 505.5 170.833333333 447 152 371 152 c 2
 178 152 l 1
 178 44 l 2
 178 28.6666666667 174.166666667 16.8333333333 166.5 8.5 c 128
 158.833333333 0.166666666667 147 -4 131 -4 c 0
178 228 m 1
 359 228 l 2
 411 228 450.333333333 239.666666667 477 263 c 128
 503.666666667 286.333333333 517 320.666666667 517 366 c 256
 517 411.333333333 503.666666667 445.666666667 477 469 c 128
 450.333333333 492.333333333 411 504 359 504 c 2
 178 504 l 1
 178 228 l 1
EndSplineSet
EndChar

StartChar: Q
Encoding: 81 81 165
Width: 771
GlyphClass: 2
Flags: W
AnchorPoint: "Anchor-5" 386 353 basechar 0
AnchorPoint: "Anchor-3" 443 0 basechar 0
AnchorPoint: "Anchor-2" 377 0 basechar 0
AnchorPoint: "Anchor-1" 456 705 basechar 0
AnchorPoint: "Anchor-0" 377 705 basechar 0
LayerCount: 2
Fore
SplineSet
635 -128 m 2
 642.333333333 -139.333333333 645.333333333 -149.5 644 -158.5 c 128
 642.666666667 -167.5 639 -175.166666667 633 -181.5 c 128
 627 -187.833333333 619.333333333 -191.833333333 610 -193.5 c 128
 600.666666667 -195.166666667 591.333333333 -194.166666667 582 -190.5 c 128
 572.666666667 -186.833333333 564.666666667 -179.666666667 558 -169 c 2
 493 -63 l 2
 482.333333333 -45.6666666667 468 -32.3333333333 450 -23 c 128
 432 -13.6666666667 410.333333333 -9 385 -9 c 1
 460 22 l 1
 491.333333333 22 516.166666667 16.5 534.5 5.5 c 128
 552.833333333 -5.5 571 -25.3333333333 589 -54 c 2
 635 -128 l 2
386 -9 m 0
 319.333333333 -9 261.666666667 5.83333333333 213 35.5 c 128
 164.333333333 65.1666666667 126.5 107.166666667 99.5 161.5 c 128
 72.5 215.833333333 59 279.666666667 59 353 c 0
 59 408.333333333 66.6666666667 458.166666667 82 502.5 c 128
 97.3333333333 546.833333333 119.166666667 584.833333333 147.5 616.5 c 128
 175.833333333 648.166666667 210.166666667 672.333333333 250.5 689 c 128
 290.833333333 705.666666667 336 714 386 714 c 0
 452.666666667 714 510.333333333 699.333333333 559 670 c 128
 607.666666667 640.666666667 645.333333333 599 672 545 c 128
 698.666666667 491 712 427.333333333 712 354 c 0
 712 298.666666667 704.333333333 248.666666667 689 204 c 128
 673.666666667 159.333333333 651.833333333 121 623.5 89 c 128
 595.166666667 57 561 32.6666666667 521 16 c 128
 481 -0.666666666667 436 -9 386 -9 c 0
386 73 m 0
 434 73 475 84 509 106 c 128
 543 128 569.166666667 160 587.5 202 c 128
 605.833333333 244 615 294.333333333 615 353 c 0
 615 441.666666667 595.166666667 510.333333333 555.5 559 c 128
 515.833333333 607.666666667 459.333333333 632 386 632 c 0
 338 632 296.833333333 621.166666667 262.5 599.5 c 128
 228.166666667 577.833333333 202 546.166666667 184 504.5 c 128
 166 462.833333333 157 412.333333333 157 353 c 0
 157 265 177 196.333333333 217 147 c 128
 257 97.6666666667 313.333333333 73 386 73 c 0
EndSplineSet
EndChar

StartChar: R
Encoding: 82 82 166
Width: 673
GlyphClass: 2
Flags: W
AnchorPoint: "Anchor-2" 343 0 basechar 0
AnchorPoint: "Anchor-0" 342 705 basechar 0
LayerCount: 2
Fore
SplineSet
131 -7 m 0
 116.333333333 -7 105 -2.83333333333 97 5.5 c 128
 89 13.8333333333 85 25.6666666667 85 41 c 2
 85 658 l 2
 85 673.333333333 89.1666666667 685 97.5 693 c 128
 105.833333333 701 117.333333333 705 132 705 c 2
 370 705 l 2
 446 705 504.5 687.166666667 545.5 651.5 c 128
 586.5 615.833333333 607 565.333333333 607 500 c 0
 607 457.333333333 597.666666667 420.833333333 579 390.5 c 128
 560.333333333 360.166666667 533.333333333 337 498 321 c 128
 462.666666667 305 420 297 370 297 c 1
 380 311 l 1
 402 311 l 2
 428.666666667 311 451.833333333 304.333333333 471.5 291 c 128
 491.166666667 277.666666667 508.666666667 256.333333333 524 227 c 2
 616 58 l 2
 622 47.3333333333 624.666666667 37 624 27 c 128
 623.333333333 17 619.666666667 8.83333333333 613 2.5 c 128
 606.333333333 -3.83333333333 596.666666667 -7 584 -7 c 0
 570.666666667 -7 560 -4.16666666667 552 1.5 c 128
 544 7.16666666667 537 15.6666666667 531 27 c 2
 423 225 l 2
 408.333333333 253 391.666666667 271.5 373 280.5 c 128
 354.333333333 289.5 329.333333333 294 298 294 c 2
 178 294 l 1
 178 41 l 2
 178 25.6666666667 174.166666667 13.8333333333 166.5 5.5 c 128
 158.833333333 -2.83333333333 147 -7 131 -7 c 0
178 366 m 1
 355 366 l 2
 408.333333333 366 448.333333333 377.166666667 475 399.5 c 128
 501.666666667 421.833333333 515 454.666666667 515 498 c 256
 515 541.333333333 501.666666667 574 475 596 c 128
 448.333333333 618 408.333333333 629 355 629 c 2
 178 629 l 1
 178 366 l 1
EndSplineSet
EndChar

StartChar: S
Encoding: 83 83 174
Width: 618
GlyphClass: 2
Flags: W
AnchorPoint: "Anchor-2" 318 0 basechar 0
AnchorPoint: "Anchor-0" 316 705 basechar 0
LayerCount: 2
Fore
SplineSet
316 -9 m 0
 284.666666667 -9 254.333333333 -6.5 225 -1.5 c 128
 195.666666667 3.5 168 11 142 21 c 128
 116 31 92.6666666667 43.3333333333 72 58 c 0
 63.3333333333 64 57.1666666667 71.3333333333 53.5 80 c 128
 49.8333333333 88.6666666667 48.8333333333 97.1666666667 50.5 105.5 c 128
 52.1666666667 113.833333333 55.8333333333 121 61.5 127 c 128
 67.1666666667 133 74 136.666666667 82 138 c 128
 90 139.333333333 98.6666666667 136.666666667 108 130 c 0
 138.666666667 109.333333333 170.833333333 94.3333333333 204.5 85 c 128
 238.166666667 75.6666666667 275.333333333 71 316 71 c 0
 374.666666667 71 417.833333333 81.6666666667 445.5 103 c 128
 473.166666667 124.333333333 487 152.333333333 487 187 c 0
 487 215.666666667 477 238.166666667 457 254.5 c 128
 437 270.833333333 403.333333333 283.666666667 356 293 c 2
 250 315 l 2
 187.333333333 328.333333333 140.5 350.333333333 109.5 381 c 128
 78.5 411.666666667 63 452.666666667 63 504 c 0
 63 535.333333333 69.3333333333 563.833333333 82 589.5 c 128
 94.6666666667 615.166666667 112.666666667 637.333333333 136 656 c 128
 159.333333333 674.666666667 186.833333333 689 218.5 699 c 128
 250.166666667 709 285.333333333 714 324 714 c 0
 365.333333333 714 404.166666667 708.333333333 440.5 697 c 128
 476.833333333 685.666666667 509.666666667 669 539 647 c 0
 547 641 552.333333333 633.833333333 555 625.5 c 128
 557.666666667 617.166666667 558.166666667 609 556.5 601 c 128
 554.833333333 593 551.166666667 586.333333333 545.5 581 c 128
 539.833333333 575.666666667 532.833333333 572.666666667 524.5 572 c 128
 516.166666667 571.333333333 507 574.333333333 497 581 c 0
 470.333333333 599.666666667 443 613.166666667 415 621.5 c 128
 387 629.833333333 356.333333333 634 323 634 c 0
 289 634 259.5 628.666666667 234.5 618 c 128
 209.5 607.333333333 190.166666667 592.5 176.5 573.5 c 128
 162.833333333 554.5 156 532.333333333 156 507 c 0
 156 476.333333333 165.333333333 452.333333333 184 435 c 128
 202.666666667 417.666666667 234 404.333333333 278 395 c 2
 383 374 l 2
 449.666666667 360 499.166666667 338.5 531.5 309.5 c 128
 563.833333333 280.5 580 241.666666667 580 193 c 0
 580 162.333333333 573.833333333 134.666666667 561.5 110 c 128
 549.166666667 85.3333333333 531.666666667 64.1666666667 509 46.5 c 128
 486.333333333 28.8333333333 458.666666667 15.1666666667 426 5.5 c 128
 393.333333333 -4.16666666667 356.666666667 -9 316 -9 c 0
EndSplineSet
EndChar

StartChar: uni1E9E
Encoding: 397 7838 185
Width: 716
GlyphClass: 1
Flags: W
LayerCount: 2
Fore
SplineSet
436 -9 m 0
 402 -9 370 -4.83333333333 340 3.5 c 128
 310 11.8333333333 283.666666667 23.6666666667 261 39 c 0
 253 44.3333333333 247.666666667 50.8333333333 245 58.5 c 128
 242.333333333 66.1666666667 241.833333333 73.8333333333 243.5 81.5 c 128
 245.166666667 89.1666666667 248.5 95.8333333333 253.5 101.5 c 128
 258.5 107.166666667 264.666666667 110.666666667 272 112 c 128
 279.333333333 113.333333333 287 111.333333333 295 106 c 0
 316.333333333 92.6666666667 337.833333333 83 359.5 77 c 128
 381.166666667 71 404 68 428 68 c 0
 472.666666667 68 506.666666667 79.1666666667 530 101.5 c 128
 553.333333333 123.833333333 565 154.666666667 565 194 c 256
 565 233.333333333 552.333333333 263.5 527 284.5 c 128
 501.666666667 305.5 463 316 411 316 c 2
 315 316 l 2
 303.666666667 316 294.333333333 319.333333333 287 326 c 128
 279.666666667 332.666666667 276 342 276 354 c 0
 276 366.666666667 279.333333333 376 286 382 c 128
 292.666666667 388 301.333333333 391 312 391 c 2
 389 391 l 2
 431.666666667 391 465.5 401.666666667 490.5 423 c 128
 515.5 444.333333333 528 474.666666667 528 514 c 0
 528 554 514.5 584.333333333 487.5 605 c 128
 460.5 625.666666667 421.333333333 636 370 636 c 0
 306.666666667 636 258.833333333 621.166666667 226.5 591.5 c 128
 194.166666667 561.833333333 178 516.666666667 178 456 c 2
 178 41 l 2
 178 25.6666666667 174 13.8333333333 166 5.5 c 128
 158 -2.83333333333 146.333333333 -7 131 -7 c 0
 116.333333333 -7 105 -2.83333333333 97 5.5 c 128
 89 13.8333333333 85 25.6666666667 85 41 c 2
 85 458 l 2
 85 514 96.3333333333 561 119 599 c 128
 141.666666667 637 174.5 665.666666667 217.5 685 c 128
 260.5 704.333333333 312.333333333 714 373 714 c 0
 423.666666667 714 467.333333333 706.5 504 691.5 c 128
 540.666666667 676.5 569 655 589 627 c 128
 609 599 619 565.666666667 619 527 c 0
 619 484.333333333 607.666666667 447.333333333 585 416 c 128
 562.333333333 384.666666667 531 364 491 354 c 1
 491 369 l 1
 525 365.666666667 554.333333333 356.166666667 579 340.5 c 128
 603.666666667 324.833333333 622.833333333 304.166666667 636.5 278.5 c 128
 650.166666667 252.833333333 657 223 657 189 c 0
 657 147 648.166666667 111.333333333 630.5 82 c 128
 612.833333333 52.6666666667 587.5 30.1666666667 554.5 14.5 c 128
 521.5 -1.16666666667 482 -9 436 -9 c 0
EndSplineSet
EndChar

StartChar: uni018F
Encoding: 398 399 186
Width: 771
GlyphClass: 2
Flags: W
AnchorPoint: "Anchor-2" 384 0 basechar 0
AnchorPoint: "Anchor-0" 384 705 basechar 0
LayerCount: 2
Fore
SplineSet
392 -9 m 0
 336.666666667 -9 288.333333333 -0.333333333333 247 17 c 128
 205.666666667 34.3333333333 171 59.1666666667 143 91.5 c 128
 115 123.833333333 94 162.333333333 80 207 c 128
 66 251.666666667 59 301.333333333 59 356 c 0
 59 368.666666667 61.8333333333 378.166666667 67.5 384.5 c 128
 73.1666666667 390.833333333 81.6666666667 394 93 394 c 2
 642 394 l 1
 642 316 l 1
 130 316 l 1
 155 354 l 1
 155 292.666666667 163.666666667 240.833333333 181 198.5 c 128
 198.333333333 156.166666667 224.166666667 124.166666667 258.5 102.5 c 128
 292.833333333 80.8333333333 336 70 388 70 c 0
 435.333333333 70 476 81 510 103 c 128
 544 125 570 157 588 199 c 128
 606 241 615 292.333333333 615 353 c 0
 615 413 604.833333333 463.666666667 584.5 505 c 128
 564.166666667 546.333333333 534.833333333 577.833333333 496.5 599.5 c 128
 458.166666667 621.166666667 411 632 355 632 c 0
 314.333333333 632 277.833333333 627.5 245.5 618.5 c 128
 213.166666667 609.5 182.333333333 595 153 575 c 0
 142.333333333 569 132.666666667 566.5 124 567.5 c 128
 115.333333333 568.5 108.166666667 571.833333333 102.5 577.5 c 128
 96.8333333333 583.166666667 93.1666666667 590.166666667 91.5 598.5 c 128
 89.8333333333 606.833333333 90.5 615 93.5 623 c 128
 96.5 631 102.666666667 638 112 644 c 0
 144.666666667 667.333333333 182.5 684.833333333 225.5 696.5 c 128
 268.5 708.166666667 314.666666667 714 364 714 c 0
 435.333333333 714 496.833333333 699.5 548.5 670.5 c 128
 600.166666667 641.5 640.333333333 600 669 546 c 128
 697.666666667 492 712 427.333333333 712 352 c 0
 712 296.666666667 704.5 246.833333333 689.5 202.5 c 128
 674.5 158.166666667 652.833333333 120.166666667 624.5 88.5 c 128
 596.166666667 56.8333333333 562.333333333 32.6666666667 523 16 c 128
 483.666666667 -0.666666666667 440 -9 392 -9 c 0
EndSplineSet
EndChar

StartChar: T
Encoding: 84 84 187
Width: 607
GlyphClass: 2
Flags: W
AnchorPoint: "Anchor-5" 304 358 basechar 0
AnchorPoint: "Anchor-2" 304 0 basechar 0
AnchorPoint: "Anchor-0" 304 705 basechar 0
LayerCount: 2
Fore
SplineSet
304 -7 m 256
 288.666666667 -7 277 -2.83333333333 269 5.5 c 128
 261 13.8333333333 257 25.6666666667 257 41 c 2
 257 626 l 1
 38 626 l 2
 25.3333333333 626 15.3333333333 629.5 8 636.5 c 128
 0.666666666667 643.5 -3 653.333333333 -3 666 c 256
 -3 678.666666667 0.666666666667 688.333333333 8 695 c 128
 15.3333333333 701.666666667 25.3333333333 705 38 705 c 2
 569 705 l 2
 582.333333333 705 592.5 701.666666667 599.5 695 c 128
 606.5 688.333333333 610 678.666666667 610 666 c 256
 610 653.333333333 606.5 643.5 599.5 636.5 c 128
 592.5 629.5 582.333333333 626 569 626 c 2
 350 626 l 1
 350 41 l 2
 350 25.6666666667 346.166666667 13.8333333333 338.5 5.5 c 128
 330.833333333 -2.83333333333 319.333333333 -7 304 -7 c 256
EndSplineSet
EndChar

StartChar: U
Encoding: 85 85 194
Width: 731
GlyphClass: 2
Flags: W
AnchorPoint: "Anchor-3" 423 0 basechar 0
AnchorPoint: "Anchor-2" 366 0 basechar 0
AnchorPoint: "Anchor-1" 579 705 basechar 0
AnchorPoint: "Anchor-0" 366 705 basechar 0
LayerCount: 2
Fore
SplineSet
366 -9 m 0
 319.333333333 -9 278.166666667 -2.83333333333 242.5 9.5 c 128
 206.833333333 21.8333333333 177 40.1666666667 153 64.5 c 128
 129 88.8333333333 110.833333333 119.166666667 98.5 155.5 c 128
 86.1666666667 191.833333333 80 234 80 282 c 2
 80 665 l 2
 80 681 84 692.833333333 92 700.5 c 128
 100 708.166666667 111.333333333 712 126 712 c 0
 141.333333333 712 153 708.166666667 161 700.5 c 128
 169 692.833333333 173 681 173 665 c 2
 173 285 l 2
 173 213.666666667 189.333333333 160.5 222 125.5 c 128
 254.666666667 90.5 302.666666667 73 366 73 c 256
 429.333333333 73 477.333333333 90.5 510 125.5 c 128
 542.666666667 160.5 559 213.666666667 559 285 c 2
 559 665 l 2
 559 681 563 692.833333333 571 700.5 c 128
 579 708.166666667 590.333333333 712 605 712 c 256
 619.666666667 712 631 708.166666667 639 700.5 c 128
 647 692.833333333 651 681 651 665 c 2
 651 282 l 2
 651 218.666666667 640.166666667 165.333333333 618.5 122 c 128
 596.833333333 78.6666666667 564.833333333 46 522.5 24 c 128
 480.166666667 2 428 -9 366 -9 c 0
EndSplineSet
EndChar

StartChar: V
Encoding: 86 86 217
Width: 694
GlyphClass: 2
Flags: W
AnchorPoint: "Anchor-2" 348 0 basechar 0
AnchorPoint: "Anchor-0" 347 705 basechar 0
LayerCount: 2
Fore
SplineSet
348 -7 m 256
 334 -7 322.666666667 -3.83333333333 314 2.5 c 128
 305.333333333 8.83333333333 298 18.6666666667 292 32 c 2
 21 651 l 2
 15.6666666667 663.666666667 14.1666666667 674.5 16.5 683.5 c 128
 18.8333333333 692.5 23.8333333333 699.5 31.5 704.5 c 128
 39.1666666667 709.5 48.3333333333 712 59 712 c 0
 73 712 83.5 709 90.5 703 c 128
 97.5 697 103.666666667 688 109 676 c 2
 367 77 l 1
 332 77 l 1
 589 676 l 2
 594.333333333 688 600.666666667 697 608 703 c 128
 615.333333333 709 625.666666667 712 639 712 c 0
 649.666666667 712 658.5 709.333333333 665.5 704 c 128
 672.5 698.666666667 676.833333333 691.5 678.5 682.5 c 128
 680.166666667 673.5 678.666666667 663 674 651 c 2
 402 32 l 2
 396.666666667 18.6666666667 389.833333333 8.83333333333 381.5 2.5 c 128
 373.166666667 -3.83333333333 362 -7 348 -7 c 256
EndSplineSet
EndChar

StartChar: W
Encoding: 87 87 218
Width: 1104
GlyphClass: 2
Flags: W
AnchorPoint: "Anchor-2" 552 0 basechar 0
AnchorPoint: "Anchor-0" 552 705 basechar 0
LayerCount: 2
Fore
SplineSet
316 -7 m 256
 302.666666667 -7 292 -3.66666666667 284 3 c 128
 276 9.66666666667 269.333333333 20.3333333333 264 35 c 2
 46 657 l 2
 40 672.333333333 40.8333333333 685.333333333 48.5 696 c 128
 56.1666666667 706.666666667 69 712 87 712 c 0
 99.6666666667 712 109.666666667 709 117 703 c 128
 124.333333333 697 130.333333333 687 135 673 c 2
 336 83 l 1
 300 83 l 1
 506 671 l 2
 511.333333333 685 517.666666667 695.333333333 525 702 c 128
 532.333333333 708.666666667 542 712 554 712 c 0
 566.666666667 712 576.5 708.666666667 583.5 702 c 128
 590.5 695.333333333 596.333333333 684.666666667 601 670 c 2
 803 83 l 1
 771 83 l 1
 974 673 l 2
 978.666666667 686.333333333 984.666666667 696.166666667 992 702.5 c 128
 999.333333333 708.833333333 1009.66666667 712 1023 712 c 0
 1038.33333333 712 1049.66666667 706.666666667 1057 696 c 128
 1064.33333333 685.333333333 1065.33333333 672.333333333 1060 657 c 2
 840 34 l 2
 835.333333333 20 829 9.66666666667 821 3 c 128
 813 -3.66666666667 802.333333333 -7 789 -7 c 0
 775 -7 764 -3.66666666667 756 3 c 128
 748 9.66666666667 741.333333333 20.3333333333 736 35 c 2
 541 595 l 1
 563 595 l 1
 367 34 l 2
 361.666666667 20 355.166666667 9.66666666667 347.5 3 c 128
 339.833333333 -3.66666666667 329.333333333 -7 316 -7 c 256
EndSplineSet
EndChar

StartChar: X
Encoding: 88 88 223
Width: 655
GlyphClass: 2
Flags: W
AnchorPoint: "Anchor-2" 328 0 basechar 0
AnchorPoint: "Anchor-0" 328 705 basechar 0
LayerCount: 2
Fore
SplineSet
83 -7 m 0
 71 -7 61 -3.83333333333 53 2.5 c 128
 45 8.83333333333 40.5 17 39.5 27 c 128
 38.5 37 41.6666666667 47 49 57 c 2
 289 378 l 1
 289 342 l 1
 63 646 l 2
 55 657.333333333 51.5 668 52.5 678 c 128
 53.5 688 57.8333333333 696.166666667 65.5 702.5 c 128
 73.1666666667 708.833333333 82.6666666667 712 94 712 c 0
 104 712 112.833333333 709.833333333 120.5 705.5 c 128
 128.166666667 701.166666667 135.666666667 693.333333333 143 682 c 2
 343 409 l 1
 314 409 l 1
 512 682 l 2
 519.333333333 693.333333333 526.833333333 701.166666667 534.5 705.5 c 128
 542.166666667 709.833333333 551.333333333 712 562 712 c 0
 574 712 583.833333333 708.833333333 591.5 702.5 c 128
 599.166666667 696.166666667 603.5 688 604.5 678 c 128
 605.5 668 601.666666667 657.333333333 593 646 c 2
 367 342 l 1
 367 378 l 1
 606 57 l 2
 613.333333333 47 616.666666667 37 616 27 c 128
 615.333333333 17 611 8.83333333333 603 2.5 c 128
 595 -3.83333333333 584.666666667 -7 572 -7 c 0
 563.333333333 -7 555 -4.66666666667 547 0 c 128
 539 4.66666666667 531 12.3333333333 523 23 c 2
 310 314 l 1
 345 314 l 1
 133 23 l 2
 125 12.3333333333 117 4.66666666667 109 0 c 128
 101 -4.66666666667 92.3333333333 -7 83 -7 c 0
EndSplineSet
EndChar

StartChar: Y
Encoding: 89 89 224
Width: 601
GlyphClass: 2
Flags: W
AnchorPoint: "Anchor-2" 301 0 basechar 0
AnchorPoint: "Anchor-0" 300 705 basechar 0
LayerCount: 2
Fore
SplineSet
300 -7 m 0
 285.333333333 -7 274 -2.83333333333 266 5.5 c 128
 258 13.8333333333 254 26 254 42 c 2
 254 365 l 1
 274 303 l 1
 26 647 l 2
 19.3333333333 656.333333333 16.1666666667 666.166666667 16.5 676.5 c 128
 16.8333333333 686.833333333 20.6666666667 695.333333333 28 702 c 128
 35.3333333333 708.666666667 45.3333333333 712 58 712 c 0
 68 712 77 709.666666667 85 705 c 128
 93 700.333333333 100.666666667 692.666666667 108 682 c 2
 314 398 l 1
 291 398 l 1
 497 682 l 2
 504.333333333 693.333333333 511.666666667 701.166666667 519 705.5 c 128
 526.333333333 709.833333333 535.666666667 712 547 712 c 0
 559 712 568.5 708.833333333 575.5 702.5 c 128
 582.5 696.166666667 586.166666667 688 586.5 678 c 128
 586.833333333 668 583 657.666666667 575 647 c 2
 327 303 l 1
 347 365 l 1
 347 42 l 2
 347 9.33333333333 331.333333333 -7 300 -7 c 0
EndSplineSet
EndChar

StartChar: uni01B3
Encoding: 432 435 231
Width: 614
GlyphClass: 1
Flags: W
LayerCount: 2
Fore
SplineSet
300 -7 m 0
 285.333333333 -7 274 -2.66666666667 266 6 c 128
 258 14.6666666667 254 27 254 43 c 2
 254 365 l 1
 274 303 l 1
 26 647 l 2
 19.3333333333 656.333333333 16.3333333333 666.166666667 17 676.5 c 128
 17.6666666667 686.833333333 21.6666666667 695.333333333 29 702 c 128
 36.3333333333 708.666666667 46.3333333333 712 59 712 c 0
 67.6666666667 712 74.6666666667 711 80 709 c 128
 85.3333333333 707 90.3333333333 703.5 95 698.5 c 128
 99.6666666667 693.5 105 686.666666667 111 678 c 2
 314 398 l 1
 292 398 l 1
 454 630 l 2
 467.333333333 649.333333333 481.666666667 665 497 677 c 128
 512.333333333 689 529.166666667 698 547.5 704 c 128
 565.833333333 710 585.333333333 713 606 713 c 0
 628.666666667 713 646.166666667 710.5 658.5 705.5 c 128
 670.833333333 700.5 677 689.666666667 677 673 c 0
 677 666.333333333 675.666666667 660.5 673 655.5 c 128
 670.333333333 650.5 666.833333333 646.833333333 662.5 644.5 c 128
 658.166666667 642.166666667 653.333333333 641.333333333 648 642 c 0
 644 642 639.333333333 642.166666667 634 642.5 c 128
 628.666666667 642.833333333 624.333333333 643 621 643 c 0
 605.666666667 643 590 639.333333333 574 632 c 128
 558 624.666666667 543.666666667 611.666666667 531 593 c 2
 327 303 l 1
 347 365 l 1
 347 43 l 2
 347 9.66666666667 331.333333333 -7 300 -7 c 0
EndSplineSet
EndChar

StartChar: Z
Encoding: 90 90 235
Width: 593
GlyphClass: 2
Flags: W
AnchorPoint: "Anchor-2" 309 0 basechar 0
AnchorPoint: "Anchor-0" 308 705 basechar 0
LayerCount: 2
Fore
SplineSet
91 0 m 2
 79 0 69.1666666667 2.5 61.5 7.5 c 128
 53.8333333333 12.5 48.5 19.1666666667 45.5 27.5 c 128
 42.5 35.8333333333 42.5 45.3333333333 45.5 56 c 128
 48.5 66.6666666667 54 77.6666666667 62 89 c 2
 471 659 l 1
 471 626 l 1
 84 626 l 2
 70 626 59.3333333333 629.5 52 636.5 c 128
 44.6666666667 643.5 41 653.333333333 41 666 c 256
 41 678.666666667 44.6666666667 688.333333333 52 695 c 128
 59.3333333333 701.666666667 70 705 84 705 c 2
 513 705 l 2
 525 705 534.833333333 702.5 542.5 697.5 c 128
 550.166666667 692.5 555.5 685.833333333 558.5 677.5 c 128
 561.5 669.166666667 561.666666667 659.666666667 559 649 c 128
 556.333333333 638.333333333 550.666666667 627.333333333 542 616 c 2
 133 46 l 1
 133 79 l 1
 535 79 l 2
 549 79 559.666666667 75.6666666667 567 69 c 128
 574.333333333 62.3333333333 578 52.6666666667 578 40 c 256
 578 27.3333333333 574.333333333 17.5 567 10.5 c 128
 559.666666667 3.5 549 0 535 0 c 2
 91 0 l 2
EndSplineSet
EndChar

StartChar: a
Encoding: 97 97 241
Width: 533
GlyphClass: 2
Flags: W
AnchorPoint: "Anchor-3" 442 0 basechar 0
AnchorPoint: "Anchor-2" 270 0 basechar 0
AnchorPoint: "Anchor-0" 273 484 basechar 0
LayerCount: 2
Fore
SplineSet
228 -9 m 0
 194.666666667 -9 164.5 -2.33333333333 137.5 11 c 128
 110.5 24.3333333333 89.5 42.3333333333 74.5 65 c 128
 59.5 87.6666666667 52 113 52 141 c 0
 52 177 61 205.333333333 79 226 c 128
 97 246.666666667 127.333333333 261.5 170 270.5 c 128
 212.666666667 279.5 270 284 342 284 c 2
 389 284 l 1
 389 226 l 1
 344 226 l 2
 292.666666667 226 252.166666667 223.666666667 222.5 219 c 128
 192.833333333 214.333333333 172 206.166666667 160 194.5 c 128
 148 182.833333333 142 166.666666667 142 146 c 0
 142 120 151.166666667 98.6666666667 169.5 82 c 128
 187.833333333 65.3333333333 213 57 245 57 c 0
 270.333333333 57 292.666666667 63.1666666667 312 75.5 c 128
 331.333333333 87.8333333333 346.666666667 104.5 358 125.5 c 128
 369.333333333 146.5 375 170.666666667 375 198 c 2
 375 313 l 2
 375 352.333333333 367 380.833333333 351 398.5 c 128
 335 416.166666667 308 425 270 425 c 0
 248 425 225.333333333 422 202 416 c 128
 178.666666667 410 154.333333333 400.666666667 129 388 c 0
 119 383.333333333 110.333333333 381.833333333 103 383.5 c 128
 95.6666666667 385.166666667 89.8333333333 389.166666667 85.5 395.5 c 128
 81.1666666667 401.833333333 78.8333333333 408.833333333 78.5 416.5 c 128
 78.1666666667 424.166666667 79.8333333333 431.666666667 83.5 439 c 128
 87.1666666667 446.333333333 93.6666666667 451.666666667 103 455 c 0
 132.333333333 469.666666667 161.5 480.166666667 190.5 486.5 c 128
 219.5 492.833333333 246.666666667 496 272 496 c 0
 315.333333333 496 351 489.166666667 379 475.5 c 128
 407 461.833333333 428 440.833333333 442 412.5 c 128
 456 384.166666667 463 348 463 304 c 2
 463 40 l 2
 463 24.6666666667 459.333333333 13 452 5 c 128
 444.666666667 -3 434 -7 420 -7 c 0
 406.666666667 -7 396.166666667 -3 388.5 5 c 128
 380.833333333 13 377 24.6666666667 377 40 c 2
 377 111 l 1
 386 111 l 1
 380.666666667 86.3333333333 370.666666667 65 356 47 c 128
 341.333333333 29 323.166666667 15.1666666667 301.5 5.5 c 128
 279.833333333 -4.16666666667 255.333333333 -9 228 -9 c 0
EndSplineSet
Substitution2: "Nunito-Medium-'ss01' Style Set 1 lookup 35 subtable" a.ss01
Substitution2: "Nunito-Medium-'salt' Stylistic Alternatives lookup 34 subtable" a.ss01
Substitution2: "Nunito-Medium-Single Substitution lookup 29 subtable" ordfeminine
AlternateSubs2: "Nunito-Medium-'aalt' Access All Alternates lookup 1 subtable" a.ss01 ordfeminine
EndChar

StartChar: aogonek
Encoding: 459 261 264
Width: 533
GlyphClass: 1
Flags: W
LayerCount: 2
Fore
SplineSet
423 -193 m 0
 390.333333333 -193 364.166666667 -184 344.5 -166 c 128
 324.833333333 -148 315 -124 315 -94 c 0
 315 -70 321.833333333 -47.3333333333 335.5 -26 c 128
 349.166666667 -4.66666666667 368 13.3333333333 392 28 c 1
 387 8 l 1
 383.666666667 12 381.166666667 16.6666666667 379.5 22 c 128
 377.833333333 27.3333333333 377 33.3333333333 377 40 c 2
 377 111 l 1
 386 111 l 1
 380.666666667 86.3333333333 370.666666667 65 356 47 c 128
 341.333333333 29 323.166666667 15.1666666667 301.5 5.5 c 128
 279.833333333 -4.16666666667 255.333333333 -9 228 -9 c 0
 194.666666667 -9 164.5 -2.33333333333 137.5 11 c 128
 110.5 24.3333333333 89.5 42.3333333333 74.5 65 c 128
 59.5 87.6666666667 52 113 52 141 c 0
 52 177 61 205.333333333 79 226 c 128
 97 246.666666667 127.333333333 261.5 170 270.5 c 128
 212.666666667 279.5 270 284 342 284 c 2
 389 284 l 1
 389 226 l 1
 344 226 l 2
 292.666666667 226 252.166666667 223.666666667 222.5 219 c 128
 192.833333333 214.333333333 172 206.166666667 160 194.5 c 128
 148 182.833333333 142 166.666666667 142 146 c 0
 142 120 151.166666667 98.6666666667 169.5 82 c 128
 187.833333333 65.3333333333 213 57 245 57 c 0
 270.333333333 57 292.666666667 63.1666666667 312 75.5 c 128
 331.333333333 87.8333333333 346.666666667 104.5 358 125.5 c 128
 369.333333333 146.5 375 170.666666667 375 198 c 2
 375 313 l 2
 375 352.333333333 367 380.833333333 351 398.5 c 128
 335 416.166666667 308 425 270 425 c 0
 248 425 225.333333333 422 202 416 c 128
 178.666666667 410 154.333333333 400.666666667 129 388 c 0
 119 383.333333333 110.333333333 381.833333333 103 383.5 c 128
 95.6666666667 385.166666667 89.8333333333 389.166666667 85.5 395.5 c 128
 81.1666666667 401.833333333 78.8333333333 408.833333333 78.5 416.5 c 128
 78.1666666667 424.166666667 79.8333333333 431.666666667 83.5 439 c 128
 87.1666666667 446.333333333 93.6666666667 451.666666667 103 455 c 0
 132.333333333 469.666666667 161.5 480.166666667 190.5 486.5 c 128
 219.5 492.833333333 246.666666667 496 272 496 c 0
 315.333333333 496 351 489.166666667 379 475.5 c 128
 407 461.833333333 428 440.833333333 442 412.5 c 128
 456 384.166666667 463 348 463 304 c 2
 463 40 l 2
 463 26.6666666667 460.5 16.5 455.5 9.5 c 128
 450.5 2.5 443.333333333 -3 434 -7 c 0
 419.333333333 -14.3333333333 406.166666667 -24.5 394.5 -37.5 c 128
 382.833333333 -50.5 377 -66 377 -84 c 256
 377 -102 382.666666667 -115.666666667 394 -125 c 128
 405.333333333 -134.333333333 419 -139 435 -139 c 0
 441 -139 446.666666667 -138.5 452 -137.5 c 128
 457.333333333 -136.5 463 -135 469 -133 c 0
 478.333333333 -130.333333333 485.833333333 -130.833333333 491.5 -134.5 c 128
 497.166666667 -138.166666667 500.666666667 -143.333333333 502 -150 c 128
 503.333333333 -156.666666667 502.333333333 -163.166666667 499 -169.5 c 128
 495.666666667 -175.833333333 490.333333333 -180.666666667 483 -184 c 0
 472.333333333 -188 462 -190.5 452 -191.5 c 128
 442 -192.5 432.333333333 -193 423 -193 c 0
EndSplineSet
Substitution2: "Nunito-Medium-'ss01' Style Set 1 lookup 35 subtable" aogonek.ss01
Substitution2: "Nunito-Medium-'salt' Stylistic Alternatives lookup 34 subtable" aogonek.ss01
Substitution2: "Nunito-Medium-'aalt' Access All Alternates lookup 0 subtable" aogonek.ss01
EndChar

StartChar: ae
Encoding: 230 230 268
Width: 862
GlyphClass: 2
Flags: W
AnchorPoint: "Anchor-2" 415 0 basechar 0
AnchorPoint: "Anchor-0" 415 484 basechar 0
LayerCount: 2
Fore
SplineSet
235 -9 m 0
 199 -9 167.166666667 -2.33333333333 139.5 11 c 128
 111.833333333 24.3333333333 90.3333333333 42.3333333333 75 65 c 128
 59.6666666667 87.6666666667 52 113 52 141 c 0
 52 177 61.1666666667 205.333333333 79.5 226 c 128
 97.8333333333 246.666666667 128.333333333 261.333333333 171 270 c 128
 213.666666667 278.666666667 271.333333333 283 344 283 c 2
 389 283 l 1
 389 226 l 1
 344 226 l 2
 292.666666667 226 252.166666667 223.666666667 222.5 219 c 128
 192.833333333 214.333333333 172 206.166666667 160 194.5 c 128
 148 182.833333333 142 166.666666667 142 146 c 0
 142 120 151.166666667 98.6666666667 169.5 82 c 128
 187.833333333 65.3333333333 213.333333333 57 246 57 c 0
 272.666666667 57 295.666666667 63.3333333333 315 76 c 128
 334.333333333 88.6666666667 349.5 106 360.5 128 c 128
 371.5 150 377 175 377 203 c 2
 377 311 l 2
 377 351 368.666666667 380 352 398 c 128
 335.333333333 416 308.666666667 425 272 425 c 0
 249.333333333 425 226.333333333 422 203 416 c 128
 179.666666667 410 155.333333333 400.666666667 130 388 c 0
 120 383.333333333 111.166666667 381.833333333 103.5 383.5 c 128
 95.8333333333 385.166666667 90 389.166666667 86 395.5 c 128
 82 401.833333333 79.8333333333 408.833333333 79.5 416.5 c 128
 79.1666666667 424.166666667 80.8333333333 431.666666667 84.5 439 c 128
 88.1666666667 446.333333333 94.6666666667 451.666666667 104 455 c 0
 133.333333333 469.666666667 162.5 480.166666667 191.5 486.5 c 128
 220.5 492.833333333 247.666666667 496 273 496 c 0
 321 496 359.333333333 486.333333333 388 467 c 128
 416.666666667 447.666666667 436.333333333 418.333333333 447 379 c 1
 422 379 l 1
 438.666666667 417 464.166666667 446 498.5 466 c 128
 532.833333333 486 570.666666667 496.333333333 612 497 c 0
 644 497 673 491.5 699 480.5 c 128
 725 469.5 747.166666667 453.666666667 765.5 433 c 128
 783.833333333 412.333333333 797.833333333 387.166666667 807.5 357.5 c 128
 817.166666667 327.833333333 822 294.333333333 822 257 c 2
 822 254 l 2
 822 244.666666667 818.833333333 237.666666667 812.5 233 c 128
 806.166666667 228.333333333 797 226 785 226 c 2
 457 226 l 1
 457 283 l 1
 760 283 l 1
 745 270 l 1
 745 304 740 332.833333333 730 356.5 c 128
 720 380.166666667 705.166666667 398.333333333 685.5 411 c 128
 665.833333333 423.666666667 641.333333333 430 612 430 c 0
 582 430 556 423 534 409 c 128
 512 395 495.166666667 374.833333333 483.5 348.5 c 128
 471.833333333 322.166666667 466 290.666666667 466 254 c 2
 466 247 l 2
 466 187 479.5 141.333333333 506.5 110 c 128
 533.5 78.6666666667 574 63 628 63 c 0
 647.333333333 63 668.5 65.8333333333 691.5 71.5 c 128
 714.5 77.1666666667 736.333333333 86.6666666667 757 100 c 0
 767 106 776.166666667 108.833333333 784.5 108.5 c 128
 792.833333333 108.166666667 799.666666667 105.5 805 100.5 c 128
 810.333333333 95.5 813.666666667 89.5 815 82.5 c 128
 816.333333333 75.5 815.333333333 68 812 60 c 128
 808.666666667 52 802.333333333 45 793 39 c 0
 770.333333333 23.6666666667 744.166666667 11.8333333333 714.5 3.5 c 128
 684.833333333 -4.83333333333 656 -9 628 -9 c 0
 571.333333333 -9 523.5 3.66666666667 484.5 29 c 128
 445.5 54.3333333333 418.333333333 92 403 142 c 1
 424 142 l 1
 414.666666667 95.3333333333 393.333333333 58.5 360 31.5 c 128
 326.666666667 4.5 285 -9 235 -9 c 0
EndSplineSet
EndChar

StartChar: b
Encoding: 98 98 270
Width: 587
GlyphClass: 2
Flags: W
AnchorPoint: "Anchor-2" 308 0 basechar 0
AnchorPoint: "Anchor-0" 308 705 basechar 0
LayerCount: 2
Fore
SplineSet
328 -9 m 0
 284 -9 246.333333333 2 215 24 c 128
 183.666666667 46 162.666666667 75.6666666667 152 113 c 1
 163 128 l 1
 163 40 l 2
 163 24.6666666667 159.166666667 13 151.5 5 c 128
 143.833333333 -3 132.666666667 -7 118 -7 c 0
 104 -7 93 -3 85 5 c 128
 77 13 73 24.6666666667 73 40 c 2
 73 666 l 2
 73 681.333333333 77 692.833333333 85 700.5 c 128
 93 708.166666667 104 712 118 712 c 0
 132.666666667 712 144 708.166666667 152 700.5 c 128
 160 692.833333333 164 681.333333333 164 666 c 2
 164 377 l 1
 153 377 l 1
 163.666666667 413 184.666666667 441.833333333 216 463.5 c 128
 247.333333333 485.166666667 284.666666667 496 328 496 c 256
 371.333333333 496 409.166666667 485.833333333 441.5 465.5 c 128
 473.833333333 445.166666667 498.833333333 416.166666667 516.5 378.5 c 128
 534.166666667 340.833333333 543 296 543 244 c 0
 543 192.666666667 534 147.833333333 516 109.5 c 128
 498 71.1666666667 473 41.8333333333 441 21.5 c 128
 409 1.16666666667 371.333333333 -9 328 -9 c 0
307 63 m 0
 335.666666667 63 360.833333333 70 382.5 84 c 128
 404.166666667 98 421 118.333333333 433 145 c 128
 445 171.666666667 451 204.666666667 451 244 c 0
 451 302.666666667 438 347.333333333 412 378 c 128
 386 408.666666667 351 424 307 424 c 0
 277.666666667 424 252.166666667 417.166666667 230.5 403.5 c 128
 208.833333333 389.833333333 192.166666667 369.666666667 180.5 343 c 128
 168.833333333 316.333333333 163 283.333333333 163 244 c 0
 163 185.333333333 176 140.5 202 109.5 c 128
 228 78.5 263 63 307 63 c 0
EndSplineSet
EndChar

StartChar: uni0253
Encoding: 462 595 271
Width: 587
GlyphClass: 1
Flags: W
LayerCount: 2
Fore
SplineSet
328 -9 m 0
 284 -9 246.333333333 2 215 24 c 128
 183.666666667 46 162.666666667 75.6666666667 152 113 c 1
 163 128 l 1
 163 40 l 2
 163 24.6666666667 159.166666667 13 151.5 5 c 128
 143.833333333 -3 132.666666667 -7 118 -7 c 0
 104 -7 93 -3 85 5 c 128
 77 13 73 24.6666666667 73 40 c 2
 73 538 l 2
 73 593.333333333 87.6666666667 636.5 117 667.5 c 128
 146.333333333 698.5 189 714 245 714 c 0
 268.333333333 714 285 710.666666667 295 704 c 128
 305 697.333333333 310 687.666666667 310 675 c 0
 310 663.666666667 307.5 654.5 302.5 647.5 c 128
 297.5 640.5 290.666666667 637.333333333 282 638 c 0
 278 638 273.833333333 638.333333333 269.5 639 c 128
 265.166666667 639.666666667 260 640 254 640 c 0
 225.333333333 640 203.166666667 631.5 187.5 614.5 c 128
 171.833333333 597.5 164 572.666666667 164 540 c 2
 164 377 l 1
 153 377 l 1
 163.666666667 413 184.666666667 441.833333333 216 463.5 c 128
 247.333333333 485.166666667 284.666666667 496 328 496 c 256
 371.333333333 496 409.166666667 485.833333333 441.5 465.5 c 128
 473.833333333 445.166666667 498.833333333 416.166666667 516.5 378.5 c 128
 534.166666667 340.833333333 543 296 543 244 c 0
 543 192.666666667 534 147.833333333 516 109.5 c 128
 498 71.1666666667 473 41.8333333333 441 21.5 c 128
 409 1.16666666667 371.333333333 -9 328 -9 c 0
307 63 m 0
 335.666666667 63 360.833333333 70 382.5 84 c 128
 404.166666667 98 421 118.333333333 433 145 c 128
 445 171.666666667 451 204.666666667 451 244 c 0
 451 302.666666667 438 347.333333333 412 378 c 128
 386 408.666666667 351 424 307 424 c 0
 277.666666667 424 252.166666667 417.166666667 230.5 403.5 c 128
 208.833333333 389.833333333 192.166666667 369.666666667 180.5 343 c 128
 168.833333333 316.333333333 163 283.333333333 163 244 c 0
 163 185.333333333 176 140.5 202 109.5 c 128
 228 78.5 263 63 307 63 c 0
EndSplineSet
EndChar

StartChar: c
Encoding: 99 99 272
Width: 465
GlyphClass: 2
Flags: W
AnchorPoint: "Anchor-2" 279 0 basechar 0
AnchorPoint: "Anchor-0" 279 484 basechar 0
LayerCount: 2
Fore
SplineSet
284 -9 m 0
 234.666666667 -9 192 1.5 156 22.5 c 128
 120 43.5 92.3333333333 73.1666666667 73 111.5 c 128
 53.6666666667 149.833333333 44 195 44 247 c 0
 44 285.666666667 49.5 320.333333333 60.5 351 c 128
 71.5 381.666666667 87.3333333333 407.833333333 108 429.5 c 128
 128.666666667 451.166666667 153.833333333 467.666666667 183.5 479 c 128
 213.166666667 490.333333333 246.666666667 496 284 496 c 0
 307.333333333 496 332 492.333333333 358 485 c 128
 384 477.666666667 408 465.666666667 430 449 c 0
 437.333333333 443.666666667 442 437.5 444 430.5 c 128
 446 423.5 446.166666667 416.333333333 444.5 409 c 128
 442.833333333 401.666666667 439.5 395.5 434.5 390.5 c 128
 429.5 385.5 423.166666667 382.666666667 415.5 382 c 128
 407.833333333 381.333333333 399.666666667 383.666666667 391 389 c 0
 375 401 358.166666667 409.666666667 340.5 415 c 128
 322.833333333 420.333333333 306 423 290 423 c 0
 265.333333333 423 243.5 419 224.5 411 c 128
 205.5 403 189.5 391.5 176.5 376.5 c 128
 163.5 361.5 153.666666667 343.166666667 147 321.5 c 128
 140.333333333 299.833333333 137 274.666666667 137 246 c 0
 137 189.333333333 150.333333333 144.833333333 177 112.5 c 128
 203.666666667 80.1666666667 241.333333333 64 290 64 c 0
 306 64 322.666666667 66.5 340 71.5 c 128
 357.333333333 76.5 374.333333333 85 391 97 c 0
 399.666666667 102.333333333 407.666666667 104.5 415 103.5 c 128
 422.333333333 102.5 428.5 99.5 433.5 94.5 c 128
 438.5 89.5 441.666666667 83.5 443 76.5 c 128
 444.333333333 69.5 443.833333333 62.3333333333 441.5 55 c 128
 439.166666667 47.6666666667 434.333333333 41.6666666667 427 37 c 0
 405.666666667 21 382.333333333 9.33333333333 357 2 c 128
 331.666666667 -5.33333333333 307.333333333 -9 284 -9 c 0
EndSplineSet
EndChar

StartChar: d
Encoding: 100 100 279
Width: 587
GlyphClass: 2
Flags: W
AnchorPoint: "Anchor-5" 292 246 basechar 0
AnchorPoint: "Anchor-4" 418 585 basechar 0
AnchorPoint: "Anchor-2" 295 0 basechar 0
AnchorPoint: "Anchor-1" 558 705 basechar 0
AnchorPoint: "Anchor-0" 294 705 basechar 0
LayerCount: 2
Fore
SplineSet
259 -9 m 0
 216.333333333 -9 178.833333333 1.16666666667 146.5 21.5 c 128
 114.166666667 41.8333333333 89 71.1666666667 71 109.5 c 128
 53 147.833333333 44 192.666666667 44 244 c 0
 44 296 52.8333333333 340.833333333 70.5 378.5 c 128
 88.1666666667 416.166666667 113.166666667 445.166666667 145.5 465.5 c 128
 177.833333333 485.833333333 215.666666667 496 259 496 c 256
 302.333333333 496 339.666666667 485.166666667 371 463.5 c 128
 402.333333333 441.833333333 423.333333333 413 434 377 c 1
 423 377 l 1
 423 666 l 2
 423 681.333333333 426.833333333 692.833333333 434.5 700.5 c 128
 442.166666667 708.166666667 453.333333333 712 468 712 c 256
 482.666666667 712 494 708.166666667 502 700.5 c 128
 510 692.833333333 514 681.333333333 514 666 c 2
 514 40 l 2
 514 24.6666666667 510 13 502 5 c 128
 494 -3 482.666666667 -7 468 -7 c 0
 454 -7 443 -3 435 5 c 128
 427 13 423 24.6666666667 423 40 c 2
 423 131 l 1
 434 113 l 1
 424 75.6666666667 403.166666667 46 371.5 24 c 128
 339.833333333 2 302.333333333 -9 259 -9 c 0
280 63 m 0
 309.333333333 63 334.833333333 70 356.5 84 c 128
 378.166666667 98 394.833333333 118.333333333 406.5 145 c 128
 418.166666667 171.666666667 424 204.666666667 424 244 c 0
 424 302.666666667 411 347.333333333 385 378 c 128
 359 408.666666667 324 424 280 424 c 0
 251.333333333 424 226.166666667 417.166666667 204.5 403.5 c 128
 182.833333333 389.833333333 166 369.666666667 154 343 c 128
 142 316.333333333 136 283.333333333 136 244 c 0
 136 185.333333333 149.166666667 140.5 175.5 109.5 c 128
 201.833333333 78.5 236.666666667 63 280 63 c 0
EndSplineSet
EndChar

StartChar: eth
Encoding: 240 240 280
Width: 565
GlyphClass: 1
Flags: W
LayerCount: 2
Fore
SplineSet
277 -9 m 0
 231 -9 190.333333333 0.666666666667 155 20 c 128
 119.666666667 39.3333333333 92.3333333333 66.3333333333 73 101 c 128
 53.6666666667 135.666666667 44 176 44 222 c 256
 44 268 53.6666666667 308.166666667 73 342.5 c 128
 92.3333333333 376.833333333 119.166666667 403.666666667 153.5 423 c 128
 187.833333333 442.333333333 227.666666667 452 273 452 c 0
 305 452 333.5 446.666666667 358.5 436 c 128
 383.5 425.333333333 404.5 409.166666667 421.5 387.5 c 128
 438.5 365.833333333 450.333333333 337.666666667 457 303 c 1
 434 303 l 1
 434.666666667 367 421.833333333 423 395.5 471 c 128
 369.166666667 519 334 557.333333333 290 586 c 1
 311 586 l 1
 162 520 l 2
 150 514.666666667 139.833333333 513.666666667 131.5 517 c 128
 123.166666667 520.333333333 117.333333333 525.5 114 532.5 c 128
 110.666666667 539.5 110.666666667 547.333333333 114 556 c 128
 117.333333333 564.666666667 125.333333333 571.666666667 138 577 c 2
 245 624 l 1
 248 611 l 1
 235.333333333 617.666666667 222 623.833333333 208 629.5 c 128
 194 635.166666667 179.333333333 640.333333333 164 645 c 0
 152 648.333333333 143.666666667 654 139 662 c 128
 134.333333333 670 133.166666667 678 135.5 686 c 128
 137.833333333 694 143 700.166666667 151 704.5 c 128
 159 708.833333333 169.333333333 709.666666667 182 707 c 0
 209.333333333 699.666666667 234.666666667 691 258 681 c 128
 281.333333333 671 303.333333333 659.666666667 324 647 c 1
 299 648 l 1
 423 702 l 2
 434.333333333 707.333333333 444.166666667 708.5 452.5 705.5 c 128
 460.833333333 702.5 466.833333333 697.333333333 470.5 690 c 128
 474.166666667 682.666666667 474.5 675 471.5 667 c 128
 468.5 659 461 652.333333333 449 647 c 2
 360 608 l 1
 363 620 l 1
 397 594 425.666666667 564 449 530 c 128
 472.333333333 496 490 458.666666667 502 418 c 128
 514 377.333333333 520 333 520 285 c 0
 520 237.666666667 514.833333333 195.833333333 504.5 159.5 c 128
 494.166666667 123.166666667 478.666666667 92.5 458 67.5 c 128
 437.333333333 42.5 412 23.5 382 10.5 c 128
 352 -2.5 317 -9 277 -9 c 0
279 63 m 0
 309 63 334.833333333 69.5 356.5 82.5 c 128
 378.166666667 95.5 394.833333333 114 406.5 138 c 128
 418.166666667 162 424 190 424 222 c 0
 424 270.666666667 411.166666667 309.166666667 385.5 337.5 c 128
 359.833333333 365.833333333 324.666666667 380 280 380 c 0
 250 380 224.333333333 373.666666667 203 361 c 128
 181.666666667 348.333333333 165.166666667 330.166666667 153.5 306.5 c 128
 141.833333333 282.833333333 136 254.666666667 136 222 c 0
 136 172 148.666666667 133 174 105 c 128
 199.333333333 77 234.333333333 63 279 63 c 0
EndSplineSet
EndChar

StartChar: dcroat
Encoding: 469 273 282
Width: 587
GlyphClass: 1
Flags: W
LayerCount: 2
Fore
SplineSet
260 -9 m 256
 216.666666667 -9 178.833333333 1.16666666667 146.5 21.5 c 128
 114.166666667 41.8333333333 89.1666666667 71.1666666667 71.5 109.5 c 128
 53.8333333333 147.833333333 45 192.666666667 45 244 c 0
 45 296 53.8333333333 340.833333333 71.5 378.5 c 128
 89.1666666667 416.166666667 114.166666667 445.166666667 146.5 465.5 c 128
 178.833333333 485.833333333 216.666666667 496 260 496 c 0
 302.666666667 496 339.666666667 485.166666667 371 463.5 c 128
 402.333333333 441.833333333 423.333333333 413 434 377 c 1
 423 377 l 1
 423 551 l 1
 263 551 l 2
 251.666666667 551 242.666666667 554 236 560 c 128
 229.333333333 566 226 574.333333333 226 585 c 0
 226 595 229.333333333 603 236 609 c 128
 242.666666667 615 251.666666667 618 263 618 c 2
 460 618 l 1
 423 580 l 1
 423 672 l 2
 423 684 427 693.666666667 435 701 c 128
 443 708.333333333 454 712 468 712 c 0
 482.666666667 712 494 708.333333333 502 701 c 128
 510 693.666666667 514 684 514 672 c 2
 514 580 l 1
 477 618 l 1
 573 618 l 2
 585 618 594 615 600 609 c 128
 606 603 609 595 609 585 c 0
 609 574.333333333 606 566 600 560 c 128
 594 554 585 551 573 551 c 2
 514 551 l 1
 514 40 l 2
 514 24.6666666667 510.166666667 13 502.5 5 c 128
 494.833333333 -3 483.666666667 -7 469 -7 c 256
 454.333333333 -7 443.166666667 -3 435.5 5 c 128
 427.833333333 13 424 24.6666666667 424 40 c 2
 424 130 l 1
 434 112 l 1
 424 75.3333333333 403.333333333 46 372 24 c 128
 340.666666667 2 303.333333333 -9 260 -9 c 256
281 63 m 0
 309.666666667 63 334.833333333 70 356.5 84 c 128
 378.166666667 98 395 118.333333333 407 145 c 128
 419 171.666666667 425 204.666666667 425 244 c 0
 425 302.666666667 412 347.333333333 386 378 c 128
 360 408.666666667 325 424 281 424 c 0
 251.666666667 424 226.166666667 417.166666667 204.5 403.5 c 128
 182.833333333 389.833333333 166.166666667 369.666666667 154.5 343 c 128
 142.833333333 316.333333333 137 283.333333333 137 244 c 0
 137 185.333333333 150 140.5 176 109.5 c 128
 202 78.5 237 63 281 63 c 0
EndSplineSet
EndChar

StartChar: uni0257
Encoding: 471 599 284
Width: 587
GlyphClass: 1
Flags: W
LayerCount: 2
Fore
SplineSet
259 -9 m 0
 216.333333333 -9 178.833333333 1.16666666667 146.5 21.5 c 128
 114.166666667 41.8333333333 89 71.1666666667 71 109.5 c 128
 53 147.833333333 44 192.666666667 44 244 c 0
 44 296 52.8333333333 340.833333333 70.5 378.5 c 128
 88.1666666667 416.166666667 113.166666667 445.166666667 145.5 465.5 c 128
 177.833333333 485.833333333 215.666666667 496 259 496 c 256
 302.333333333 496 339.666666667 485.166666667 371 463.5 c 128
 402.333333333 441.833333333 423.333333333 413 434 377 c 1
 423 377 l 1
 423 538 l 2
 423 593.333333333 437.5 636.5 466.5 667.5 c 128
 495.5 698.5 538 714 594 714 c 0
 618 714 635 710.666666667 645 704 c 128
 655 697.333333333 660 687.666666667 660 675 c 0
 660 663.666666667 657.333333333 654.5 652 647.5 c 128
 646.666666667 640.5 639.666666667 637.333333333 631 638 c 0
 627.666666667 638 623.666666667 638.333333333 619 639 c 128
 614.333333333 639.666666667 609 640 603 640 c 0
 575 640 553.166666667 631.5 537.5 614.5 c 128
 521.833333333 597.5 514 572.666666667 514 540 c 2
 514 40 l 2
 514 24.6666666667 510 13 502 5 c 128
 494 -3 482.666666667 -7 468 -7 c 0
 454 -7 443 -3 435 5 c 128
 427 13 423 24.6666666667 423 40 c 2
 423 131 l 1
 434 113 l 1
 424 75.6666666667 403.166666667 46 371.5 24 c 128
 339.833333333 2 302.333333333 -9 259 -9 c 0
280 63 m 0
 309.333333333 63 334.833333333 70 356.5 84 c 128
 378.166666667 98 394.833333333 118.333333333 406.5 145 c 128
 418.166666667 171.666666667 424 204.666666667 424 244 c 0
 424 302.666666667 411 347.333333333 385 378 c 128
 359 408.666666667 324 424 280 424 c 0
 251.333333333 424 226.166666667 417.166666667 204.5 403.5 c 128
 182.833333333 389.833333333 166 369.666666667 154 343 c 128
 142 316.333333333 136 283.333333333 136 244 c 0
 136 185.333333333 149.166666667 140.5 175.5 109.5 c 128
 201.833333333 78.5 236.666666667 63 280 63 c 0
EndSplineSet
EndChar

StartChar: e
Encoding: 101 101 287
Width: 534
GlyphClass: 2
Flags: W
AnchorPoint: "Anchor-3" 359 0 basechar 0
AnchorPoint: "Anchor-2" 281 0 basechar 0
AnchorPoint: "Anchor-0" 281 484 basechar 0
LayerCount: 2
Fore
SplineSet
298 -9 m 0
 245.333333333 -9 200.166666667 1.16666666667 162.5 21.5 c 128
 124.833333333 41.8333333333 95.6666666667 70.8333333333 75 108.5 c 128
 54.3333333333 146.166666667 44 190.666666667 44 242 c 0
 44 292.666666667 54.1666666667 337 74.5 375 c 128
 94.8333333333 413 122.833333333 442.666666667 158.5 464 c 128
 194.166666667 485.333333333 235 496 281 496 c 0
 313.666666667 496 343.166666667 490.5 369.5 479.5 c 128
 395.833333333 468.5 418.333333333 452.666666667 437 432 c 128
 455.666666667 411.333333333 469.833333333 386.166666667 479.5 356.5 c 128
 489.166666667 326.833333333 494 293.333333333 494 256 c 0
 494 245.333333333 490.833333333 237.166666667 484.5 231.5 c 128
 478.166666667 225.833333333 469 223 457 223 c 2
 115 223 l 1
 115 281 l 1
 434 281 l 1
 417 267 l 1
 417 301.666666667 411.833333333 331.166666667 401.5 355.5 c 128
 391.166666667 379.833333333 376.166666667 398.333333333 356.5 411 c 128
 336.833333333 423.666666667 312.333333333 430 283 430 c 0
 251 430 223.666666667 422.5 201 407.5 c 128
 178.333333333 392.5 161 371.5 149 344.5 c 128
 137 317.5 131 286.333333333 131 251 c 2
 131 245 l 2
 131 185 145.333333333 139.666666667 174 109 c 128
 202.666666667 78.3333333333 244 63 298 63 c 0
 319.333333333 63 341.166666667 65.6666666667 363.5 71 c 128
 385.833333333 76.3333333333 407.333333333 86 428 100 c 0
 438 106 447.166666667 108.833333333 455.5 108.5 c 128
 463.833333333 108.166666667 470.666666667 105.5 476 100.5 c 128
 481.333333333 95.5 484.666666667 89.5 486 82.5 c 128
 487.333333333 75.5 486.333333333 68 483 60 c 128
 479.666666667 52 473.333333333 45 464 39 c 0
 442 23.6666666667 415.833333333 11.8333333333 385.5 3.5 c 128
 355.166666667 -4.83333333333 326 -9 298 -9 c 0
EndSplineSet
EndChar

StartChar: uni0259
Encoding: 492 601 310
Width: 535
GlyphClass: 1
Flags: W
LayerCount: 2
Fore
SplineSet
258 -9 m 256
 212 -9 172.833333333 0.5 140.5 19.5 c 128
 108.166666667 38.5 83.3333333333 66.1666666667 66 102.5 c 128
 48.6666666667 138.833333333 40 182 40 232 c 0
 40 242 43.3333333333 249.833333333 50 255.5 c 128
 56.6666666667 261.166666667 66 264 78 264 c 2
 420 264 l 1
 420 206 l 1
 101 206 l 1
 121 220 l 1
 121 185.333333333 126 155.833333333 136 131.5 c 128
 146 107.166666667 161 88.6666666667 181 76 c 128
 201 63.3333333333 226.333333333 57 257 57 c 256
 287.666666667 57 314 64.1666666667 336 78.5 c 128
 358 92.8333333333 374.666666667 113.333333333 386 140 c 128
 397.333333333 166.666666667 403 198.333333333 403 235 c 2
 403 242 l 2
 403 301.333333333 388.666666667 346.5 360 377.5 c 128
 331.333333333 408.5 290.333333333 424 237 424 c 0
 215.666666667 424 193.833333333 421.166666667 171.5 415.5 c 128
 149.166666667 409.833333333 127.333333333 400 106 386 c 0
 95.3333333333 379.333333333 86 376.333333333 78 377 c 128
 70 377.666666667 63.5 380.5 58.5 385.5 c 128
 53.5 390.5 50.3333333333 396.833333333 49 404.5 c 128
 47.6666666667 412.166666667 48.6666666667 419.833333333 52 427.5 c 128
 55.3333333333 435.166666667 61.3333333333 441.666666667 70 447 c 0
 92.6666666667 463 119.166666667 475.166666667 149.5 483.5 c 128
 179.833333333 491.833333333 209 496 237 496 c 0
 289 496 334 485.833333333 372 465.5 c 128
 410 445.166666667 439.333333333 416.333333333 460 379 c 128
 480.666666667 341.666666667 491 297 491 245 c 0
 491 194.333333333 481.166666667 150 461.5 112 c 128
 441.833333333 74 414.5 44.3333333333 379.5 23 c 128
 344.5 1.66666666667 304 -9 258 -9 c 256
EndSplineSet
EndChar

StartChar: f
Encoding: 102 102 313
Width: 340
GlyphClass: 2
Flags: W
AnchorPoint: "Anchor-2" 147 0 basechar 0
AnchorPoint: "Anchor-0" 147 705 basechar 0
LayerCount: 2
Fore
SplineSet
147 -7 m 0
 132.333333333 -7 121 -3 113 5 c 128
 105 13 101 24.6666666667 101 40 c 2
 101 417 l 1
 41 417 l 2
 29 417 19.6666666667 420.166666667 13 426.5 c 128
 6.33333333333 432.833333333 3 441.333333333 3 452 c 0
 3 463.333333333 6.33333333333 472 13 478 c 128
 19.6666666667 484 29 487 41 487 c 2
 126 487 l 1
 101 463 l 1
 101 500 l 2
 101 564.666666667 116.833333333 613.833333333 148.5 647.5 c 128
 180.166666667 681.166666667 226.666666667 700.666666667 288 706 c 2
 319 708 l 2
 329 709.333333333 337 707.833333333 343 703.5 c 128
 349 699.166666667 353 693.666666667 355 687 c 128
 357 680.333333333 357.166666667 673.5 355.5 666.5 c 128
 353.833333333 659.5 350.666666667 653.333333333 346 648 c 128
 341.333333333 642.666666667 335.333333333 639.666666667 328 639 c 2
 306 638 l 2
 266 634.666666667 237 622.833333333 219 602.5 c 128
 201 582.166666667 192 552 192 512 c 2
 192 472 l 1
 179 487 l 1
 294 487 l 2
 306.666666667 487 316.333333333 484 323 478 c 128
 329.666666667 472 333 463.333333333 333 452 c 0
 333 441.333333333 329.666666667 432.833333333 323 426.5 c 128
 316.333333333 420.166666667 306.666666667 417 294 417 c 2
 192 417 l 1
 192 40 l 2
 192 8.66666666667 177 -7 147 -7 c 0
EndSplineSet
EndChar

StartChar: g
Encoding: 103 103 314
Width: 590
GlyphClass: 2
Flags: W
AnchorPoint: "Anchor-0" 297 484 basechar 0
LayerCount: 2
Fore
SplineSet
292 -189 m 0
 256 -189 221.166666667 -185 187.5 -177 c 128
 153.833333333 -169 123.333333333 -156.666666667 96 -140 c 0
 87.3333333333 -134.666666667 81.5 -128.5 78.5 -121.5 c 128
 75.5 -114.5 74.8333333333 -107.333333333 76.5 -100 c 128
 78.1666666667 -92.6666666667 81.5 -86.1666666667 86.5 -80.5 c 128
 91.5 -74.8333333333 97.5 -71.1666666667 104.5 -69.5 c 128
 111.5 -67.8333333333 118.666666667 -69.3333333333 126 -74 c 0
 155.333333333 -90.6666666667 183.333333333 -102 210 -108 c 128
 236.666666667 -114 262 -117 286 -117 c 0
 333.333333333 -117 368.833333333 -104.833333333 392.5 -80.5 c 128
 416.166666667 -56.1666666667 428 -20.6666666667 428 26 c 2
 428 134 l 1
 437 134 l 1
 427.666666667 96.6666666667 406.833333333 67 374.5 45 c 128
 342.166666667 23 304.666666667 12 262 12 c 0
 218 12 179.666666667 22.1666666667 147 42.5 c 128
 114.333333333 62.8333333333 89 91.1666666667 71 127.5 c 128
 53 163.833333333 44 206 44 254 c 0
 44 290.666666667 49.1666666667 323.833333333 59.5 353.5 c 128
 69.8333333333 383.166666667 84.5 408.5 103.5 429.5 c 128
 122.5 450.5 145.333333333 466.833333333 172 478.5 c 128
 198.666666667 490.166666667 228.666666667 496 262 496 c 0
 305.333333333 496 343 485 375 463 c 128
 407 441 427.666666667 411.333333333 437 374 c 1
 426 360 l 1
 426 448 l 2
 426 463.333333333 430 474.833333333 438 482.5 c 128
 446 490.166666667 457.333333333 494 472 494 c 0
 486 494 497 490.166666667 505 482.5 c 128
 513 474.833333333 517 463.333333333 517 448 c 2
 517 38 l 2
 517 -37.3333333333 497.833333333 -94 459.5 -132 c 128
 421.166666667 -170 365.333333333 -189 292 -189 c 0
282 84 m 0
 312 84 337.833333333 90.8333333333 359.5 104.5 c 128
 381.166666667 118.166666667 397.833333333 137.833333333 409.5 163.5 c 128
 421.166666667 189.166666667 427 219.333333333 427 254 c 0
 427 306.666666667 414 348.166666667 388 378.5 c 128
 362 408.833333333 326.666666667 424 282 424 c 0
 252 424 226.166666667 417.166666667 204.5 403.5 c 128
 182.833333333 389.833333333 166 370.333333333 154 345 c 128
 142 319.666666667 136 289.333333333 136 254 c 0
 136 202 149.166666667 160.666666667 175.5 130 c 128
 201.833333333 99.3333333333 237.333333333 84 282 84 c 0
EndSplineSet
EndChar

StartChar: uni01E5
Encoding: 501 485 321
Width: 590
GlyphClass: 1
Flags: W
LayerCount: 2
Fore
SplineSet
292 -189 m 0
 256 -189 221.333333333 -185.166666667 188 -177.5 c 128
 154.666666667 -169.833333333 124 -157.333333333 96 -140 c 0
 87.3333333333 -134.666666667 81.5 -128.5 78.5 -121.5 c 128
 75.5 -114.5 74.8333333333 -107.166666667 76.5 -99.5 c 128
 78.1666666667 -91.8333333333 81.5 -85.3333333333 86.5 -80 c 128
 91.5 -74.6666666667 97.5 -71.1666666667 104.5 -69.5 c 128
 111.5 -67.8333333333 118.666666667 -69.3333333333 126 -74 c 0
 152 -89.3333333333 179.166666667 -100.5 207.5 -107.5 c 128
 235.833333333 -114.5 262 -117.666666667 286 -117 c 0
 318 -117 344.5 -111.166666667 365.5 -99.5 c 128
 386.5 -87.8333333333 402 -71.3333333333 412 -50 c 1
 422 -59 l 1
 327 -59 l 2
 317.666666667 -59 310 -56.1666666667 304 -50.5 c 128
 298 -44.8333333333 295 -37.6666666667 295 -29 c 256
 295 -20.3333333333 298 -13.1666666667 304 -7.5 c 128
 310 -1.83333333333 317.666666667 1 327 1 c 2
 432 1 l 1
 424 -19 l 1
 425.333333333 -11.6666666667 426.333333333 -4.16666666667 427 3.5 c 128
 427.666666667 11.1666666667 428 18.6666666667 428 26 c 2
 428 158 l 1
 437 158 l 1
 427 120.666666667 406.333333333 91.3333333333 375 70 c 128
 343.666666667 48.6666666667 306.333333333 38 263 38 c 256
 219.666666667 38 181.5 47.8333333333 148.5 67.5 c 128
 115.5 87.1666666667 89.8333333333 114.333333333 71.5 149 c 128
 53.1666666667 183.666666667 44 223 44 267 c 0
 44 300.333333333 49.1666666667 331 59.5 359 c 128
 69.8333333333 387 84.6666666667 411.333333333 104 432 c 128
 123.333333333 452.666666667 146.5 468.5 173.5 479.5 c 128
 200.5 490.5 230.333333333 496 263 496 c 0
 306.333333333 496 343.666666667 485.333333333 375 464 c 128
 406.333333333 442.666666667 427 413.666666667 437 377 c 1
 426 377 l 1
 426 449 l 2
 426 463.666666667 430 474.833333333 438 482.5 c 128
 446 490.166666667 457.333333333 494 472 494 c 0
 486 494 497 490.166666667 505 482.5 c 128
 513 474.833333333 517 463.666666667 517 449 c 2
 517 38 l 2
 517 26.6666666667 516.5 15.8333333333 515.5 5.5 c 128
 514.5 -4.83333333333 513.333333333 -14.3333333333 512 -23 c 1
 506 1 l 1
 556 1 l 2
 565.333333333 1 572.833333333 -1.83333333333 578.5 -7.5 c 128
 584.166666667 -13.1666666667 587 -20.3333333333 587 -29 c 256
 587 -37.6666666667 584.166666667 -44.8333333333 578.5 -50.5 c 128
 572.833333333 -56.1666666667 565.333333333 -59 556 -59 c 2
 484 -59 l 1
 506 -49 l 1
 492.666666667 -95.6666666667 468.166666667 -130.666666667 432.5 -154 c 128
 396.833333333 -177.333333333 350 -189 292 -189 c 0
282 110 m 0
 311.333333333 110 336.833333333 116.5 358.5 129.5 c 128
 380.166666667 142.5 396.833333333 160.833333333 408.5 184.5 c 128
 420.166666667 208.166666667 426 235.666666667 426 267 c 0
 426 315 413 353.166666667 387 381.5 c 128
 361 409.833333333 326 424 282 424 c 0
 252.666666667 424 227 417.666666667 205 405 c 128
 183 392.333333333 166 374.333333333 154 351 c 128
 142 327.666666667 136 299.666666667 136 267 c 0
 136 219 149.5 180.833333333 176.5 152.5 c 128
 203.5 124.166666667 238.666666667 110 282 110 c 0
EndSplineSet
EndChar

StartChar: h
Encoding: 104 104 322
Width: 572
GlyphClass: 2
Flags: W
AnchorPoint: "Anchor-5" 287 247 basechar 0
AnchorPoint: "Anchor-4" 169 585 basechar 0
AnchorPoint: "Anchor-2" 287 0 basechar 0
AnchorPoint: "Anchor-1" 199 705 basechar 0
AnchorPoint: "Anchor-0" 287 705 basechar 0
LayerCount: 2
Fore
SplineSet
118 -7 m 0
 104 -7 93 -3 85 5 c 128
 77 13 73 24.6666666667 73 40 c 2
 73 666 l 2
 73 681.333333333 77 692.833333333 85 700.5 c 128
 93 708.166666667 104 712 118 712 c 0
 132.666666667 712 144 708.166666667 152 700.5 c 128
 160 692.833333333 164 681.333333333 164 666 c 2
 164 381 l 1
 151 381 l 1
 165 419 187.833333333 447.666666667 219.5 467 c 128
 251.166666667 486.333333333 287.333333333 496 328 496 c 0
 367.333333333 496 399.666666667 488.833333333 425 474.5 c 128
 450.333333333 460.166666667 469.333333333 438.666666667 482 410 c 128
 494.666666667 381.333333333 501 345.333333333 501 302 c 2
 501 40 l 2
 501 24.6666666667 497.166666667 13 489.5 5 c 128
 481.833333333 -3 470.666666667 -7 456 -7 c 256
 441.333333333 -7 430 -3 422 5 c 128
 414 13 410 24.6666666667 410 40 c 2
 410 297 l 2
 410 340.333333333 401.666666667 372 385 392 c 128
 368.333333333 412 341.666666667 422 305 422 c 0
 262.333333333 422 228.166666667 408.833333333 202.5 382.5 c 128
 176.833333333 356.166666667 164 320.666666667 164 276 c 2
 164 40 l 2
 164 8.66666666667 148.666666667 -7 118 -7 c 0
EndSplineSet
EndChar

StartChar: hbar
Encoding: 502 295 323
Width: 572
GlyphClass: 1
Flags: W
LayerCount: 2
Fore
SplineSet
118 -7 m 0
 104 -7 93 -3 85 5 c 128
 77 13 73 24.6666666667 73 40 c 2
 73 551 l 1
 17 551 l 2
 5.66666666667 551 -3.16666666667 554 -9.5 560 c 128
 -15.8333333333 566 -19 574.333333333 -19 585 c 0
 -19 607 -7 618 17 618 c 2
 93 618 l 1
 73 586 l 1
 73 669 l 2
 73 682.333333333 77 692.833333333 85 700.5 c 128
 93 708.166666667 104 712 118 712 c 0
 132.666666667 712 144 708.166666667 152 700.5 c 128
 160 692.833333333 164 682.333333333 164 669 c 2
 164 586 l 1
 144 618 l 1
 321 618 l 2
 333.666666667 618 343 615 349 609 c 128
 355 603 358 595 358 585 c 0
 358 562.333333333 345.666666667 551 321 551 c 2
 164 551 l 1
 164 381 l 1
 151 381 l 1
 165 419 187.833333333 447.666666667 219.5 467 c 128
 251.166666667 486.333333333 287.333333333 496 328 496 c 0
 367.333333333 496 399.666666667 488.833333333 425 474.5 c 128
 450.333333333 460.166666667 469.333333333 438.666666667 482 410 c 128
 494.666666667 381.333333333 501 345.333333333 501 302 c 2
 501 40 l 2
 501 24.6666666667 497.166666667 13 489.5 5 c 128
 481.833333333 -3 470.666666667 -7 456 -7 c 256
 441.333333333 -7 430 -3 422 5 c 128
 414 13 410 24.6666666667 410 40 c 2
 410 297 l 2
 410 340.333333333 401.666666667 372 385 392 c 128
 368.333333333 412 341.666666667 422 305 422 c 0
 262.333333333 422 228.166666667 408.833333333 202.5 382.5 c 128
 176.833333333 356.166666667 164 320.666666667 164 276 c 2
 164 40 l 2
 164 8.66666666667 148.666666667 -7 118 -7 c 0
EndSplineSet
EndChar

StartChar: i
Encoding: 105 105 328
Width: 237
GlyphClass: 2
Flags: W
AnchorPoint: "Anchor-3" 149 0 basechar 0
AnchorPoint: "Anchor-2" 118 0 basechar 0
LayerCount: 2
Fore
SplineSet
118 -5 m 0
 104 -5 93 -0.666666666667 85 8 c 128
 77 16.6666666667 73 28.6666666667 73 44 c 2
 73 443 l 2
 73 459 77 471.166666667 85 479.5 c 128
 93 487.833333333 104 492 118 492 c 0
 132.666666667 492 144 487.833333333 152 479.5 c 128
 160 471.166666667 164 459 164 443 c 2
 164 44 l 2
 164 28.6666666667 160.166666667 16.6666666667 152.5 8 c 128
 144.833333333 -0.666666666667 133.333333333 -5 118 -5 c 0
118 600 m 0
 100 600 85.8333333333 604.833333333 75.5 614.5 c 128
 65.1666666667 624.166666667 60 637 60 653 c 0
 60 670.333333333 65.1666666667 683.5 75.5 692.5 c 128
 85.8333333333 701.5 100 706 118 706 c 0
 137.333333333 706 151.833333333 701.5 161.5 692.5 c 128
 171.166666667 683.5 176 670.333333333 176 653 c 0
 176 637 171.166666667 624.166666667 161.5 614.5 c 128
 151.833333333 604.833333333 137.333333333 600 118 600 c 0
EndSplineSet
Substitution2: "Nunito-Medium-'locl' Localized Forms in Latin lookup 10 subtable" i.loclTRK
Substitution2: "Nunito-Medium-Single Substitution lookup 4 subtable" dotlessi
Substitution2: "Nunito-Medium-Single Substitution lookup 3 subtable" dotlessi
Substitution2: "Nunito-Medium-'aalt' Access All Alternates lookup 0 subtable" i.loclTRK
EndChar

StartChar: dotlessi
Encoding: 507 305 329
Width: 237
GlyphClass: 2
Flags: W
AnchorPoint: "Anchor-3" 149 0 basechar 0
AnchorPoint: "Anchor-2" 118 0 basechar 0
AnchorPoint: "Anchor-0" 118 484 basechar 0
LayerCount: 2
Fore
SplineSet
118 -5 m 0
 104 -5 93 -0.666666666667 85 8 c 128
 77 16.6666666667 73 28.6666666667 73 44 c 2
 73 443 l 2
 73 459 77 471.166666667 85 479.5 c 128
 93 487.833333333 104 492 118 492 c 0
 132.666666667 492 144 487.833333333 152 479.5 c 128
 160 471.166666667 164 459 164 443 c 2
 164 44 l 2
 164 28.6666666667 160.166666667 16.6666666667 152.5 8 c 128
 144.833333333 -0.666666666667 133.333333333 -5 118 -5 c 0
EndSplineSet
EndChar

StartChar: iogonek
Encoding: 516 303 342
Width: 237
GlyphClass: 1
Flags: W
LayerCount: 2
Fore
SplineSet
129 -193 m 0
 96.3333333333 -193 70.1666666667 -184 50.5 -166 c 128
 30.8333333333 -148 21 -124 21 -94 c 0
 21 -71.3333333333 27.3333333333 -49.6666666667 40 -29 c 128
 52.6666666667 -8.33333333333 70 9 92 23 c 1
 87 6 l 1
 83 10 79.6666666667 15.3333333333 77 22 c 128
 74.3333333333 28.6666666667 73 36 73 44 c 2
 73 443 l 2
 73 459 77 471.166666667 85 479.5 c 128
 93 487.833333333 104 492 118 492 c 0
 132.666666667 492 144 487.833333333 152 479.5 c 128
 160 471.166666667 164 459 164 443 c 2
 164 44 l 2
 164 32.6666666667 161.833333333 23 157.5 15 c 128
 153.166666667 7 147.333333333 0.666666666667 140 -4 c 0
 123.333333333 -14.6666666667 109.833333333 -26.5 99.5 -39.5 c 128
 89.1666666667 -52.5 84 -67.3333333333 84 -84 c 0
 84 -102 89.5 -115.666666667 100.5 -125 c 128
 111.5 -134.333333333 125.333333333 -139 142 -139 c 0
 147.333333333 -139 152.833333333 -138.5 158.5 -137.5 c 128
 164.166666667 -136.5 169.666666667 -135 175 -133 c 0
 185 -130.333333333 192.666666667 -130.833333333 198 -134.5 c 128
 203.333333333 -138.166666667 206.666666667 -143.333333333 208 -150 c 128
 209.333333333 -156.666666667 208.5 -163.166666667 205.5 -169.5 c 128
 202.5 -175.833333333 197 -180.666666667 189 -184 c 0
 179 -188 168.833333333 -190.5 158.5 -191.5 c 128
 148.166666667 -192.5 138.333333333 -193 129 -193 c 0
118 600 m 0
 100 600 85.8333333333 604.833333333 75.5 614.5 c 128
 65.1666666667 624.166666667 60 637 60 653 c 0
 60 670.333333333 65.1666666667 683.5 75.5 692.5 c 128
 85.8333333333 701.5 100 706 118 706 c 0
 137.333333333 706 151.833333333 701.5 161.5 692.5 c 128
 171.166666667 683.5 176 670.333333333 176 653 c 0
 176 637 171.166666667 624.166666667 161.5 614.5 c 128
 151.833333333 604.833333333 137.333333333 600 118 600 c 0
EndSplineSet
EndChar

StartChar: j
Encoding: 106 106 344
Width: 241
GlyphClass: 1
Flags: W
LayerCount: 2
Fore
SplineSet
-12 -190 m 0
 -22.6666666667 -190.666666667 -31.6666666667 -189 -39 -185 c 128
 -46.3333333333 -181 -51.3333333333 -175.5 -54 -168.5 c 128
 -56.6666666667 -161.5 -57.3333333333 -154.5 -56 -147.5 c 128
 -54.6666666667 -140.5 -51.5 -134.5 -46.5 -129.5 c 128
 -41.5 -124.5 -34.6666666667 -121.666666667 -26 -121 c 0
 9.33333333333 -119 35.3333333333 -109.5 52 -92.5 c 128
 68.6666666667 -75.5 77 -49 77 -13 c 2
 77 448 l 2
 77 463.333333333 81 474.833333333 89 482.5 c 128
 97 490.166666667 108.333333333 494 123 494 c 0
 137 494 148 490.166666667 156 482.5 c 128
 164 474.833333333 168 463.333333333 168 448 c 2
 168 -6 l 2
 168 -47.3333333333 161.166666667 -81.1666666667 147.5 -107.5 c 128
 133.833333333 -133.833333333 113.666666667 -153.666666667 87 -167 c 128
 60.3333333333 -180.333333333 27.3333333333 -188 -12 -190 c 0
122 600 m 0
 104 600 89.8333333333 604.833333333 79.5 614.5 c 128
 69.1666666667 624.166666667 64 637 64 653 c 0
 64 670.333333333 69.1666666667 683.5 79.5 692.5 c 128
 89.8333333333 701.5 104 706 122 706 c 0
 140.666666667 706 155 701.5 165 692.5 c 128
 175 683.5 180 670.333333333 180 653 c 0
 180 637 175 624.166666667 165 614.5 c 128
 155 604.833333333 140.666666667 600 122 600 c 0
EndSplineSet
Substitution2: "Nunito-Medium-Single Substitution lookup 4 subtable" uni0237
Substitution2: "Nunito-Medium-Single Substitution lookup 3 subtable" uni0237
EndChar

StartChar: uni0237
Encoding: 518 567 345
Width: 241
GlyphClass: 2
Flags: W
AnchorPoint: "Anchor-2" 122 0 basechar 0
AnchorPoint: "Anchor-0" 122 484 basechar 0
LayerCount: 2
Fore
SplineSet
-12 -190 m 0
 -22.6666666667 -190.666666667 -31.6666666667 -189 -39 -185 c 128
 -46.3333333333 -181 -51.3333333333 -175.5 -54 -168.5 c 128
 -56.6666666667 -161.5 -57.3333333333 -154.5 -56 -147.5 c 128
 -54.6666666667 -140.5 -51.5 -134.5 -46.5 -129.5 c 128
 -41.5 -124.5 -34.6666666667 -121.666666667 -26 -121 c 0
 9.33333333333 -119 35.3333333333 -109.5 52 -92.5 c 128
 68.6666666667 -75.5 77 -49 77 -13 c 2
 77 448 l 2
 77 463.333333333 81 474.833333333 89 482.5 c 128
 97 490.166666667 108.333333333 494 123 494 c 0
 137 494 148 490.166666667 156 482.5 c 128
 164 474.833333333 168 463.333333333 168 448 c 2
 168 -6 l 2
 168 -47.3333333333 161.166666667 -81.1666666667 147.5 -107.5 c 128
 133.833333333 -133.833333333 113.666666667 -153.666666667 87 -167 c 128
 60.3333333333 -180.333333333 27.3333333333 -188 -12 -190 c 0
EndSplineSet
EndChar

StartChar: k
Encoding: 107 107 347
Width: 508
GlyphClass: 2
Flags: W
AnchorPoint: "Anchor-2" 254 0 basechar 0
AnchorPoint: "Anchor-0" 287 705 basechar 0
LayerCount: 2
Fore
SplineSet
118 -7 m 0
 104 -7 93 -3 85 5 c 128
 77 13 73 24.6666666667 73 40 c 2
 73 666 l 2
 73 681.333333333 77 692.833333333 85 700.5 c 128
 93 708.166666667 104 712 118 712 c 0
 132.666666667 712 144 708.166666667 152 700.5 c 128
 160 692.833333333 164 681.333333333 164 666 c 2
 164 272 l 1
 166 272 l 1
 362 463 l 2
 372 473 381 480.666666667 389 486 c 128
 397 491.333333333 407.333333333 494 420 494 c 256
 432.666666667 494 442.333333333 490.833333333 449 484.5 c 128
 455.666666667 478.166666667 459 470.166666667 459 460.5 c 128
 459 450.833333333 454.333333333 441.333333333 445 432 c 2
 237 230 l 1
 237 275 l 1
 464 56 l 2
 473.333333333 46.6666666667 477.833333333 37 477.5 27 c 128
 477.166666667 17 473.5 8.83333333333 466.5 2.5 c 128
 459.5 -3.83333333333 450.333333333 -7 439 -7 c 0
 425.666666667 -7 414.833333333 -4.33333333333 406.5 1 c 128
 398.166666667 6.33333333333 388.666666667 14.6666666667 378 26 c 2
 166 226 l 1
 164 226 l 1
 164 40 l 2
 164 8.66666666667 148.666666667 -7 118 -7 c 0
EndSplineSet
EndChar

StartChar: kgreenlandic
Encoding: 522 312 350
Width: 508
GlyphClass: 2
Flags: W
AnchorPoint: "Anchor-2" 254 0 basechar 0
AnchorPoint: "Anchor-0" 254 484 basechar 0
LayerCount: 2
Fore
SplineSet
118 -7 m 0
 104 -7 93 -3 85 5 c 128
 77 13 73 24.6666666667 73 40 c 2
 73 448 l 2
 73 463.333333333 77 474.833333333 85 482.5 c 128
 93 490.166666667 104 494 118 494 c 0
 132.666666667 494 144 490.166666667 152 482.5 c 128
 160 474.833333333 164 463.333333333 164 448 c 2
 164 272 l 1
 166 272 l 1
 362 463 l 2
 372 473 381 480.666666667 389 486 c 128
 397 491.333333333 407 494 419 494 c 0
 432.333333333 494 442.333333333 490.833333333 449 484.5 c 128
 455.666666667 478.166666667 459 470.166666667 459 460.5 c 128
 459 450.833333333 454.333333333 441.333333333 445 432 c 2
 237 230 l 1
 237 275 l 1
 464 56 l 2
 473.333333333 46.6666666667 477.833333333 37 477.5 27 c 128
 477.166666667 17 473.5 8.83333333333 466.5 2.5 c 128
 459.5 -3.83333333333 450.333333333 -7 439 -7 c 0
 425.666666667 -7 414.833333333 -4.33333333333 406.5 1 c 128
 398.166666667 6.33333333333 388.666666667 14.6666666667 378 26 c 2
 166 226 l 1
 164 226 l 1
 164 40 l 2
 164 24.6666666667 160.166666667 13 152.5 5 c 128
 144.833333333 -3 133.333333333 -7 118 -7 c 0
EndSplineSet
EndChar

StartChar: l
Encoding: 108 108 351
Width: 301
GlyphClass: 2
Flags: W
AnchorPoint: "Anchor-5" 128 357 basechar 0
AnchorPoint: "Anchor-2" 187 0 basechar 0
AnchorPoint: "Anchor-1" 208 705 basechar 0
AnchorPoint: "Anchor-0" 118 705 basechar 0
LayerCount: 2
Fore
SplineSet
226 -9 m 0
 176 -9 138 5.83333333333 112 35.5 c 128
 86 65.1666666667 73 108 73 164 c 2
 73 666 l 2
 73 681.333333333 77 692.833333333 85 700.5 c 128
 93 708.166666667 104 712 118 712 c 0
 132.666666667 712 144 708.166666667 152 700.5 c 128
 160 692.833333333 164 681.333333333 164 666 c 2
 164 171 l 2
 164 136.333333333 171.166666667 110.5 185.5 93.5 c 128
 199.833333333 76.5 220.333333333 68 247 68 c 0
 253 68 258.333333333 68.1666666667 263 68.5 c 128
 267.666666667 68.8333333333 272.333333333 69.3333333333 277 70 c 0
 284.333333333 70.6666666667 289.666666667 68.6666666667 293 64 c 128
 296.333333333 59.3333333333 298 50 298 36 c 0
 298 23.3333333333 295.166666667 13.5 289.5 6.5 c 128
 283.833333333 -0.5 274.666666667 -5 262 -7 c 0
 256 -7.66666666667 250 -8.16666666667 244 -8.5 c 128
 238 -8.83333333333 232 -9 226 -9 c 0
EndSplineSet
Substitution2: "Nunito-Medium-'ss02' Style Set 2 lookup 36 subtable" l.ss02
Substitution2: "Nunito-Medium-'aalt' Access All Alternates lookup 0 subtable" l.ss02
EndChar

StartChar: m
Encoding: 109 109 360
Width: 861
GlyphClass: 2
Flags: W
AnchorPoint: "Anchor-2" 432 0 basechar 0
AnchorPoint: "Anchor-0" 432 484 basechar 0
LayerCount: 2
Fore
SplineSet
120 -7 m 0
 106 -7 95 -3 87 5 c 128
 79 13 75 24.6666666667 75 40 c 2
 75 448 l 2
 75 463.333333333 79 474.833333333 87 482.5 c 128
 95 490.166666667 106 494 120 494 c 256
 134 494 144.833333333 490.166666667 152.5 482.5 c 128
 160.166666667 474.833333333 164 463.333333333 164 448 c 2
 164 363 l 1
 153 381 l 1
 165.666666667 417.666666667 186.166666667 446 214.5 466 c 128
 242.833333333 486 276.666666667 496 316 496 c 0
 357.333333333 496 390.666666667 486.166666667 416 466.5 c 128
 441.333333333 446.833333333 458.333333333 417 467 377 c 1
 453 377 l 1
 465 413.666666667 486.5 442.666666667 517.5 464 c 128
 548.5 485.333333333 584.666666667 496 626 496 c 0
 662.666666667 496 692.833333333 488.833333333 716.5 474.5 c 128
 740.166666667 460.166666667 758 438.833333333 770 410.5 c 128
 782 382.166666667 788 346 788 302 c 2
 788 40 l 2
 788 24.6666666667 784 13 776 5 c 128
 768 -3 757 -7 743 -7 c 0
 728.333333333 -7 717 -3 709 5 c 128
 701 13 697 24.6666666667 697 40 c 2
 697 298 l 2
 697 340.666666667 689.666666667 372 675 392 c 128
 660.333333333 412 635.666666667 422 601 422 c 0
 563 422 532.833333333 408.833333333 510.5 382.5 c 128
 488.166666667 356.166666667 477 320 477 274 c 2
 477 40 l 2
 477 24.6666666667 473.166666667 13 465.5 5 c 128
 457.833333333 -3 446.666666667 -7 432 -7 c 256
 417.333333333 -7 406 -3 398 5 c 128
 390 13 386 24.6666666667 386 40 c 2
 386 298 l 2
 386 340.666666667 378.666666667 372 364 392 c 128
 349.333333333 412 324.666666667 422 290 422 c 0
 252 422 221.833333333 408.833333333 199.5 382.5 c 128
 177.166666667 356.166666667 166 320 166 274 c 2
 166 40 l 2
 166 8.66666666667 150.666666667 -7 120 -7 c 0
EndSplineSet
EndChar

StartChar: n
Encoding: 110 110 362
Width: 572
GlyphClass: 2
Flags: W
AnchorPoint: "Anchor-2" 287 0 basechar 0
AnchorPoint: "Anchor-0" 287 484 basechar 0
LayerCount: 2
Fore
SplineSet
118 -7 m 0
 104 -7 93 -3 85 5 c 128
 77 13 73 24.6666666667 73 40 c 2
 73 448 l 2
 73 463.333333333 77 474.833333333 85 482.5 c 128
 93 490.166666667 104 494 118 494 c 256
 132 494 142.833333333 490.166666667 150.5 482.5 c 128
 158.166666667 474.833333333 162 463.333333333 162 448 c 2
 162 366 l 1
 151 381 l 1
 165 419 187.833333333 447.666666667 219.5 467 c 128
 251.166666667 486.333333333 287.333333333 496 328 496 c 0
 367.333333333 496 399.666666667 489 425 475 c 128
 450.333333333 461 469.333333333 439.666666667 482 411 c 128
 494.666666667 382.333333333 501 346 501 302 c 2
 501 40 l 2
 501 24.6666666667 497.166666667 13 489.5 5 c 128
 481.833333333 -3 470.666666667 -7 456 -7 c 256
 441.333333333 -7 430 -3 422 5 c 128
 414 13 410 24.6666666667 410 40 c 2
 410 297 l 2
 410 340.333333333 401.666666667 372 385 392 c 128
 368.333333333 412 341.666666667 422 305 422 c 0
 262.333333333 422 228.166666667 408.833333333 202.5 382.5 c 128
 176.833333333 356.166666667 164 320.666666667 164 276 c 2
 164 40 l 2
 164 8.66666666667 148.666666667 -7 118 -7 c 0
EndSplineSet
EndChar

StartChar: eng
Encoding: 538 331 369
Width: 572
GlyphClass: 1
Flags: W
LayerCount: 2
Fore
SplineSet
317 -191 m 0
 305.666666667 -192.333333333 296.666666667 -190.833333333 290 -186.5 c 128
 283.333333333 -182.166666667 278.666666667 -176.5 276 -169.5 c 128
 273.333333333 -162.5 272.666666667 -155.5 274 -148.5 c 128
 275.333333333 -141.5 278.5 -135.5 283.5 -130.5 c 128
 288.5 -125.5 295.666666667 -122.666666667 305 -122 c 0
 341 -118.666666667 367.5 -109 384.5 -93 c 128
 401.5 -77 410 -50.3333333333 410 -13 c 2
 410 297 l 2
 410 340.333333333 401.666666667 372 385 392 c 128
 368.333333333 412 341.666666667 422 305 422 c 0
 262.333333333 422 228.166666667 408.833333333 202.5 382.5 c 128
 176.833333333 356.166666667 164 320.666666667 164 276 c 2
 164 40 l 2
 164 8.66666666667 148.666666667 -7 118 -7 c 0
 104 -7 93 -3 85 5 c 128
 77 13 73 24.6666666667 73 40 c 2
 73 448 l 2
 73 463.333333333 77 474.833333333 85 482.5 c 128
 93 490.166666667 104 494 118 494 c 256
 132 494 142.833333333 490.166666667 150.5 482.5 c 128
 158.166666667 474.833333333 162 463.333333333 162 448 c 2
 162 366 l 1
 151 381 l 1
 165 419 187.833333333 447.666666667 219.5 467 c 128
 251.166666667 486.333333333 287.333333333 496 328 496 c 0
 367.333333333 496 399.666666667 489 425 475 c 128
 450.333333333 461 469.333333333 439.666666667 482 411 c 128
 494.666666667 382.333333333 501 346 501 302 c 2
 501 -6 l 2
 501 -47.3333333333 494.166666667 -81.1666666667 480.5 -107.5 c 128
 466.833333333 -133.833333333 446.5 -153.833333333 419.5 -167.5 c 128
 392.5 -181.166666667 358.333333333 -189 317 -191 c 0
EndSplineSet
EndChar

StartChar: o
Encoding: 111 111 373
Width: 560
GlyphClass: 2
Flags: W
AnchorPoint: "Anchor-5" 280 244 basechar 0
AnchorPoint: "Anchor-3" 339 0 basechar 0
AnchorPoint: "Anchor-2" 280 0 basechar 0
AnchorPoint: "Anchor-1" 334 484 basechar 0
AnchorPoint: "Anchor-0" 280 484 basechar 0
LayerCount: 2
Fore
SplineSet
280 -9 m 0
 232 -9 190.333333333 1.33333333333 155 22 c 128
 119.666666667 42.6666666667 92.3333333333 72 73 110 c 128
 53.6666666667 148 44 192.666666667 44 244 c 0
 44 282.666666667 49.5 317.5 60.5 348.5 c 128
 71.5 379.5 87.3333333333 406 108 428 c 128
 128.666666667 450 153.5 466.833333333 182.5 478.5 c 128
 211.5 490.166666667 244 496 280 496 c 0
 328 496 369.666666667 485.666666667 405 465 c 128
 440.333333333 444.333333333 467.666666667 415.166666667 487 377.5 c 128
 506.333333333 339.833333333 516 295.333333333 516 244 c 0
 516 205.333333333 510.5 170.333333333 499.5 139 c 128
 488.5 107.666666667 472.666666667 81 452 59 c 128
 431.333333333 37 406.5 20.1666666667 377.5 8.5 c 128
 348.5 -3.16666666667 316 -9 280 -9 c 0
280 63 m 0
 309.333333333 63 334.833333333 70 356.5 84 c 128
 378.166666667 98 394.833333333 118.333333333 406.5 145 c 128
 418.166666667 171.666666667 424 204.666666667 424 244 c 0
 424 302.666666667 411 347.333333333 385 378 c 128
 359 408.666666667 324 424 280 424 c 0
 251.333333333 424 226.166666667 417.166666667 204.5 403.5 c 128
 182.833333333 389.833333333 166 369.666666667 154 343 c 128
 142 316.333333333 136 283.333333333 136 244 c 0
 136 185.333333333 149.166666667 140.5 175.5 109.5 c 128
 201.833333333 78.5 236.666666667 63 280 63 c 0
EndSplineSet
Substitution2: "Nunito-Medium-Single Substitution lookup 29 subtable" ordmasculine
Substitution2: "Nunito-Medium-'aalt' Access All Alternates lookup 0 subtable" ordmasculine
EndChar

StartChar: oslash
Encoding: 248 248 401
Width: 560
GlyphClass: 2
Flags: W
AnchorPoint: "Anchor-5" 281 244 basechar 0
AnchorPoint: "Anchor-0" 280 484 basechar 0
LayerCount: 2
Fore
SplineSet
280 -9 m 0
 232 -9 190.333333333 1.33333333333 155 22 c 128
 119.666666667 42.6666666667 92.3333333333 72 73 110 c 128
 53.6666666667 148 44 192.666666667 44 244 c 0
 44 282.666666667 49.5 317.5 60.5 348.5 c 128
 71.5 379.5 87.3333333333 406 108 428 c 128
 128.666666667 450 153.5 466.833333333 182.5 478.5 c 128
 211.5 490.166666667 244 496 280 496 c 0
 328 496 369.666666667 485.666666667 405 465 c 128
 440.333333333 444.333333333 467.666666667 415.166666667 487 377.5 c 128
 506.333333333 339.833333333 516 295.333333333 516 244 c 0
 516 205.333333333 510.5 170.333333333 499.5 139 c 128
 488.5 107.666666667 472.666666667 81 452 59 c 128
 431.333333333 37 406.5 20.1666666667 377.5 8.5 c 128
 348.5 -3.16666666667 316 -9 280 -9 c 0
280 63 m 0
 309.333333333 63 334.833333333 70 356.5 84 c 128
 378.166666667 98 394.833333333 118.333333333 406.5 145 c 128
 418.166666667 171.666666667 424 204.666666667 424 244 c 0
 424 302.666666667 411 347.333333333 385 378 c 128
 359 408.666666667 324 424 280 424 c 0
 251.333333333 424 226.166666667 417.166666667 204.5 403.5 c 128
 182.833333333 389.833333333 166 369.666666667 154 343 c 128
 142 316.333333333 136 283.333333333 136 244 c 0
 136 185.333333333 149.166666667 140.5 175.5 109.5 c 128
 201.833333333 78.5 236.666666667 63 280 63 c 0
156 -31 m 2
 150.666666667 -39.6666666667 144 -44.6666666667 136 -46 c 128
 128 -47.3333333333 120.666666667 -46 114 -42 c 128
 107.333333333 -38 102.666666667 -32 100 -24 c 128
 97.3333333333 -16 99 -7.33333333333 105 2 c 2
 405 518 l 2
 410.333333333 527.333333333 417 532.5 425 533.5 c 128
 433 534.5 440.333333333 533 447 529 c 128
 453.666666667 525 458.333333333 519 461 511 c 128
 463.666666667 503 462.333333333 494.333333333 457 485 c 2
 156 -31 l 2
EndSplineSet
EndChar

StartChar: oe
Encoding: 568 339 407
Width: 911
GlyphClass: 2
Flags: W
AnchorPoint: "Anchor-2" 470 0 basechar 0
AnchorPoint: "Anchor-0" 469 484 basechar 0
LayerCount: 2
Fore
SplineSet
278 -9 m 0
 230.666666667 -9 189.5 1.33333333333 154.5 22 c 128
 119.5 42.6666666667 92.3333333333 72 73 110 c 128
 53.6666666667 148 44 192.666666667 44 244 c 0
 44 282.666666667 49.5 317.5 60.5 348.5 c 128
 71.5 379.5 87.3333333333 406 108 428 c 128
 128.666666667 450 153.333333333 466.833333333 182 478.5 c 128
 210.666666667 490.166666667 242.666666667 496 278 496 c 0
 327.333333333 496 369.666666667 483.666666667 405 459 c 128
 440.333333333 434.333333333 466 399.666666667 482 355 c 1
 458 355 l 1
 472.666666667 397.666666667 498 431.833333333 534 457.5 c 128
 570 483.166666667 612.333333333 496 661 496 c 0
 704.333333333 496 741.666666667 486.333333333 773 467 c 128
 804.333333333 447.666666667 828.5 420.166666667 845.5 384.5 c 128
 862.5 348.833333333 871 306 871 256 c 0
 871 245.333333333 867.833333333 237.166666667 861.5 231.5 c 128
 855.166666667 225.833333333 846 223 834 223 c 2
 497 223 l 1
 497 281 l 1
 810 281 l 1
 794 268 l 1
 794 302.666666667 788.833333333 332 778.5 356 c 128
 768.166666667 380 753.166666667 398.333333333 733.5 411 c 128
 713.833333333 423.666666667 689.333333333 430 660 430 c 0
 628.666666667 430 602.166666667 422.5 580.5 407.5 c 128
 558.833333333 392.5 542.5 371.5 531.5 344.5 c 128
 520.5 317.5 515 286.333333333 515 251 c 2
 515 245 l 2
 515 185.666666667 528.666666667 140.5 556 109.5 c 128
 583.333333333 78.5 623.333333333 63 676 63 c 0
 696.666666667 63 718 65.6666666667 740 71 c 128
 762 76.3333333333 783.666666667 86 805 100 c 0
 815 106 824.166666667 108.833333333 832.5 108.5 c 128
 840.833333333 108.166666667 847.666666667 105.5 853 100.5 c 128
 858.333333333 95.5 861.666666667 89.5 863 82.5 c 128
 864.333333333 75.5 863.166666667 68 859.5 60 c 128
 855.833333333 52 849.666666667 45 841 39 c 0
 818.333333333 23.6666666667 792.166666667 11.8333333333 762.5 3.5 c 128
 732.833333333 -4.83333333333 704.333333333 -9 677 -9 c 0
 621.666666667 -9 574.666666667 3.16666666667 536 27.5 c 128
 497.333333333 51.8333333333 470.333333333 87.3333333333 455 134 c 1
 481 134 l 1
 465 89.3333333333 439.5 54.3333333333 404.5 29 c 128
 369.5 3.66666666667 327.333333333 -9 278 -9 c 0
280 63 m 0
 309.333333333 63 334.833333333 70 356.5 84 c 128
 378.166666667 98 394.833333333 118.333333333 406.5 145 c 128
 418.166666667 171.666666667 424 204.666666667 424 244 c 0
 424 302.666666667 411 347.333333333 385 378 c 128
 359 408.666666667 324 424 280 424 c 0
 251.333333333 424 226.166666667 417.166666667 204.5 403.5 c 128
 182.833333333 389.833333333 166 369.666666667 154 343 c 128
 142 316.333333333 136 283.333333333 136 244 c 0
 136 185.333333333 149.166666667 140.5 175.5 109.5 c 128
 201.833333333 78.5 236.666666667 63 280 63 c 0
EndSplineSet
EndChar

StartChar: p
Encoding: 112 112 408
Width: 587
GlyphClass: 2
Flags: W
AnchorPoint: "Anchor-2" 292 0 basechar 0
AnchorPoint: "Anchor-0" 292 484 basechar 0
LayerCount: 2
Fore
SplineSet
118 -187 m 0
 104 -187 93 -183 85 -175 c 128
 77 -167 73 -155.666666667 73 -141 c 2
 73 448 l 2
 73 463.333333333 77 474.833333333 85 482.5 c 128
 93 490.166666667 104 494 118 494 c 0
 132.666666667 494 143.833333333 490.166666667 151.5 482.5 c 128
 159.166666667 474.833333333 163 463.333333333 163 448 c 2
 163 357 l 1
 152 375 l 1
 162.666666667 411.666666667 183.666666667 441 215 463 c 128
 246.333333333 485 284 496 328 496 c 0
 371.333333333 496 409 485.833333333 441 465.5 c 128
 473 445.166666667 498 416.166666667 516 378.5 c 128
 534 340.833333333 543 296 543 244 c 0
 543 192.666666667 534.166666667 147.833333333 516.5 109.5 c 128
 498.833333333 71.1666666667 473.833333333 41.8333333333 441.5 21.5 c 128
 409.166666667 1.16666666667 371.333333333 -9 328 -9 c 256
 284.666666667 -9 247.333333333 2 216 24 c 128
 184.666666667 46 163.666666667 75 153 111 c 1
 164 111 l 1
 164 -141 l 2
 164 -155.666666667 160 -167 152 -175 c 128
 144 -183 132.666666667 -187 118 -187 c 0
307 63 m 0
 335.666666667 63 360.833333333 70 382.5 84 c 128
 404.166666667 98 421 118.333333333 433 145 c 128
 445 171.666666667 451 204.666666667 451 244 c 0
 451 302.666666667 438 347.333333333 412 378 c 128
 386 408.666666667 351 424 307 424 c 0
 277.666666667 424 252.166666667 417.166666667 230.5 403.5 c 128
 208.833333333 389.833333333 192.166666667 369.666666667 180.5 343 c 128
 168.833333333 316.333333333 163 283.333333333 163 244 c 0
 163 185.333333333 176 140.5 202 109.5 c 128
 228 78.5 263 63 307 63 c 0
EndSplineSet
EndChar

StartChar: thorn
Encoding: 254 254 409
Width: 587
GlyphClass: 2
Flags: W
AnchorPoint: "Anchor-2" 293 0 basechar 0
AnchorPoint: "Anchor-0" 293 484 basechar 0
LayerCount: 2
Fore
SplineSet
118 -187 m 0
 104 -187 93 -183 85 -175 c 128
 77 -167 73 -155.666666667 73 -141 c 2
 73 666 l 2
 73 681.333333333 77 692.833333333 85 700.5 c 128
 93 708.166666667 104 712 118 712 c 0
 132.666666667 712 144 708.166666667 152 700.5 c 128
 160 692.833333333 164 681.333333333 164 666 c 2
 164 375 l 1
 152 375 l 1
 162.666666667 411.666666667 183.666666667 441 215 463 c 128
 246.333333333 485 284 496 328 496 c 0
 371.333333333 496 409 485.833333333 441 465.5 c 128
 473 445.166666667 498 416.166666667 516 378.5 c 128
 534 340.833333333 543 296 543 244 c 0
 543 192.666666667 534.166666667 147.833333333 516.5 109.5 c 128
 498.833333333 71.1666666667 473.833333333 41.8333333333 441.5 21.5 c 128
 409.166666667 1.16666666667 371.333333333 -9 328 -9 c 256
 284.666666667 -9 247.333333333 2 216 24 c 128
 184.666666667 46 163.666666667 75 153 111 c 1
 164 111 l 1
 164 -141 l 2
 164 -155.666666667 160 -167 152 -175 c 128
 144 -183 132.666666667 -187 118 -187 c 0
307 63 m 0
 335.666666667 63 360.833333333 70 382.5 84 c 128
 404.166666667 98 421 118.333333333 433 145 c 128
 445 171.666666667 451 204.666666667 451 244 c 0
 451 302.666666667 438 347.333333333 412 378 c 128
 386 408.666666667 351 424 307 424 c 0
 277.666666667 424 252.166666667 417.166666667 230.5 403.5 c 128
 208.833333333 389.833333333 192.166666667 369.666666667 180.5 343 c 128
 168.833333333 316.333333333 163 283.333333333 163 244 c 0
 163 185.333333333 176 140.5 202 109.5 c 128
 228 78.5 263 63 307 63 c 0
EndSplineSet
EndChar

StartChar: q
Encoding: 113 113 410
Width: 587
GlyphClass: 2
Flags: W
AnchorPoint: "Anchor-2" 293 0 basechar 0
AnchorPoint: "Anchor-0" 293 484 basechar 0
LayerCount: 2
Fore
SplineSet
468 -187 m 256
 453.333333333 -187 442.166666667 -183 434.5 -175 c 128
 426.833333333 -167 423 -155.666666667 423 -141 c 2
 423 111 l 1
 434 111 l 1
 423.333333333 75 402.333333333 46 371 24 c 128
 339.666666667 2 302.333333333 -9 259 -9 c 256
 215.666666667 -9 177.833333333 1.16666666667 145.5 21.5 c 128
 113.166666667 41.8333333333 88.1666666667 71.1666666667 70.5 109.5 c 128
 52.8333333333 147.833333333 44 192.666666667 44 244 c 0
 44 296 53 340.833333333 71 378.5 c 128
 89 416.166666667 114.166666667 445.166666667 146.5 465.5 c 128
 178.833333333 485.833333333 216.333333333 496 259 496 c 0
 302.333333333 496 339.833333333 485 371.5 463 c 128
 403.166666667 441 424 411.666666667 434 375 c 1
 423 357 l 1
 423 448 l 2
 423 463.333333333 427 474.833333333 435 482.5 c 128
 443 490.166666667 454 494 468 494 c 0
 482.666666667 494 494 490.166666667 502 482.5 c 128
 510 474.833333333 514 463.333333333 514 448 c 2
 514 -141 l 2
 514 -155.666666667 510 -167 502 -175 c 128
 494 -183 482.666666667 -187 468 -187 c 256
280 63 m 0
 309.333333333 63 334.833333333 70 356.5 84 c 128
 378.166666667 98 394.833333333 118.333333333 406.5 145 c 128
 418.166666667 171.666666667 424 204.666666667 424 244 c 0
 424 302.666666667 411 347.333333333 385 378 c 128
 359 408.666666667 324 424 280 424 c 0
 251.333333333 424 226.166666667 417.166666667 204.5 403.5 c 128
 182.833333333 389.833333333 166 369.666666667 154 343 c 128
 142 316.333333333 136 283.333333333 136 244 c 0
 136 185.333333333 149.166666667 140.5 175.5 109.5 c 128
 201.833333333 78.5 236.666666667 63 280 63 c 0
EndSplineSet
EndChar

StartChar: r
Encoding: 114 114 411
Width: 365
GlyphClass: 2
Flags: W
AnchorPoint: "Anchor-2" 119 0 basechar 0
AnchorPoint: "Anchor-0" 218 484 basechar 0
LayerCount: 2
Fore
SplineSet
120 -7 m 0
 104.666666667 -7 93 -3 85 5 c 128
 77 13 73 24.6666666667 73 40 c 2
 73 448 l 2
 73 463.333333333 77 474.833333333 85 482.5 c 128
 93 490.166666667 104 494 118 494 c 256
 132 494 142.833333333 490.166666667 150.5 482.5 c 128
 158.166666667 474.833333333 162 463.333333333 162 448 c 2
 162 371 l 1
 152 371 l 1
 162.666666667 411 182.666666667 441.333333333 212 462 c 128
 241.333333333 482.666666667 278.333333333 494.333333333 323 497 c 0
 333.666666667 497.666666667 342.333333333 495.166666667 349 489.5 c 128
 355.666666667 483.833333333 359.333333333 474.333333333 360 461 c 0
 360.666666667 448.333333333 357.666666667 438.166666667 351 430.5 c 128
 344.333333333 422.833333333 334 418.333333333 320 417 c 2
 302 416 l 2
 258 411.333333333 224.166666667 397 200.5 373 c 128
 176.833333333 349 165 316 165 274 c 2
 165 40 l 2
 165 24.6666666667 161.166666667 13 153.5 5 c 128
 145.833333333 -3 134.666666667 -7 120 -7 c 0
EndSplineSet
EndChar

StartChar: s
Encoding: 115 115 419
Width: 483
GlyphClass: 2
Flags: W
AnchorPoint: "Anchor-2" 241 0 basechar 0
AnchorPoint: "Anchor-0" 250 484 basechar 0
LayerCount: 2
Fore
SplineSet
241 -9 m 0
 211 -9 180.833333333 -5.5 150.5 1.5 c 128
 120.166666667 8.5 91.6666666667 20.6666666667 65 38 c 0
 57.6666666667 42.6666666667 52.5 48.5 49.5 55.5 c 128
 46.5 62.5 45.5 69.5 46.5 76.5 c 128
 47.5 83.5 50.3333333333 89.6666666667 55 95 c 128
 59.6666666667 100.333333333 65.5 103.5 72.5 104.5 c 128
 79.5 105.5 87 103.666666667 95 99 c 0
 121 84.3333333333 146.166666667 74 170.5 68 c 128
 194.833333333 62 219 59 243 59 c 0
 279.666666667 59 307.333333333 65.6666666667 326 79 c 128
 344.666666667 92.3333333333 354 110 354 132 c 0
 354 150.666666667 347.833333333 165.166666667 335.5 175.5 c 128
 323.166666667 185.833333333 304 193.666666667 278 199 c 2
 185 218 l 2
 143.666666667 227.333333333 112.5 242.833333333 91.5 264.5 c 128
 70.5 286.166666667 60 314 60 348 c 0
 60 378 68.1666666667 404.166666667 84.5 426.5 c 128
 100.833333333 448.833333333 123.666666667 466 153 478 c 128
 182.333333333 490 216 496 254 496 c 0
 283.333333333 496 311.166666667 492.166666667 337.5 484.5 c 128
 363.833333333 476.833333333 387.666666667 465.333333333 409 450 c 0
 417 445.333333333 422.166666667 439.5 424.5 432.5 c 128
 426.833333333 425.5 427.166666667 418.5 425.5 411.5 c 128
 423.833333333 404.5 420.666666667 398.666666667 416 394 c 128
 411.333333333 389.333333333 405.333333333 386.5 398 385.5 c 128
 390.666666667 384.5 382.666666667 386.333333333 374 391 c 0
 354.666666667 404.333333333 334.833333333 413.833333333 314.5 419.5 c 128
 294.166666667 425.166666667 274 428 254 428 c 0
 218 428 190.833333333 421 172.5 407 c 128
 154.166666667 393 145 374.666666667 145 352 c 0
 145 334.666666667 150.5 320.333333333 161.5 309 c 128
 172.5 297.666666667 190 289.333333333 214 284 c 2
 307 265 l 2
 350.333333333 255.666666667 383 240.833333333 405 220.5 c 128
 427 200.166666667 438 172.666666667 438 138 c 0
 438 92.6666666667 420.166666667 56.8333333333 384.5 30.5 c 128
 348.833333333 4.16666666667 301 -9 241 -9 c 0
EndSplineSet
EndChar

StartChar: germandbls
Encoding: 223 223 430
Width: 624
GlyphClass: 1
Flags: W
LayerCount: 2
Fore
SplineSet
411 -9 m 0
 382.333333333 -9 353.166666667 -5 323.5 3 c 128
 293.833333333 11 267.333333333 23 244 39 c 0
 236 43.6666666667 230.666666667 49.6666666667 228 57 c 128
 225.333333333 64.3333333333 224.666666667 71.6666666667 226 79 c 128
 227.333333333 86.3333333333 230.5 92.6666666667 235.5 98 c 128
 240.5 103.333333333 246.666666667 106.5 254 107.5 c 128
 261.333333333 108.5 269.333333333 106.333333333 278 101 c 0
 300 87 322.833333333 77 346.5 71 c 128
 370.166666667 65 392 62 412 62 c 0
 442.666666667 62 466.666666667 68.5 484 81.5 c 128
 501.333333333 94.5 510 112.333333333 510 135 c 0
 510 153.666666667 502.5 169.333333333 487.5 182 c 128
 472.5 194.666666667 445.666666667 206.666666667 407 218 c 0
 353.666666667 234.666666667 316.333333333 253.666666667 295 275 c 128
 273.666666667 296.333333333 263 323 263 355 c 0
 263 369 265.166666667 382.5 269.5 395.5 c 128
 273.833333333 408.5 281.666666667 422.166666667 293 436.5 c 128
 304.333333333 450.833333333 319.666666667 466.666666667 339 484 c 0
 359 501.333333333 373 517 381 531 c 128
 389 545 393 560 393 576 c 0
 393 597.333333333 385.5 614 370.5 626 c 128
 355.5 638 334 644 306 644 c 0
 260 644 224.833333333 630.333333333 200.5 603 c 128
 176.166666667 575.666666667 164 537 164 487 c 2
 164 40 l 2
 164 24.6666666667 160 13 152 5 c 128
 144 -3 132.666666667 -7 118 -7 c 0
 104 -7 93 -3 85 5 c 128
 77 13 73 24.6666666667 73 40 c 2
 73 475 l 2
 73 551 93.3333333333 609.833333333 134 651.5 c 128
 174.666666667 693.166666667 232 714 306 714 c 0
 342.666666667 714 374 708.666666667 400 698 c 128
 426 687.333333333 446 672.333333333 460 653 c 128
 474 633.666666667 481 610.333333333 481 583 c 0
 481 558.333333333 475.333333333 536 464 516 c 128
 452.666666667 496 433.666666667 474 407 450 c 0
 391.666666667 436.666666667 379.666666667 425.166666667 371 415.5 c 128
 362.333333333 405.833333333 356.5 397.166666667 353.5 389.5 c 128
 350.5 381.833333333 349 373.333333333 349 364 c 0
 349 347.333333333 356.5 333 371.5 321 c 128
 386.5 309 413.666666667 297 453 285 c 0
 504.333333333 269 541 249.5 563 226.5 c 128
 585 203.5 596 174.333333333 596 139 c 0
 596 109 588.333333333 83 573 61 c 128
 557.666666667 39 536 21.8333333333 508 9.5 c 128
 480 -2.83333333333 447.666666667 -9 411 -9 c 0
EndSplineSet
Substitution2: "Nunito-Medium-Single Substitution lookup 39 subtable" germandbls.calt
Substitution2: "Nunito-Medium-Single Substitution lookup 38 subtable" germandbls.calt
Substitution2: "Nunito-Medium-'aalt' Access All Alternates lookup 0 subtable" germandbls.calt
EndChar

StartChar: t
Encoding: 116 116 431
Width: 358
GlyphClass: 2
Flags: W
AnchorPoint: "Anchor-5" 168 266 basechar 0
AnchorPoint: "Anchor-2" 219 0 basechar 0
AnchorPoint: "Anchor-1" 255 705 basechar 0
AnchorPoint: "Anchor-0" 144 635 basechar 0
LayerCount: 2
Fore
SplineSet
275 -9 m 0
 235.666666667 -9 202.833333333 -2 176.5 12 c 128
 150.166666667 26 130.5 46.3333333333 117.5 73 c 128
 104.5 99.6666666667 98 132.333333333 98 171 c 2
 98 417 l 1
 34 417 l 2
 22 417 12.6666666667 420.166666667 6 426.5 c 128
 -0.666666666667 432.833333333 -4 441.333333333 -4 452 c 0
 -4 463.333333333 -0.666666666667 472 6 478 c 128
 12.6666666667 484 22 487 34 487 c 2
 98 487 l 1
 98 596 l 2
 98 611.333333333 102 622.833333333 110 630.5 c 128
 118 638.166666667 129.333333333 642 144 642 c 256
 158.666666667 642 169.833333333 638.166666667 177.5 630.5 c 128
 185.166666667 622.833333333 189 611.333333333 189 596 c 2
 189 487 l 1
 310 487 l 2
 322.666666667 487 332.333333333 484 339 478 c 128
 345.666666667 472 349 463.333333333 349 452 c 0
 349 441.333333333 345.666666667 432.833333333 339 426.5 c 128
 332.333333333 420.166666667 322.666666667 417 310 417 c 2
 189 417 l 1
 189 179 l 2
 189 142.333333333 196.666666667 114.666666667 212 96 c 128
 227.333333333 77.3333333333 252.666666667 68 288 68 c 0
 300.666666667 68 311.333333333 69.1666666667 320 71.5 c 128
 328.666666667 73.8333333333 336.333333333 75 343 75 c 0
 349 75.6666666667 354.166666667 73.6666666667 358.5 69 c 128
 362.833333333 64.3333333333 365 55.6666666667 365 43 c 0
 365 33.6666666667 363.5 25.1666666667 360.5 17.5 c 128
 357.5 9.83333333333 351.666666667 4.66666666667 343 2 c 0
 335 -0.666666666667 324.333333333 -3.16666666667 311 -5.5 c 128
 297.666666667 -7.83333333333 285.666666667 -9 275 -9 c 0
EndSplineSet
EndChar

StartChar: u
Encoding: 117 117 439
Width: 565
GlyphClass: 2
Flags: W
AnchorPoint: "Anchor-3" 471 0 basechar 0
AnchorPoint: "Anchor-2" 282 0 basechar 0
AnchorPoint: "Anchor-1" 421 484 basechar 0
AnchorPoint: "Anchor-0" 282 485 basechar 0
LayerCount: 2
Fore
SplineSet
247 -9 m 0
 207.666666667 -9 174.833333333 -1.66666666667 148.5 13 c 128
 122.166666667 27.6666666667 102.666666667 49.3333333333 90 78 c 128
 77.3333333333 106.666666667 71 142.666666667 71 186 c 2
 71 448 l 2
 71 463.333333333 74.8333333333 474.833333333 82.5 482.5 c 128
 90.1666666667 490.166666667 101.333333333 494 116 494 c 256
 130.666666667 494 142 490.166666667 150 482.5 c 128
 158 474.833333333 162 463.333333333 162 448 c 2
 162 186 l 2
 162 144.666666667 170.333333333 114.166666667 187 94.5 c 128
 203.666666667 74.8333333333 230 65 266 65 c 0
 306 65 338.5 78.3333333333 363.5 105 c 128
 388.5 131.666666667 401 167 401 211 c 2
 401 448 l 2
 401 463.333333333 404.833333333 474.833333333 412.5 482.5 c 128
 420.166666667 490.166666667 431.333333333 494 446 494 c 256
 460.666666667 494 472 490.166666667 480 482.5 c 128
 488 474.833333333 492 463.333333333 492 448 c 2
 492 40 l 2
 492 8.66666666667 477.333333333 -7 448 -7 c 0
 433.333333333 -7 422.166666667 -3 414.5 5 c 128
 406.833333333 13 403 24.6666666667 403 40 c 2
 403 127 l 1
 416 110 l 1
 402.666666667 71.3333333333 381.166666667 41.8333333333 351.5 21.5 c 128
 321.833333333 1.16666666667 287 -9 247 -9 c 0
EndSplineSet
EndChar

StartChar: uhorn
Encoding: 598 432 449
Width: 565
GlyphClass: 2
Flags: W
AnchorPoint: "Anchor-2" 283 0 basechar 0
AnchorPoint: "Anchor-0" 282 484 basechar 0
LayerCount: 2
Fore
SplineSet
247 -9 m 0
 207.666666667 -9 174.833333333 -1.66666666667 148.5 13 c 128
 122.166666667 27.6666666667 102.666666667 49.3333333333 90 78 c 128
 77.3333333333 106.666666667 71 142.666666667 71 186 c 2
 71 448 l 2
 71 463.333333333 74.8333333333 474.833333333 82.5 482.5 c 128
 90.1666666667 490.166666667 101.333333333 494 116 494 c 256
 130.666666667 494 142 490.166666667 150 482.5 c 128
 158 474.833333333 162 463.333333333 162 448 c 2
 162 186 l 2
 162 144.666666667 170.333333333 114.166666667 187 94.5 c 128
 203.666666667 74.8333333333 230 65 266 65 c 0
 306 65 338.5 78.3333333333 363.5 105 c 128
 388.5 131.666666667 401 167 401 211 c 2
 401 442 l 2
 401 457.333333333 404.833333333 468.5 412.5 475.5 c 128
 420.166666667 482.5 431.333333333 487 446 489 c 0
 465.333333333 491 481 495.666666667 493 503 c 128
 505 510.333333333 513.666666667 520.666666667 519 534 c 128
 524.333333333 547.333333333 527 564.666666667 527 586 c 0
 527 608.666666667 540.666666667 620 568 620 c 0
 580.666666667 620 590.5 617.333333333 597.5 612 c 128
 604.5 606.666666667 608 598.333333333 608 587 c 0
 608 545.666666667 597.833333333 512 577.5 486 c 128
 557.166666667 460 528.666666667 443.333333333 492 436 c 1
 492 40 l 2
 492 8.66666666667 477.333333333 -7 448 -7 c 0
 433.333333333 -7 422.166666667 -3 414.5 5 c 128
 406.833333333 13 403 24.6666666667 403 40 c 2
 403 127 l 1
 416 110 l 1
 402.666666667 71.3333333333 381.166666667 41.8333333333 351.5 21.5 c 128
 321.833333333 1.16666666667 287 -9 247 -9 c 0
EndSplineSet
EndChar

StartChar: uogonek
Encoding: 608 371 459
Width: 565
GlyphClass: 1
Flags: W
LayerCount: 2
Fore
SplineSet
403 127 m 1
 416 110 l 1
 402.666666667 71.3333333333 381.166666667 41.8333333333 351.5 21.5 c 128
 321.833333333 1.16666666667 287 -9 247 -9 c 0
 207.666666667 -9 174.833333333 -1.66666666667 148.5 13 c 128
 122.166666667 27.6666666667 102.666666667 49.3333333333 90 78 c 128
 77.3333333333 106.666666667 71 142.666666667 71 186 c 2
 71 448 l 2
 71 463.333333333 74.8333333333 474.833333333 82.5 482.5 c 128
 90.1666666667 490.166666667 101.333333333 494 116 494 c 256
 130.666666667 494 142 490.166666667 150 482.5 c 128
 158 474.833333333 162 463.333333333 162 448 c 2
 162 186 l 2
 162 144.666666667 170.333333333 114.166666667 187 94.5 c 128
 203.666666667 74.8333333333 230 65 266 65 c 0
 306 65 338.5 78.3333333333 363.5 105 c 128
 388.5 131.666666667 401 167 401 211 c 2
 401 448 l 2
 401 463.333333333 404.833333333 474.833333333 412.5 482.5 c 128
 420.166666667 490.166666667 431.333333333 494 446 494 c 256
 460.666666667 494 472 490.166666667 480 482.5 c 128
 488 474.833333333 492 463.333333333 492 448 c 2
 492 40 l 2
 492 26.6666666667 489.5 16.5 484.5 9.5 c 128
 479.5 2.5 472.333333333 -3 463 -7 c 0
 448.333333333 -13.6666666667 435.166666667 -23.6666666667 423.5 -37 c 128
 411.833333333 -50.3333333333 406 -66 406 -84 c 256
 406 -102 411.666666667 -115.666666667 423 -125 c 128
 434.333333333 -134.333333333 448 -139 464 -139 c 0
 470 -139 475.666666667 -138.5 481 -137.5 c 128
 486.333333333 -136.5 492 -135 498 -133 c 0
 507.333333333 -130.333333333 514.833333333 -130.833333333 520.5 -134.5 c 128
 526.166666667 -138.166666667 529.666666667 -143.333333333 531 -150 c 128
 532.333333333 -156.666666667 531.333333333 -163.166666667 528 -169.5 c 128
 524.666666667 -175.833333333 519.333333333 -180.666666667 512 -184 c 0
 501.333333333 -188 491 -190.5 481 -191.5 c 128
 471 -192.5 461.333333333 -193 452 -193 c 0
 419.333333333 -193 393.166666667 -184 373.5 -166 c 128
 353.833333333 -148 344 -124 344 -94 c 0
 344 -70 350.833333333 -47.3333333333 364.5 -26 c 128
 378.166666667 -4.66666666667 397 13.3333333333 421 28 c 1
 413 8 l 1
 409.666666667 12 407.166666667 16.6666666667 405.5 22 c 128
 403.833333333 27.3333333333 403 33.3333333333 403 40 c 2
 403 127 l 1
EndSplineSet
EndChar

StartChar: v
Encoding: 118 118 463
Width: 518
GlyphClass: 2
Flags: W
AnchorPoint: "Anchor-2" 260 0 basechar 0
AnchorPoint: "Anchor-0" 260 484 basechar 0
LayerCount: 2
Fore
SplineSet
258 -7 m 0
 245.333333333 -7 234.333333333 -3.66666666667 225 3 c 128
 215.666666667 9.66666666667 207.666666667 20.3333333333 201 35 c 2
 31 431 l 2
 26.3333333333 442.333333333 24.6666666667 452.666666667 26 462 c 128
 27.3333333333 471.333333333 31.8333333333 479 39.5 485 c 128
 47.1666666667 491 57.6666666667 494 71 494 c 0
 82.3333333333 494 91.3333333333 491.333333333 98 486 c 128
 104.666666667 480.666666667 111 471.333333333 117 458 c 2
 274 71 l 1
 246 71 l 1
 407 458 l 2
 412.333333333 471.333333333 418.5 480.666666667 425.5 486 c 128
 432.5 491.333333333 442.333333333 494 455 494 c 0
 466.333333333 494 475.166666667 491 481.5 485 c 128
 487.833333333 479 491.666666667 471.333333333 493 462 c 128
 494.333333333 452.666666667 492.333333333 442.666666667 487 432 c 2
 316 35 l 2
 310 20.3333333333 302.166666667 9.66666666667 292.5 3 c 128
 282.833333333 -3.66666666667 271.333333333 -7 258 -7 c 0
EndSplineSet
EndChar

StartChar: w
Encoding: 119 119 464
Width: 844
GlyphClass: 2
Flags: W
AnchorPoint: "Anchor-2" 422 0 basechar 0
AnchorPoint: "Anchor-0" 422 484 basechar 0
LayerCount: 2
Fore
SplineSet
246 -7 m 0
 233.333333333 -7 222.333333333 -3.83333333333 213 2.5 c 128
 203.666666667 8.83333333333 196.333333333 19.3333333333 191 34 c 2
 42 431 l 2
 37.3333333333 443.666666667 36 454.666666667 38 464 c 128
 40 473.333333333 44.6666666667 480.666666667 52 486 c 128
 59.3333333333 491.333333333 69 494 81 494 c 0
 92.3333333333 494 101.333333333 491.333333333 108 486 c 128
 114.666666667 480.666666667 120.333333333 471 125 457 c 2
 261 73 l 1
 237 73 l 1
 377 459 l 2
 381.666666667 471 387.833333333 479.833333333 395.5 485.5 c 128
 403.166666667 491.166666667 412.666666667 494 424 494 c 0
 436 494 446 491.166666667 454 485.5 c 128
 462 479.833333333 467.666666667 471 471 459 c 2
 609 73 l 1
 586 73 l 1
 724 459 l 2
 728.666666667 472.333333333 734.666666667 481.5 742 486.5 c 128
 749.333333333 491.5 758.333333333 494 769 494 c 0
 781 494 790 491 796 485 c 128
 802 479 805.5 471.166666667 806.5 461.5 c 128
 807.5 451.833333333 806 441.666666667 802 431 c 2
 653 34 l 2
 648.333333333 20 641.166666667 9.66666666667 631.5 3 c 128
 621.833333333 -3.66666666667 610.666666667 -7 598 -7 c 256
 585.333333333 -7 574.166666667 -3.66666666667 564.5 3 c 128
 554.833333333 9.66666666667 547.333333333 20 542 34 c 2
 399 426 l 1
 445 426 l 1
 302 34 l 2
 296.666666667 20 289.333333333 9.66666666667 280 3 c 128
 270.666666667 -3.66666666667 259.333333333 -7 246 -7 c 0
EndSplineSet
EndChar

StartChar: x
Encoding: 120 120 469
Width: 530
GlyphClass: 2
Flags: W
AnchorPoint: "Anchor-2" 265 0 basechar 0
AnchorPoint: "Anchor-0" 265 484 basechar 0
LayerCount: 2
Fore
SplineSet
83 -6 m 0
 73 -6 64.3333333333 -3 57 3 c 128
 49.6666666667 9 45.8333333333 17 45.5 27 c 128
 45.1666666667 37 49.3333333333 47.6666666667 58 59 c 2
 231 274 l 1
 231 229 l 1
 69 429 l 2
 59.6666666667 440.333333333 55.3333333333 451 56 461 c 128
 56.6666666667 471 60.5 479 67.5 485 c 128
 74.5 491 83.3333333333 494 94 494 c 0
 105.333333333 494 114.833333333 492 122.5 488 c 128
 130.166666667 484 137.333333333 477.666666667 144 469 c 2
 282 294 l 1
 250 294 l 1
 388 469 l 2
 394.666666667 477.666666667 401.833333333 484 409.5 488 c 128
 417.166666667 492 426.333333333 494 437 494 c 256
 447.666666667 494 456.5 491 463.5 485 c 128
 470.5 479 474.166666667 471 474.5 461 c 128
 474.833333333 451 470.666666667 440.333333333 462 429 c 2
 301 231 l 1
 301 271 l 1
 473 59 l 2
 482.333333333 48.3333333333 486.666666667 38 486 28 c 128
 485.333333333 18 481.5 9.83333333333 474.5 3.5 c 128
 467.5 -2.83333333333 458.666666667 -6 448 -6 c 0
 436.666666667 -6 427.166666667 -4 419.5 0 c 128
 411.833333333 4 404.666666667 10.3333333333 398 19 c 2
 249 206 l 1
 280 206 l 1
 133 19 l 2
 126.333333333 11 119.166666667 4.83333333333 111.5 0.5 c 128
 103.833333333 -3.83333333333 94.3333333333 -6 83 -6 c 0
EndSplineSet
EndChar

StartChar: y
Encoding: 121 121 470
Width: 517
GlyphClass: 2
Flags: W
AnchorPoint: "Anchor-2" 394 0 basechar 0
AnchorPoint: "Anchor-0" 259 484 basechar 0
LayerCount: 2
Fore
SplineSet
185 -187 m 0
 174.333333333 -187 165.5 -184.166666667 158.5 -178.5 c 128
 151.5 -172.833333333 147.5 -165.166666667 146.5 -155.5 c 128
 145.5 -145.833333333 147.333333333 -135.666666667 152 -125 c 2
 220 29 l 1
 220 -9 l 1
 31 431 l 2
 26.3333333333 442.333333333 24.6666666667 452.666666667 26 462 c 128
 27.3333333333 471.333333333 31.8333333333 479 39.5 485 c 128
 47.1666666667 491 57.6666666667 494 71 494 c 0
 82.3333333333 494 91.3333333333 491.333333333 98 486 c 128
 104.666666667 480.666666667 111 471.333333333 117 458 c 2
 274 71 l 1
 246 71 l 1
 406 458 l 2
 411.333333333 471.333333333 417.666666667 480.666666667 425 486 c 128
 432.333333333 491.333333333 442.333333333 494 455 494 c 0
 466.333333333 494 475.166666667 491 481.5 485 c 128
 487.833333333 479 491.666666667 471.333333333 493 462 c 128
 494.333333333 452.666666667 492.333333333 442.666666667 487 432 c 2
 235 -151 l 2
 228.333333333 -165 221.5 -174.5 214.5 -179.5 c 128
 207.5 -184.5 197.666666667 -187 185 -187 c 0
EndSplineSet
EndChar

StartChar: uni01B4
Encoding: 620 436 477
Width: 556
GlyphClass: 1
Flags: W
LayerCount: 2
Fore
SplineSet
185 -187 m 0
 174.333333333 -187 165.5 -184 158.5 -178 c 128
 151.5 -172 147.5 -164 146.5 -154 c 128
 145.5 -144 147.333333333 -134 152 -124 c 2
 220 29 l 1
 220 -9 l 1
 30 432 l 2
 25.3333333333 443.333333333 23.6666666667 453.666666667 25 463 c 128
 26.3333333333 472.333333333 31 479.833333333 39 485.5 c 128
 47 491.166666667 57.6666666667 494 71 494 c 0
 82.3333333333 494 91.5 491.333333333 98.5 486 c 128
 105.5 480.666666667 111.666666667 471.333333333 117 458 c 2
 274 71 l 1
 246 71 l 1
 379 391 l 2
 388.333333333 413.666666667 399.5 432.833333333 412.5 448.5 c 128
 425.5 464.166666667 441.333333333 476 460 484 c 128
 478.666666667 492 501 496 527 496 c 0
 553.666666667 496 571.833333333 492.833333333 581.5 486.5 c 128
 591.166666667 480.166666667 596 471 596 459 c 256
 596 447 593.666666667 437.666666667 589 431 c 128
 584.333333333 424.333333333 577.666666667 421 569 421 c 0
 565.666666667 421 561.5 421.333333333 556.5 422 c 128
 551.5 422.666666667 545.666666667 423 539 423 c 0
 519 423 502.166666667 417.333333333 488.5 406 c 128
 474.833333333 394.666666667 462 374.666666667 450 346 c 2
 235 -151 l 2
 229 -165 222.333333333 -174.5 215 -179.5 c 128
 207.666666667 -184.5 197.666666667 -187 185 -187 c 0
EndSplineSet
EndChar

StartChar: z
Encoding: 122 122 481
Width: 466
GlyphClass: 2
Flags: W
AnchorPoint: "Anchor-2" 240 0 basechar 0
AnchorPoint: "Anchor-0" 240 484 basechar 0
LayerCount: 2
Fore
SplineSet
88 0 m 2
 78 0 70 2.33333333333 64 7 c 128
 58 11.6666666667 53.8333333333 17.6666666667 51.5 25 c 128
 49.1666666667 32.3333333333 49.1666666667 40.3333333333 51.5 49 c 128
 53.8333333333 57.6666666667 58.6666666667 66.3333333333 66 75 c 2
 343 440 l 1
 343 417 l 1
 82 417 l 2
 70.6666666667 417 61.8333333333 420.166666667 55.5 426.5 c 128
 49.1666666667 432.833333333 46 441.333333333 46 452 c 0
 46 463.333333333 49.1666666667 472 55.5 478 c 128
 61.8333333333 484 70.6666666667 487 82 487 c 2
 387 487 l 2
 398.333333333 487 407.5 484.666666667 414.5 480 c 128
 421.5 475.333333333 426.166666667 469.333333333 428.5 462 c 128
 430.833333333 454.666666667 431 446.833333333 429 438.5 c 128
 427 430.166666667 422.333333333 422 415 414 c 2
 134 45 l 1
 134 70 l 1
 408 70 l 2
 432 70 444 58.3333333333 444 35 c 0
 444 24.3333333333 440.833333333 15.8333333333 434.5 9.5 c 128
 428.166666667 3.16666666667 419.333333333 0 408 0 c 2
 88 0 l 2
EndSplineSet
EndChar

StartChar: germandbls.calt
Encoding: 628 -1 486
Width: 716
GlyphClass: 1
Flags: W
LayerCount: 2
Fore
SplineSet
436 -9 m 0
 402 -9 370 -4.83333333333 340 3.5 c 128
 310 11.8333333333 283.666666667 23.6666666667 261 39 c 0
 253 44.3333333333 247.666666667 50.8333333333 245 58.5 c 128
 242.333333333 66.1666666667 241.833333333 73.8333333333 243.5 81.5 c 128
 245.166666667 89.1666666667 248.5 95.8333333333 253.5 101.5 c 128
 258.5 107.166666667 264.666666667 110.666666667 272 112 c 128
 279.333333333 113.333333333 287 111.333333333 295 106 c 0
 316.333333333 92.6666666667 337.833333333 83 359.5 77 c 128
 381.166666667 71 404 68 428 68 c 0
 472.666666667 68 506.666666667 79.1666666667 530 101.5 c 128
 553.333333333 123.833333333 565 154.666666667 565 194 c 256
 565 233.333333333 552.333333333 263.5 527 284.5 c 128
 501.666666667 305.5 463 316 411 316 c 2
 315 316 l 2
 303.666666667 316 294.333333333 319.333333333 287 326 c 128
 279.666666667 332.666666667 276 342 276 354 c 0
 276 366.666666667 279.333333333 376 286 382 c 128
 292.666666667 388 301.333333333 391 312 391 c 2
 389 391 l 2
 431.666666667 391 465.5 401.666666667 490.5 423 c 128
 515.5 444.333333333 528 474.666666667 528 514 c 0
 528 554 514.5 584.333333333 487.5 605 c 128
 460.5 625.666666667 421.333333333 636 370 636 c 0
 306.666666667 636 258.833333333 621.166666667 226.5 591.5 c 128
 194.166666667 561.833333333 178 516.666666667 178 456 c 2
 178 41 l 2
 178 25.6666666667 174 13.8333333333 166 5.5 c 128
 158 -2.83333333333 146.333333333 -7 131 -7 c 0
 116.333333333 -7 105 -2.83333333333 97 5.5 c 128
 89 13.8333333333 85 25.6666666667 85 41 c 2
 85 458 l 2
 85 514 96.3333333333 561 119 599 c 128
 141.666666667 637 174.5 665.666666667 217.5 685 c 128
 260.5 704.333333333 312.333333333 714 373 714 c 0
 423.666666667 714 467.333333333 706.5 504 691.5 c 128
 540.666666667 676.5 569 655 589 627 c 128
 609 599 619 565.666666667 619 527 c 0
 619 484.333333333 607.666666667 447.333333333 585 416 c 128
 562.333333333 384.666666667 531 364 491 354 c 1
 491 369 l 1
 525 365.666666667 554.333333333 356.166666667 579 340.5 c 128
 603.666666667 324.833333333 622.833333333 304.166666667 636.5 278.5 c 128
 650.166666667 252.833333333 657 223 657 189 c 0
 657 147 648.166666667 111.333333333 630.5 82 c 128
 612.833333333 52.6666666667 587.5 30.1666666667 554.5 14.5 c 128
 521.5 -1.16666666667 482 -9 436 -9 c 0
EndSplineSet
EndChar

StartChar: a.ss01
Encoding: 630 -1 488
Width: 587
GlyphClass: 2
Flags: W
AnchorPoint: "Anchor-3" 494 0 basechar 0
AnchorPoint: "Anchor-2" 291 0 basechar 0
AnchorPoint: "Anchor-0" 291 484 basechar 0
LayerCount: 2
Fore
SplineSet
259 -9 m 0
 216.333333333 -9 178.833333333 1.16666666667 146.5 21.5 c 128
 114.166666667 41.8333333333 89 71.1666666667 71 109.5 c 128
 53 147.833333333 44 192.666666667 44 244 c 0
 44 296 52.8333333333 340.833333333 70.5 378.5 c 128
 88.1666666667 416.166666667 113.166666667 445.166666667 145.5 465.5 c 128
 177.833333333 485.833333333 215.666666667 496 259 496 c 256
 302.333333333 496 339.666666667 485.166666667 371 463.5 c 128
 402.333333333 441.833333333 423.333333333 413 434 377 c 1
 423 362 l 1
 423 448 l 2
 423 463.333333333 427 474.833333333 435 482.5 c 128
 443 490.166666667 454 494 468 494 c 0
 482.666666667 494 494 490.166666667 502 482.5 c 128
 510 474.833333333 514 463.333333333 514 448 c 2
 514 40 l 2
 514 24.6666666667 510 13 502 5 c 128
 494 -3 482.666666667 -7 468 -7 c 0
 454 -7 443 -3 435 5 c 128
 427 13 423 24.6666666667 423 40 c 2
 423 125 l 1
 434 113 l 1
 424 75.6666666667 403.166666667 46 371.5 24 c 128
 339.833333333 2 302.333333333 -9 259 -9 c 0
280 63 m 0
 309.333333333 63 334.833333333 70 356.5 84 c 128
 378.166666667 98 394.833333333 118.333333333 406.5 145 c 128
 418.166666667 171.666666667 424 204.666666667 424 244 c 0
 424 302.666666667 411 347.333333333 385 378 c 128
 359 408.666666667 324 424 280 424 c 0
 251.333333333 424 226.166666667 417.166666667 204.5 403.5 c 128
 182.833333333 389.833333333 166 369.666666667 154 343 c 128
 142 316.333333333 136 283.333333333 136 244 c 0
 136 185.333333333 149.166666667 140.5 175.5 109.5 c 128
 201.833333333 78.5 236.666666667 63 280 63 c 0
EndSplineSet
EndChar

StartChar: l.ss02
Encoding: 657 -1 515
Width: 237
GlyphClass: 2
Flags: W
AnchorPoint: "Anchor-5" 118 357 basechar 0
AnchorPoint: "Anchor-2" 118 0 basechar 0
AnchorPoint: "Anchor-1" 208 705 basechar 0
AnchorPoint: "Anchor-0" 118 705 basechar 0
LayerCount: 2
Fore
SplineSet
118 -7 m 0
 104 -7 93 -3 85 5 c 128
 77 13 73 24.6666666667 73 40 c 2
 73 666 l 2
 73 681.333333333 77 692.833333333 85 700.5 c 128
 93 708.166666667 104 712 118 712 c 0
 132.666666667 712 144 708.166666667 152 700.5 c 128
 160 692.833333333 164 681.333333333 164 666 c 2
 164 40 l 2
 164 8.66666666667 148.666666667 -7 118 -7 c 0
EndSplineSet
EndChar

StartChar: fi
Encoding: 666 64257 524
Width: 570
GlyphClass: 3
LigCaretCntFixed: 1
Flags: W
LayerCount: 2
Fore
SplineSet
147 -7 m 0
 132.333333333 -7 121 -3 113 5 c 128
 105 13 101 24.6666666667 101 40 c 2
 101 417 l 1
 41 417 l 2
 29 417 19.6666666667 420.166666667 13 426.5 c 128
 6.33333333333 432.833333333 3 441.333333333 3 452 c 0
 3 463.333333333 6.33333333333 472 13 478 c 128
 19.6666666667 484 29 487 41 487 c 2
 126 487 l 1
 101 463 l 1
 101 500 l 2
 101 564 116.5 612.666666667 147.5 646 c 128
 178.5 679.333333333 224.666666667 699 286 705 c 2
 315 707 l 2
 326.333333333 708.333333333 335.333333333 706.833333333 342 702.5 c 128
 348.666666667 698.166666667 353.166666667 692.666666667 355.5 686 c 128
 357.833333333 679.333333333 358.166666667 672.333333333 356.5 665 c 128
 354.833333333 657.666666667 351.666666667 651.333333333 347 646 c 128
 342.333333333 640.666666667 336.333333333 638 329 638 c 2
 301 636 l 2
 263 633.333333333 235.333333333 621.666666667 218 601 c 128
 200.666666667 580.333333333 192 550.666666667 192 512 c 2
 192 472 l 1
 179 487 l 1
 452 487 l 2
 466.666666667 487 477.833333333 482.833333333 485.5 474.5 c 128
 493.166666667 466.166666667 497 454 497 438 c 2
 497 44 l 2
 497 28.6666666667 493.333333333 16.6666666667 486 8 c 128
 478.666666667 -0.666666666667 467.333333333 -5 452 -5 c 0
 437.333333333 -5 426 -0.666666666667 418 8 c 128
 410 16.6666666667 406 28.6666666667 406 44 c 2
 406 417 l 1
 192 417 l 1
 192 40 l 2
 192 8.66666666667 177 -7 147 -7 c 0
453 600 m 0
 435.666666667 600 422 604.833333333 412 614.5 c 128
 402 624.166666667 397 637 397 653 c 0
 397 670.333333333 402 683.5 412 692.5 c 128
 422 701.5 435.666666667 706 453 706 c 0
 471.666666667 706 485.833333333 701.5 495.5 692.5 c 128
 505.166666667 683.5 510 670.333333333 510 653 c 0
 510 637 505.166666667 624.166666667 495.5 614.5 c 128
 485.833333333 604.833333333 471.666666667 600 453 600 c 0
EndSplineSet
Ligature2: "Nunito-Medium-'liga' Standard Ligatures lookup 33 subtable" f i
LCarets2: 1 286
EndChar

StartChar: ordfeminine
Encoding: 170 170 529
Width: 330
GlyphClass: 1
Flags: W
LayerCount: 2
Fore
SplineSet
136 410 m 0
 104 410 77.6666666667 418.666666667 57 436 c 128
 36.3333333333 453.333333333 26 475.333333333 26 502 c 0
 26 532 39.8333333333 553.666666667 67.5 567 c 128
 95.1666666667 580.333333333 133.666666667 587 183 587 c 2
 241 587 l 1
 241 550 l 1
 185 550 l 2
 152.333333333 550 128.166666667 546.166666667 112.5 538.5 c 128
 96.8333333333 530.833333333 89 519 89 503 c 0
 89 489.666666667 93.8333333333 478.333333333 103.5 469 c 128
 113.166666667 459.666666667 128.666666667 455 150 455 c 0
 166.666666667 455 181 458.666666667 193 466 c 128
 205 473.333333333 214.666666667 483.666666667 222 497 c 128
 229.333333333 510.333333333 233 526.333333333 233 545 c 2
 233 602 l 2
 233 624 227.166666667 640 215.5 650 c 128
 203.833333333 660 186 665 162 665 c 0
 149.333333333 665 136 663.666666667 122 661 c 128
 108 658.333333333 93.6666666667 654 79 648 c 0
 70.3333333333 644.666666667 63 644.5 57 647.5 c 128
 51 650.5 47 655 45 661 c 128
 43 667 43.5 673.166666667 46.5 679.5 c 128
 49.5 685.833333333 55 690.666666667 63 694 c 0
 79.6666666667 702 96.6666666667 707.333333333 114 710 c 128
 131.333333333 712.666666667 148.333333333 714 165 714 c 0
 193.666666667 714 217.666666667 709.666666667 237 701 c 128
 256.333333333 692.333333333 270.666666667 679.666666667 280 663 c 128
 289.333333333 646.333333333 294 625.333333333 294 600 c 2
 294 440 l 2
 294 420 284.333333333 410 265 410 c 0
 255 410 247.5 413 242.5 419 c 128
 237.5 425 235 432.333333333 235 441 c 2
 235 470 l 1
 233 470 l 1
 221.666666667 449.333333333 208.333333333 434.166666667 193 424.5 c 128
 177.666666667 414.833333333 158.666666667 410 136 410 c 0
EndSplineSet
EndChar

StartChar: ordmasculine
Encoding: 186 186 530
Width: 342
GlyphClass: 1
Flags: W
LayerCount: 2
Fore
SplineSet
171 411 m 256
 142.333333333 411 116.833333333 417.166666667 94.5 429.5 c 128
 72.1666666667 441.833333333 54.5 459.5 41.5 482.5 c 128
 28.5 505.5 22 532.333333333 22 563 c 0
 22 594.333333333 28.5 621.166666667 41.5 643.5 c 128
 54.5 665.833333333 72.1666666667 683.166666667 94.5 695.5 c 128
 116.833333333 707.833333333 142.333333333 714 171 714 c 256
 199.666666667 714 225.166666667 707.833333333 247.5 695.5 c 128
 269.833333333 683.166666667 287.5 665.833333333 300.5 643.5 c 128
 313.5 621.166666667 320 594.333333333 320 563 c 0
 320 532.333333333 313.5 505.5 300.5 482.5 c 128
 287.5 459.5 269.833333333 441.833333333 247.5 429.5 c 128
 225.166666667 417.166666667 199.666666667 411 171 411 c 256
171 461 m 0
 197.666666667 461 218.5 469.666666667 233.5 487 c 128
 248.5 504.333333333 256 529.666666667 256 563 c 256
 256 596.333333333 248.5 621.666666667 233.5 639 c 128
 218.5 656.333333333 197.666666667 665 171 665 c 0
 145 665 124.333333333 656.333333333 109 639 c 128
 93.6666666667 621.666666667 86 596.333333333 86 563 c 256
 86 529.666666667 93.6666666667 504.333333333 109 487 c 128
 124.333333333 469.666666667 145 461 171 461 c 0
EndSplineSet
EndChar

StartChar: uni0411
Encoding: 672 1041 532
Width: 663
GlyphClass: 1
Flags: W
LayerCount: 2
Fore
SplineSet
135 0 m 2
 119 0 106.666666667 4.33333333333 98 13 c 128
 89.3333333333 21.6666666667 85 34 85 50 c 2
 85 655 l 2
 85 671 89.3333333333 683.333333333 98 692 c 128
 106.666666667 700.666666667 119 705 135 705 c 2
 520 705 l 2
 532.666666667 705 542.333333333 701.833333333 549 695.5 c 128
 555.666666667 689.166666667 559 680 559 668 c 0
 559 655.333333333 555.666666667 645.666666667 549 639 c 128
 542.333333333 632.333333333 532.666666667 629 520 629 c 2
 175 629 l 1
 175 398 l 1
 384 398 l 2
 458.666666667 398 516.5 381.333333333 557.5 348 c 128
 598.5 314.666666667 619 265.333333333 619 200 c 256
 619 134.666666667 598.5 85 557.5 51 c 128
 516.5 17 458.666666667 0 384 0 c 2
 135 0 l 2
175 76 m 1
 374 76 l 2
 426 76 464.666666667 86.1666666667 490 106.5 c 128
 515.333333333 126.833333333 528 157.666666667 528 199 c 0
 528 241 515.333333333 272 490 292 c 128
 464.666666667 312 426 322 374 322 c 2
 175 322 l 1
 175 76 l 1
EndSplineSet
EndChar

StartChar: uni0413
Encoding: 674 1043 534
Width: 546
GlyphClass: 2
Flags: W
AnchorPoint: "Anchor-4" 156 355 basechar 0
AnchorPoint: "Anchor-0" 278 705 basechar 0
LayerCount: 2
Fore
SplineSet
131 -7 m 0
 116.333333333 -7 105 -2.83333333333 97 5.5 c 128
 89 13.8333333333 85 25.6666666667 85 41 c 2
 85 657 l 2
 85 672.333333333 89.1666666667 684.166666667 97.5 692.5 c 128
 105.833333333 700.833333333 117.666666667 705 133 705 c 2
 497 705 l 2
 510.333333333 705 520.5 701.666666667 527.5 695 c 128
 534.5 688.333333333 538 678.666666667 538 666 c 256
 538 653.333333333 534.5 643.5 527.5 636.5 c 128
 520.5 629.5 510.333333333 626 497 626 c 2
 178 626 l 1
 178 41 l 2
 178 25.6666666667 174 13.8333333333 166 5.5 c 128
 158 -2.83333333333 146.333333333 -7 131 -7 c 0
EndSplineSet
EndChar

StartChar: uni0490
Encoding: 676 1168 536
Width: 546
GlyphClass: 1
Flags: W
LayerCount: 2
Fore
SplineSet
131 -7 m 0
 116.333333333 -7 105 -2.83333333333 97 5.5 c 128
 89 13.8333333333 85 25.6666666667 85 41 c 2
 85 657 l 2
 85 672.333333333 89.1666666667 684.166666667 97.5 692.5 c 128
 105.833333333 700.833333333 117.666666667 705 133 705 c 2
 447 705 l 1
 447 825 l 2
 447 853.666666667 461 868 489 868 c 0
 502.333333333 868 512.666666667 864.333333333 520 857 c 128
 527.333333333 849.666666667 531 839 531 825 c 2
 531 674 l 2
 531 658.666666667 527 646.833333333 519 638.5 c 128
 511 630.166666667 499 626 483 626 c 2
 178 626 l 1
 178 41 l 2
 178 25.6666666667 174 13.8333333333 166 5.5 c 128
 158 -2.83333333333 146.333333333 -7 131 -7 c 0
EndSplineSet
EndChar

StartChar: uni0414
Encoding: 677 1044 537
Width: 783
GlyphClass: 1
Flags: W
LayerCount: 2
Fore
SplineSet
58 -166 m 0
 44 -166 33.5 -162.166666667 26.5 -154.5 c 128
 19.5 -146.833333333 16 -136.333333333 16 -123 c 2
 16 31 l 2
 16 61 31.3333333333 76 62 76 c 2
 127 76 l 1
 72 62 l 1
 110.666666667 103.333333333 139.333333333 161.666666667 158 237 c 128
 176.666666667 312.333333333 186 407.666666667 186 523 c 2
 186 655 l 2
 186 671 190.333333333 683.333333333 199 692 c 128
 207.666666667 700.666666667 220 705 236 705 c 2
 610 705 l 2
 626.666666667 705 639.333333333 700.666666667 648 692 c 128
 656.666666667 683.333333333 661 671 661 655 c 2
 661 40 l 1
 624 76 l 1
 715 76 l 2
 729.666666667 76 741 72.1666666667 749 64.5 c 128
 757 56.8333333333 761 45.6666666667 761 31 c 2
 761 -123 l 2
 761 -151.666666667 747 -166 719 -166 c 0
 705.666666667 -166 695.333333333 -162.166666667 688 -154.5 c 128
 680.666666667 -146.833333333 677 -136.333333333 677 -123 c 2
 677 0 l 1
 100 0 l 1
 100 -123 l 2
 100 -151.666666667 86 -166 58 -166 c 0
181 76 m 1
 567 76 l 1
 567 629 l 1
 272 629 l 1
 272 516 l 2
 272 410.666666667 264.666666667 322.666666667 250 252 c 128
 235.333333333 181.333333333 212.333333333 122.666666667 181 76 c 1
EndSplineSet
EndChar

StartChar: uni0416
Encoding: 681 1046 541
Width: 979
GlyphClass: 2
Flags: W
AnchorPoint: "Anchor-0" 489 705 basechar 0
LayerCount: 2
Fore
SplineSet
490 -7 m 0
 475.333333333 -7 464.166666667 -2.83333333333 456.5 5.5 c 128
 448.833333333 13.8333333333 445 25.6666666667 445 41 c 2
 445 315 l 1
 363 315 l 2
 326.333333333 315 295.666666667 306.5 271 289.5 c 128
 246.333333333 272.5 224.666666667 244.666666667 206 206 c 2
 119 23 l 2
 113.666666667 11.6666666667 106.666666667 3.83333333333 98 -0.5 c 128
 89.3333333333 -4.83333333333 80.1666666667 -6.66666666667 70.5 -6 c 128
 60.8333333333 -5.33333333333 52.3333333333 -2.16666666667 45 3.5 c 128
 37.6666666667 9.16666666667 32.8333333333 16.6666666667 30.5 26 c 128
 28.1666666667 35.3333333333 30 46 36 58 c 2
 128 246 l 2
 149.333333333 289.333333333 175 323 205 347 c 128
 235 371 270 385.666666667 310 391 c 1
 275 362 l 1
 87 645 l 2
 79.6666666667 655.666666667 76.5 665.5 77.5 674.5 c 128
 78.5 683.5 82 691.166666667 88 697.5 c 128
 94 703.833333333 101.5 708 110.5 710 c 128
 119.5 712 128.666666667 711.333333333 138 708 c 128
 147.333333333 704.666666667 155.333333333 698 162 688 c 2
 364 378 l 1
 341 395 l 1
 445 395 l 1
 445 665 l 2
 445 680.333333333 448.833333333 692 456.5 700 c 128
 464.166666667 708 475.333333333 712 490 712 c 0
 504 712 515 708 523 700 c 128
 531 692 535 680.333333333 535 665 c 2
 535 395 l 1
 640 395 l 1
 615 378 l 1
 818 688 l 2
 824.666666667 698 832.5 704.666666667 841.5 708 c 128
 850.5 711.333333333 859.5 712 868.5 710 c 128
 877.5 708 885.166666667 703.833333333 891.5 697.5 c 128
 897.833333333 691.166666667 901.333333333 683.5 902 674.5 c 128
 902.666666667 665.5 899.666666667 655.666666667 893 645 c 2
 704 362 l 1
 669 391 l 1
 696.333333333 387.666666667 721 380 743 368 c 128
 765 356 784.833333333 339.833333333 802.5 319.5 c 128
 820.166666667 299.166666667 835.666666667 274.666666667 849 246 c 2
 942 58 l 2
 948 46 949.833333333 35.3333333333 947.5 26 c 128
 945.166666667 16.6666666667 940.333333333 9.16666666667 933 3.5 c 128
 925.666666667 -2.16666666667 917.166666667 -5.33333333333 907.5 -6 c 128
 897.833333333 -6.66666666667 888.666666667 -4.83333333333 880 -0.5 c 128
 871.333333333 3.83333333333 864 11.6666666667 858 23 c 2
 772 206 l 2
 753.333333333 245.333333333 731.666666667 273.333333333 707 290 c 128
 682.333333333 306.666666667 652 315 616 315 c 2
 535 315 l 1
 535 41 l 2
 535 25.6666666667 531 13.8333333333 523 5.5 c 128
 515 -2.83333333333 504 -7 490 -7 c 0
EndSplineSet
EndChar

StartChar: uni0417
Encoding: 682 1047 542
Width: 639
GlyphClass: 2
Flags: W
AnchorPoint: "Anchor-2" 317 0 basechar 0
AnchorPoint: "Anchor-0" 313 705 basechar 0
LayerCount: 2
Fore
SplineSet
310 -9 m 0
 258.666666667 -9 211.333333333 -2.66666666667 168 10 c 128
 124.666666667 22.6666666667 88 40.6666666667 58 64 c 0
 49.3333333333 70.6666666667 43.5 78.1666666667 40.5 86.5 c 128
 37.5 94.8333333333 37 102.833333333 39 110.5 c 128
 41 118.166666667 44.8333333333 124.666666667 50.5 130 c 128
 56.1666666667 135.333333333 63.1666666667 138.333333333 71.5 139 c 128
 79.8333333333 139.666666667 89 137 99 131 c 0
 117.666666667 117.666666667 137.666666667 106.666666667 159 98 c 128
 180.333333333 89.3333333333 203.166666667 82.8333333333 227.5 78.5 c 128
 251.833333333 74.1666666667 277.333333333 72 304 72 c 0
 346 72 380.333333333 76.6666666667 407 86 c 128
 433.666666667 95.3333333333 453.5 109.5 466.5 128.5 c 128
 479.5 147.5 486 171.333333333 486 200 c 0
 486 240.666666667 473.333333333 270.666666667 448 290 c 128
 422.666666667 309.333333333 384.333333333 319 333 319 c 2
 194 319 l 2
 181.333333333 319 171.5 322.333333333 164.5 329 c 128
 157.5 335.666666667 154 345.333333333 154 358 c 0
 154 369.333333333 157.5 378.333333333 164.5 385 c 128
 171.5 391.666666667 181.333333333 395 194 395 c 2
 316 395 l 2
 366.666666667 395 404.833333333 404.833333333 430.5 424.5 c 128
 456.166666667 444.166666667 469 473.333333333 469 512 c 0
 469 536.666666667 463 558.166666667 451 576.5 c 128
 439 594.833333333 420.833333333 609 396.5 619 c 128
 372.166666667 629 341.666666667 634 305 634 c 0
 271 634 238 629.333333333 206 620 c 128
 174 610.666666667 144.666666667 597 118 579 c 0
 107.333333333 572.333333333 97.8333333333 569.5 89.5 570.5 c 128
 81.1666666667 571.5 74.3333333333 574.666666667 69 580 c 128
 63.6666666667 585.333333333 60 592 58 600 c 128
 56 608 56.5 616.166666667 59.5 624.5 c 128
 62.5 632.833333333 68.6666666667 640 78 646 c 0
 110 668.666666667 146.5 685.666666667 187.5 697 c 128
 228.5 708.333333333 270.333333333 714 313 714 c 0
 368.333333333 714 414.333333333 706 451 690 c 128
 487.666666667 674 515.333333333 651.5 534 622.5 c 128
 552.666666667 593.5 562 559.666666667 562 521 c 0
 562 477.666666667 549.166666667 441.333333333 523.5 412 c 128
 497.833333333 382.666666667 463.333333333 363 420 353 c 1
 420 368 l 1
 469.333333333 362 508.166666667 343.833333333 536.5 313.5 c 128
 564.833333333 283.166666667 579 243.666666667 579 195 c 0
 579 153 569.333333333 116.666666667 550 86 c 128
 530.666666667 55.3333333333 501.166666667 31.8333333333 461.5 15.5 c 128
 421.833333333 -0.833333333333 371.333333333 -9 310 -9 c 0
EndSplineSet
EndChar

StartChar: uni0418
Encoding: 683 1048 543
Width: 741
GlyphClass: 2
Flags: W
AnchorPoint: "Anchor-0" 371 705 basechar 0
LayerCount: 2
Fore
SplineSet
124 -7 m 0
 118 -7 112.5 -6 107.5 -4 c 128
 102.5 -2 98.3333333333 1 95 5 c 128
 91.6666666667 9 89.1666666667 14 87.5 20 c 128
 85.8333333333 26 85 33 85 41 c 2
 85 667 l 2
 85 681.666666667 88.8333333333 692.833333333 96.5 700.5 c 128
 104.166666667 708.166666667 114.666666667 712 128 712 c 0
 142 712 152.666666667 708.166666667 160 700.5 c 128
 167.333333333 692.833333333 171 681.666666667 171 667 c 2
 171 123 l 1
 149 123 l 1
 571 685 l 2
 578.333333333 695 585.5 702 592.5 706 c 128
 599.5 710 608.333333333 712 619 712 c 0
 627 712 633.666666667 710.333333333 639 707 c 128
 644.333333333 703.666666667 648.666666667 698.666666667 652 692 c 128
 655.333333333 685.333333333 657 677.333333333 657 668 c 2
 657 38 l 2
 657 24 653.333333333 13 646 5 c 128
 638.666666667 -3 628 -7 614 -7 c 256
 600 -7 589.166666667 -3 581.5 5 c 128
 573.833333333 13 570 24 570 38 c 2
 570 583 l 1
 592 583 l 1
 171 21 l 2
 163.666666667 11 156.833333333 3.83333333333 150.5 -0.5 c 128
 144.166666667 -4.83333333333 135.333333333 -7 124 -7 c 0
EndSplineSet
EndChar

StartChar: uni048A
Encoding: 686 1162 546
Width: 761
GlyphClass: 1
Flags: W
LayerCount: 2
Fore
SplineSet
700 -137 m 2
 696 -147 690.666666667 -154.333333333 684 -159 c 128
 677.333333333 -163.666666667 670 -166 662 -166 c 128
 654 -166 646.666666667 -164 640 -160 c 128
 633.333333333 -156 628.5 -150.333333333 625.5 -143 c 128
 622.5 -135.666666667 623 -126.333333333 627 -115 c 2
 670 14 l 1
 685 0 l 1
 616 0 l 2
 601.333333333 0 590 3.5 582 10.5 c 128
 574 17.5 570 28.3333333333 570 43 c 2
 570 583 l 1
 592 583 l 1
 171 21 l 2
 163.666666667 11 156.833333333 3.83333333333 150.5 -0.5 c 128
 144.166666667 -4.83333333333 135.333333333 -7 124 -7 c 0
 118 -7 112.5 -6 107.5 -4 c 128
 102.5 -2 98.3333333333 1 95 5 c 128
 91.6666666667 9 89.1666666667 14 87.5 20 c 128
 85.8333333333 26 85 33 85 41 c 2
 85 667 l 2
 85 681.666666667 88.8333333333 692.833333333 96.5 700.5 c 128
 104.166666667 708.166666667 114.666666667 712 128 712 c 0
 142 712 152.666666667 708.166666667 160 700.5 c 128
 167.333333333 692.833333333 171 681.666666667 171 667 c 2
 171 123 l 1
 149 123 l 1
 571 685 l 2
 578.333333333 695 585.5 702 592.5 706 c 128
 599.5 710 608.333333333 712 619 712 c 0
 627 712 633.666666667 710.333333333 639 707 c 128
 644.333333333 703.666666667 648.666666667 698.666666667 652 692 c 128
 655.333333333 685.333333333 657 677.333333333 657 668 c 2
 657 54 l 1
 633 77 l 1
 710 77 l 2
 728.666666667 77 741.833333333 72.1666666667 749.5 62.5 c 128
 757.166666667 52.8333333333 758.333333333 39.3333333333 753 22 c 2
 700 -137 l 2
371 760 m 0
 329.666666667 760 293 769.166666667 261 787.5 c 128
 229 805.833333333 204.666666667 833 188 869 c 0
 183.333333333 879.666666667 182.5 888.5 185.5 895.5 c 128
 188.5 902.5 194 907.333333333 202 910 c 0
 210.666666667 912.666666667 218 912.5 224 909.5 c 128
 230 906.5 235.666666667 900.333333333 241 891 c 0
 253 866.333333333 269.666666667 847.666666667 291 835 c 128
 312.333333333 822.333333333 339 816 371 816 c 0
 402.333333333 816 428.833333333 822.333333333 450.5 835 c 128
 472.166666667 847.666666667 489 866.333333333 501 891 c 0
 506.333333333 900.333333333 512 906.5 518 909.5 c 128
 524 912.5 531 912.666666667 539 910 c 0
 547.666666667 907.333333333 553.333333333 902.5 556 895.5 c 128
 558.666666667 888.5 558 879.666666667 554 869 c 0
 537.333333333 833 512.833333333 805.833333333 480.5 787.5 c 128
 448.166666667 769.166666667 411.666666667 760 371 760 c 0
EndSplineSet
EndChar

StartChar: uni041A
Encoding: 687 1050 547
Width: 649
GlyphClass: 2
Flags: W
AnchorPoint: "Anchor-5" 329 353 basechar 0
AnchorPoint: "Anchor-0" 330 705 basechar 0
LayerCount: 2
Fore
SplineSet
131 -7 m 0
 116.333333333 -7 105 -2.83333333333 97 5.5 c 128
 89 13.8333333333 85 25.6666666667 85 41 c 2
 85 665 l 2
 85 680.333333333 89 692 97 700 c 128
 105 708 116.333333333 712 131 712 c 0
 146.333333333 712 158 708 166 700 c 128
 174 692 178 680.333333333 178 665 c 2
 178 395 l 1
 310 395 l 1
 285 378 l 1
 488 688 l 2
 494.666666667 698 502.5 704.666666667 511.5 708 c 128
 520.5 711.333333333 529.5 712 538.5 710 c 128
 547.5 708 555.166666667 703.833333333 561.5 697.5 c 128
 567.833333333 691.166666667 571.333333333 683.5 572 674.5 c 128
 572.666666667 665.5 569.666666667 655.666666667 563 645 c 2
 374 362 l 1
 339 391 l 1
 379.666666667 385.666666667 414.666666667 370.833333333 444 346.5 c 128
 473.333333333 322.166666667 498.666666667 288.666666667 520 246 c 2
 612 58 l 2
 618 46 619.833333333 35.3333333333 617.5 26 c 128
 615.166666667 16.6666666667 610.333333333 9.16666666667 603 3.5 c 128
 595.666666667 -2.16666666667 587.166666667 -5.33333333333 577.5 -6 c 128
 567.833333333 -6.66666666667 558.666666667 -4.83333333333 550 -0.5 c 128
 541.333333333 3.83333333333 534 11.6666666667 528 23 c 2
 442 206 l 2
 423.333333333 245.333333333 401.666666667 273.333333333 377 290 c 128
 352.333333333 306.666666667 322 315 286 315 c 2
 178 315 l 1
 178 41 l 2
 178 25.6666666667 174.166666667 13.8333333333 166.5 5.5 c 128
 158.833333333 -2.83333333333 147 -7 131 -7 c 0
EndSplineSet
EndChar

StartChar: uni041B
Encoding: 689 1051 549
Width: 743
GlyphClass: 2
Flags: W
LayerCount: 2
Fore
SplineSet
612 -7 m 0
 597.333333333 -7 586 -2.83333333333 578 5.5 c 128
 570 13.8333333333 566 25.6666666667 566 41 c 2
 566 626 l 1
 270 626 l 1
 270 469 l 2
 270 403 266.166666667 344.833333333 258.5 294.5 c 128
 250.833333333 244.166666667 239.5 200.5 224.5 163.5 c 128
 209.5 126.5 190.833333333 94.6666666667 168.5 68 c 128
 146.166666667 41.3333333333 120.333333333 19 91 1 c 0
 79.6666666667 -7 68.3333333333 -9.83333333333 57 -7.5 c 128
 45.6666666667 -5.16666666667 36.3333333333 1.33333333333 29 12 c 0
 21 24 18.5 35.3333333333 21.5 46 c 128
 24.5 56.6666666667 32 66 44 74 c 0
 66.6666666667 88 86.6666666667 105.5 104 126.5 c 128
 121.333333333 147.5 136 174 148 206 c 128
 160 238 169 277.5 175 324.5 c 128
 181 371.5 184 427.666666667 184 493 c 2
 184 655 l 2
 184 671 188.333333333 683.333333333 197 692 c 128
 205.666666667 700.666666667 218.333333333 705 235 705 c 2
 608 705 l 2
 624.666666667 705 637.333333333 700.666666667 646 692 c 128
 654.666666667 683.333333333 659 671 659 655 c 2
 659 41 l 2
 659 25.6666666667 655 13.8333333333 647 5.5 c 128
 639 -2.83333333333 627.333333333 -7 612 -7 c 0
EndSplineSet
EndChar

StartChar: uni041F
Encoding: 693 1055 553
Width: 758
GlyphClass: 2
Flags: W
LayerCount: 2
Fore
SplineSet
131 -7 m 0
 116.333333333 -7 105 -2.83333333333 97 5.5 c 128
 89 13.8333333333 85 25.6666666667 85 41 c 2
 85 655 l 2
 85 671 89.3333333333 683.333333333 98 692 c 128
 106.666666667 700.666666667 119 705 135 705 c 2
 623 705 l 2
 639.666666667 705 652.333333333 700.666666667 661 692 c 128
 669.666666667 683.333333333 674 671 674 655 c 2
 674 41 l 2
 674 25.6666666667 670 13.8333333333 662 5.5 c 128
 654 -2.83333333333 642.333333333 -7 627 -7 c 0
 612.333333333 -7 601 -2.83333333333 593 5.5 c 128
 585 13.8333333333 581 25.6666666667 581 41 c 2
 581 626 l 1
 178 626 l 1
 178 41 l 2
 178 25.6666666667 174.166666667 13.8333333333 166.5 5.5 c 128
 158.833333333 -2.83333333333 147 -7 131 -7 c 0
EndSplineSet
EndChar

StartChar: uni0423
Encoding: 697 1059 557
Width: 647
GlyphClass: 2
Flags: W
AnchorPoint: "Anchor-0" 326 705 basechar 0
LayerCount: 2
Fore
SplineSet
258 -7 m 0
 247.333333333 -7 238 -4.16666666667 230 1.5 c 128
 222 7.16666666667 217.166666667 14.6666666667 215.5 24 c 128
 213.833333333 33.3333333333 216.333333333 44.3333333333 223 57 c 2
 312 230 l 1
 312 196 l 1
 31 648 l 2
 24.3333333333 659.333333333 21.5 669.833333333 22.5 679.5 c 128
 23.5 689.166666667 27.8333333333 697 35.5 703 c 128
 43.1666666667 709 52.6666666667 712 64 712 c 0
 76 712 85.3333333333 709.166666667 92 703.5 c 128
 98.6666666667 697.833333333 105.333333333 689.666666667 112 679 c 2
 358 281 l 1
 339 281 l 1
 543 679 l 2
 547.666666667 688.333333333 553.333333333 696.166666667 560 702.5 c 128
 566.666666667 708.833333333 576.333333333 712 589 712 c 0
 600.333333333 712 609.666666667 709.333333333 617 704 c 128
 624.333333333 698.666666667 629 691.333333333 631 682 c 128
 633 672.666666667 630.666666667 661.333333333 624 648 c 2
 305 26 l 2
 300.333333333 17.3333333333 294.5 9.66666666667 287.5 3 c 128
 280.5 -3.66666666667 270.666666667 -7 258 -7 c 0
EndSplineSet
EndChar

StartChar: uni0424
Encoding: 699 1060 559
Width: 854
GlyphClass: 1
Flags: W
LayerCount: 2
Fore
SplineSet
427 -30 m 0
 412.333333333 -30 400.833333333 -25.8333333333 392.5 -17.5 c 128
 384.166666667 -9.16666666667 380 2.66666666667 380 18 c 2
 380 82 l 1
 405 56 l 1
 380 56 l 2
 313.333333333 56 256.166666667 68.1666666667 208.5 92.5 c 128
 160.833333333 116.833333333 124 151.5 98 196.5 c 128
 72 241.5 59 295.333333333 59 358 c 0
 59 405.333333333 66.1666666667 447.833333333 80.5 485.5 c 128
 94.8333333333 523.166666667 115.666666667 554.833333333 143 580.5 c 128
 170.333333333 606.166666667 204 625.833333333 244 639.5 c 128
 284 653.166666667 329.333333333 660 380 660 c 2
 405 660 l 1
 380 634 l 1
 380 693 l 2
 380 708.333333333 384.166666667 720 392.5 728 c 128
 400.833333333 736 412.333333333 740 427 740 c 0
 442.333333333 740 454 736 462 728 c 128
 470 720 474 708.333333333 474 693 c 2
 474 634 l 1
 449 660 l 1
 474 660 l 2
 542.666666667 660 600.666666667 648 648 624 c 128
 695.333333333 600 731.666666667 565.5 757 520.5 c 128
 782.333333333 475.5 795 421.333333333 795 358 c 0
 795 311.333333333 787.666666667 269.166666667 773 231.5 c 128
 758.333333333 193.833333333 737.166666667 162.166666667 709.5 136.5 c 128
 681.833333333 110.833333333 648.166666667 91 608.5 77 c 128
 568.833333333 63 524 56 474 56 c 2
 449 56 l 1
 474 82 l 1
 474 18 l 2
 474 2.66666666667 470.166666667 -9.16666666667 462.5 -17.5 c 128
 454.833333333 -25.8333333333 443 -30 427 -30 c 0
381 111 m 1
 381 605 l 1
 403 586 l 1
 368 586 l 2
 336 586 307 581 281 571 c 128
 255 561 232.5 546.333333333 213.5 527 c 128
 194.5 507.666666667 180 484 170 456 c 128
 160 428 155 395.333333333 155 358 c 0
 155 310 164 269 182 235 c 128
 200 201 225 175 257 157 c 128
 289 139 326 130 368 130 c 2
 403 130 l 1
 381 111 l 1
473 111 m 1
 452 130 l 1
 486 130 l 2
 518 130 547 135 573 145 c 128
 599 155 621.333333333 169.833333333 640 189.5 c 128
 658.666666667 209.166666667 673.166666667 233.166666667 683.5 261.5 c 128
 693.833333333 289.833333333 699 322 699 358 c 0
 699 407.333333333 690.166666667 449 672.5 483 c 128
 654.833333333 517 630.166666667 542.666666667 598.5 560 c 128
 566.833333333 577.333333333 529.333333333 586 486 586 c 2
 452 586 l 1
 473 605 l 1
 473 111 l 1
EndSplineSet
EndChar

StartChar: uni0427
Encoding: 701 1063 561
Width: 680
GlyphClass: 2
Flags: W
AnchorPoint: "Anchor-5" 305 295 basechar 0
AnchorPoint: "Anchor-0" 321 705 basechar 0
LayerCount: 2
Fore
SplineSet
549 -7 m 0
 534.333333333 -7 523 -2.83333333333 515 5.5 c 128
 507 13.8333333333 503 25.6666666667 503 41 c 2
 503 293 l 1
 483 281.666666667 457.5 273 426.5 267 c 128
 395.5 261 364.666666667 258 334 258 c 0
 274.666666667 258 224.333333333 268.833333333 183 290.5 c 128
 141.666666667 312.166666667 110.333333333 344.5 89 387.5 c 128
 67.6666666667 430.5 57 484.333333333 57 549 c 2
 57 664 l 2
 57 680 61 692 69 700 c 128
 77 708 88.3333333333 712 103 712 c 256
 117.666666667 712 129 708 137 700 c 128
 145 692 149 680 149 664 c 2
 149 555 l 2
 149 481 165.333333333 426.666666667 198 392 c 128
 230.666666667 357.333333333 279 340 343 340 c 0
 371 340 398.833333333 342.833333333 426.5 348.5 c 128
 454.166666667 354.166666667 479.666666667 364 503 378 c 1
 503 664 l 2
 503 680 507 692 515 700 c 128
 523 708 534.333333333 712 549 712 c 0
 564.333333333 712 576 708 584 700 c 128
 592 692 596 680 596 664 c 2
 596 41 l 2
 596 25.6666666667 592.166666667 13.8333333333 584.5 5.5 c 128
 576.833333333 -2.83333333333 565 -7 549 -7 c 0
EndSplineSet
EndChar

StartChar: uni0426
Encoding: 702 1062 562
Width: 796
GlyphClass: 1
Flags: W
LayerCount: 2
Fore
SplineSet
732 -168 m 0
 718.666666667 -168 708.333333333 -164.166666667 701 -156.5 c 128
 693.666666667 -148.833333333 690 -138.333333333 690 -125 c 2
 690 0 l 1
 135 0 l 2
 119 0 106.666666667 4.33333333333 98 13 c 128
 89.3333333333 21.6666666667 85 34 85 50 c 2
 85 664 l 2
 85 680 89 692 97 700 c 128
 105 708 116.333333333 712 131 712 c 0
 146.333333333 712 158 708 166 700 c 128
 174 692 178 680 178 664 c 2
 178 79 l 1
 581 79 l 1
 581 664 l 2
 581 680 585 692 593 700 c 128
 601 708 612.333333333 712 627 712 c 0
 642.333333333 712 654 708 662 700 c 128
 670 692 674 680 674 664 c 2
 674 37 l 1
 632 79 l 1
 728 79 l 2
 742.666666667 79 754 75.1666666667 762 67.5 c 128
 770 59.8333333333 774 48.3333333333 774 33 c 2
 774 -125 l 2
 774 -153.666666667 760 -168 732 -168 c 0
EndSplineSet
EndChar

StartChar: uni0428
Encoding: 703 1064 563
Width: 1057
GlyphClass: 1
Flags: W
LayerCount: 2
Fore
SplineSet
135 0 m 2
 119 0 106.666666667 4.33333333333 98 13 c 128
 89.3333333333 21.6666666667 85 34 85 50 c 2
 85 664 l 2
 85 680 89 692 97 700 c 128
 105 708 116.333333333 712 131 712 c 256
 145.666666667 712 156.833333333 708 164.5 700 c 128
 172.166666667 692 176 680 176 664 c 2
 176 79 l 1
 483 79 l 1
 483 664 l 2
 483 680 487 692 495 700 c 128
 503 708 514 712 528 712 c 0
 543.333333333 712 554.833333333 708 562.5 700 c 128
 570.166666667 692 574 680 574 664 c 2
 574 79 l 1
 881 79 l 1
 881 664 l 2
 881 680 885 692 893 700 c 128
 901 708 912 712 926 712 c 0
 941.333333333 712 952.833333333 708 960.5 700 c 128
 968.166666667 692 972 680 972 664 c 2
 972 50 l 2
 972 34 967.666666667 21.6666666667 959 13 c 128
 950.333333333 4.33333333333 938 0 922 0 c 2
 135 0 l 2
EndSplineSet
EndChar

StartChar: uni0429
Encoding: 704 1065 564
Width: 1094
GlyphClass: 1
Flags: W
LayerCount: 2
Fore
SplineSet
1030 -166 m 256
 1016.66666667 -166 1006.5 -162.166666667 999.5 -154.5 c 128
 992.5 -146.833333333 989 -136.333333333 989 -123 c 2
 989 0 l 1
 135 0 l 2
 119 0 106.666666667 4.33333333333 98 13 c 128
 89.3333333333 21.6666666667 85 34 85 50 c 2
 85 664 l 2
 85 680 89 692 97 700 c 128
 105 708 116.333333333 712 131 712 c 256
 145.666666667 712 156.833333333 708 164.5 700 c 128
 172.166666667 692 176 680 176 664 c 2
 176 79 l 1
 483 79 l 1
 483 664 l 2
 483 680 487 692 495 700 c 128
 503 708 514 712 528 712 c 0
 543.333333333 712 554.833333333 708 562.5 700 c 128
 570.166666667 692 574 680 574 664 c 2
 574 79 l 1
 881 79 l 1
 881 664 l 2
 881 680 885 692 893 700 c 128
 901 708 912 712 926 712 c 0
 941.333333333 712 952.833333333 708 960.5 700 c 128
 968.166666667 692 972 680 972 664 c 2
 972 37 l 1
 930 79 l 1
 1026 79 l 2
 1040.66666667 79 1052 75.1666666667 1060 67.5 c 128
 1068 59.8333333333 1072 48.3333333333 1072 33 c 2
 1072 -123 l 2
 1072 -136.333333333 1068.33333333 -146.833333333 1061 -154.5 c 128
 1053.66666667 -162.166666667 1043.33333333 -166 1030 -166 c 256
EndSplineSet
EndChar

StartChar: uni040F
Encoding: 705 1039 565
Width: 758
GlyphClass: 1
Flags: W
LayerCount: 2
Fore
SplineSet
379 -166 m 0
 365.666666667 -166 355.5 -162.166666667 348.5 -154.5 c 128
 341.5 -146.833333333 338 -136.333333333 338 -123 c 2
 338 0 l 1
 135 0 l 2
 119 0 106.666666667 4.33333333333 98 13 c 128
 89.3333333333 21.6666666667 85 34 85 50 c 2
 85 664 l 2
 85 680 89 692 97 700 c 128
 105 708 116.333333333 712 131 712 c 0
 146.333333333 712 158 708 166 700 c 128
 174 692 178 680 178 664 c 2
 178 79 l 1
 581 79 l 1
 581 664 l 2
 581 680 585 692 593 700 c 128
 601 708 612.333333333 712 627 712 c 0
 642.333333333 712 654 708 662 700 c 128
 670 692 674 680 674 664 c 2
 674 50 l 2
 674 34 669.666666667 21.6666666667 661 13 c 128
 652.333333333 4.33333333333 639.666666667 0 623 0 c 2
 421 0 l 1
 421 -123 l 2
 421 -136.333333333 417.5 -146.833333333 410.5 -154.5 c 128
 403.5 -162.166666667 393 -166 379 -166 c 0
EndSplineSet
EndChar

StartChar: uni042C
Encoding: 706 1068 566
Width: 663
GlyphClass: 1
Flags: W
LayerCount: 2
Fore
SplineSet
135 0 m 2
 119 0 106.666666667 4.33333333333 98 13 c 128
 89.3333333333 21.6666666667 85 34 85 50 c 2
 85 664 l 2
 85 680 89 692 97 700 c 128
 105 708 116.333333333 712 131 712 c 0
 146.333333333 712 158 708 166 700 c 128
 174 692 178 680 178 664 c 2
 178 398 l 1
 384 398 l 2
 433.333333333 398 475.666666667 390.5 511 375.5 c 128
 546.333333333 360.5 573.166666667 338.5 591.5 309.5 c 128
 609.833333333 280.5 619 244 619 200 c 0
 619 134.666666667 598.5 85 557.5 51 c 128
 516.5 17 458.666666667 0 384 0 c 2
 135 0 l 2
178 76 m 1
 374 76 l 2
 426 76 464.666666667 86.1666666667 490 106.5 c 128
 515.333333333 126.833333333 528 157.666666667 528 199 c 0
 528 241 515.333333333 272 490 292 c 128
 464.666666667 312 426 322 374 322 c 2
 178 322 l 1
 178 76 l 1
EndSplineSet
EndChar

StartChar: uni042A
Encoding: 707 1066 567
Width: 794
GlyphClass: 1
Flags: W
LayerCount: 2
Fore
SplineSet
266 0 m 2
 249.333333333 0 236.666666667 4.33333333333 228 13 c 128
 219.333333333 21.6666666667 215 34 215 50 c 2
 215 626 l 1
 39 626 l 2
 25.6666666667 626 15.3333333333 629.5 8 636.5 c 128
 0.666666666667 643.5 -3 653.333333333 -3 666 c 256
 -3 678.666666667 0.666666666667 688.333333333 8 695 c 128
 15.3333333333 701.666666667 25.6666666667 705 39 705 c 2
 258 705 l 2
 274.666666667 705 287.333333333 700.666666667 296 692 c 128
 304.666666667 683.333333333 309 671 309 655 c 2
 309 398 l 1
 515 398 l 2
 564.333333333 398 606.5 390.5 641.5 375.5 c 128
 676.5 360.5 703.333333333 338.5 722 309.5 c 128
 740.666666667 280.5 750 244 750 200 c 0
 750 134.666666667 729.333333333 85 688 51 c 128
 646.666666667 17 589 0 515 0 c 2
 266 0 l 2
309 76 m 1
 505 76 l 2
 557 76 595.666666667 86.1666666667 621 106.5 c 128
 646.333333333 126.833333333 659 157.666666667 659 199 c 0
 659 241 646.333333333 272 621 292 c 128
 595.666666667 312 557 322 505 322 c 2
 309 322 l 1
 309 76 l 1
EndSplineSet
EndChar

StartChar: uni042B
Encoding: 708 1067 568
Width: 865
GlyphClass: 2
Flags: W
AnchorPoint: "Anchor-0" 433 705 basechar 0
LayerCount: 2
Fore
SplineSet
135 0 m 2
 119 0 106.666666667 4.33333333333 98 13 c 128
 89.3333333333 21.6666666667 85 34 85 50 c 2
 85 664 l 2
 85 680 89 692 97 700 c 128
 105 708 116.333333333 712 131 712 c 0
 146.333333333 712 158 708 166 700 c 128
 174 692 178 680 178 664 c 2
 178 398 l 1
 354 398 l 2
 403.333333333 398 445.666666667 390.5 481 375.5 c 128
 516.333333333 360.5 543.166666667 338.5 561.5 309.5 c 128
 579.833333333 280.5 589 244 589 200 c 0
 589 134.666666667 568.5 85 527.5 51 c 128
 486.5 17 428.666666667 0 354 0 c 2
 135 0 l 2
178 76 m 1
 344 76 l 2
 396 76 434.666666667 86.1666666667 460 106.5 c 128
 485.333333333 126.833333333 498 157.666666667 498 199 c 0
 498 241 485.333333333 272 460 292 c 128
 434.666666667 312 396 322 344 322 c 2
 178 322 l 1
 178 76 l 1
734 -7 m 256
 718.666666667 -7 707 -2.83333333333 699 5.5 c 128
 691 13.8333333333 687 25.6666666667 687 41 c 2
 687 664 l 2
 687 680 691 692 699 700 c 128
 707 708 718.666666667 712 734 712 c 0
 748.666666667 712 760 708 768 700 c 128
 776 692 780 680 780 664 c 2
 780 41 l 2
 780 25.6666666667 776.166666667 13.8333333333 768.5 5.5 c 128
 760.833333333 -2.83333333333 749.333333333 -7 734 -7 c 256
EndSplineSet
EndChar

StartChar: uni0409
Encoding: 709 1033 569
Width: 1130
GlyphClass: 1
Flags: W
LayerCount: 2
Fore
SplineSet
602 0 m 2
 586 0 573.666666667 4.33333333333 565 13 c 128
 556.333333333 21.6666666667 552 34 552 50 c 2
 552 626 l 1
 270 626 l 1
 270 469 l 2
 270 403 266.166666667 344.833333333 258.5 294.5 c 128
 250.833333333 244.166666667 239.5 200.333333333 224.5 163 c 128
 209.5 125.666666667 190.833333333 93.8333333333 168.5 67.5 c 128
 146.166666667 41.1666666667 120 19 90 1 c 0
 82 -3.66666666667 74.1666666667 -6.5 66.5 -7.5 c 128
 58.8333333333 -8.5 51.8333333333 -7.33333333333 45.5 -4 c 128
 39.1666666667 -0.666666666667 33.6666666667 4.66666666667 29 12 c 0
 21 24 18.6666666667 35 22 45 c 128
 25.3333333333 55 32.6666666667 64.6666666667 44 74 c 0
 66.6666666667 88 86.6666666667 105.5 104 126.5 c 128
 121.333333333 147.5 136 174 148 206 c 128
 160 238 169 277.5 175 324.5 c 128
 181 371.5 184 427.666666667 184 493 c 2
 184 655 l 2
 184 671 188.333333333 683.333333333 197 692 c 128
 205.666666667 700.666666667 218.333333333 705 235 705 c 2
 594 705 l 2
 610.666666667 705 623.333333333 700.666666667 632 692 c 128
 640.666666667 683.333333333 645 671 645 655 c 2
 645 398 l 1
 851 398 l 2
 900.333333333 398 942.666666667 390.5 978 375.5 c 128
 1013.33333333 360.5 1040.16666667 338.5 1058.5 309.5 c 128
 1076.83333333 280.5 1086 244 1086 200 c 0
 1086 134.666666667 1065.5 85 1024.5 51 c 128
 983.5 17 925.666666667 0 851 0 c 2
 602 0 l 2
645 76 m 1
 841 76 l 2
 893 76 931.666666667 86.1666666667 957 106.5 c 128
 982.333333333 126.833333333 995 157.666666667 995 199 c 0
 995 241 982.333333333 272 957 292 c 128
 931.666666667 312 893 322 841 322 c 2
 645 322 l 1
 645 76 l 1
EndSplineSet
EndChar

StartChar: uni040A
Encoding: 710 1034 570
Width: 1165
GlyphClass: 1
Flags: W
LayerCount: 2
Fore
SplineSet
131 -7 m 0
 116.333333333 -7 105 -2.83333333333 97 5.5 c 128
 89 13.8333333333 85 25.6666666667 85 41 c 2
 85 664 l 2
 85 680 89 692 97 700 c 128
 105 708 116.333333333 712 131 712 c 0
 146.333333333 712 158 708 166 700 c 128
 174 692 178 680 178 664 c 2
 178 397 l 1
 586 397 l 1
 586 664 l 2
 586 680 590 692 598 700 c 128
 606 708 617.666666667 712 633 712 c 0
 647.666666667 712 659 708 667 700 c 128
 675 692 679 680 679 664 c 2
 679 398 l 1
 886 398 l 2
 935.333333333 398 977.5 390.5 1012.5 375.5 c 128
 1047.5 360.5 1074.33333333 338.5 1093 309.5 c 128
 1111.66666667 280.5 1121 244 1121 200 c 0
 1121 134.666666667 1100.5 85 1059.5 51 c 128
 1018.5 17 960.666666667 0 886 0 c 2
 637 0 l 2
 620.333333333 0 607.666666667 4.33333333333 599 13 c 128
 590.333333333 21.6666666667 586 34 586 50 c 2
 586 318 l 1
 178 318 l 1
 178 41 l 2
 178 25.6666666667 174.166666667 13.8333333333 166.5 5.5 c 128
 158.833333333 -2.83333333333 147 -7 131 -7 c 0
679 76 m 1
 876 76 l 2
 928 76 966.666666667 86.1666666667 992 106.5 c 128
 1017.33333333 126.833333333 1030 157.666666667 1030 199 c 0
 1030 241 1017.33333333 272 992 292 c 128
 966.666666667 312 928 322 876 322 c 2
 679 322 l 1
 679 76 l 1
EndSplineSet
EndChar

StartChar: uni0404
Encoding: 712 1028 572
Width: 675
GlyphClass: 2
Flags: W
AnchorPoint: "Anchor-2" 386 0 basechar 0
AnchorPoint: "Anchor-0" 388 705 basechar 0
LayerCount: 2
Fore
SplineSet
395 -9 m 0
 325 -9 265 5.66666666667 215 35 c 128
 165 64.3333333333 126.5 106.166666667 99.5 160.5 c 128
 72.5 214.833333333 59 279 59 353 c 0
 59 408.333333333 66.6666666667 458.166666667 82 502.5 c 128
 97.3333333333 546.833333333 119.333333333 584.833333333 148 616.5 c 128
 176.666666667 648.166666667 211.833333333 672.333333333 253.5 689 c 128
 295.166666667 705.666666667 342.333333333 714 395 714 c 0
 435 714 473.5 708.5 510.5 697.5 c 128
 547.5 686.5 581.333333333 669 612 645 c 0
 622 637.666666667 628.333333333 629.666666667 631 621 c 128
 633.666666667 612.333333333 633.833333333 603.833333333 631.5 595.5 c 128
 629.166666667 587.166666667 624.833333333 580.333333333 618.5 575 c 128
 612.166666667 569.666666667 604.5 566.666666667 595.5 566 c 128
 586.5 565.333333333 576.666666667 568.666666667 566 576 c 0
 540.666666667 595.333333333 514.5 609.166666667 487.5 617.5 c 128
 460.5 625.833333333 430.333333333 630 397 630 c 0
 347 630 304.666666667 619.833333333 270 599.5 c 128
 235.333333333 579.166666667 208.5 549.833333333 189.5 511.5 c 128
 170.5 473.166666667 159.666666667 426.666666667 157 372 c 1
 128 396 l 1
 470 396 l 2
 483.333333333 396 493.5 392.666666667 500.5 386 c 128
 507.5 379.333333333 511 370.333333333 511 359 c 0
 511 346.333333333 507.5 336.666666667 500.5 330 c 128
 493.5 323.333333333 483.333333333 320 470 320 c 2
 126 320 l 1
 157 342 l 1
 159 284.666666667 169.5 236.166666667 188.5 196.5 c 128
 207.5 156.833333333 234.5 126.666666667 269.5 106 c 128
 304.5 85.3333333333 347 75 397 75 c 0
 430.333333333 75 460.833333333 79.3333333333 488.5 88 c 128
 516.166666667 96.6666666667 543 111 569 131 c 0
 579.666666667 138.333333333 589.333333333 141.666666667 598 141 c 128
 606.666666667 140.333333333 613.833333333 137 619.5 131 c 128
 625.166666667 125 628.833333333 117.666666667 630.5 109 c 128
 632.166666667 100.333333333 631.333333333 91.5 628 82.5 c 128
 624.666666667 73.5 618.333333333 65.6666666667 609 59 c 0
 579.666666667 36.3333333333 546.833333333 19.3333333333 510.5 8 c 128
 474.166666667 -3.33333333333 435.666666667 -9 395 -9 c 0
EndSplineSet
EndChar

StartChar: uni042D
Encoding: 713 1069 573
Width: 675
GlyphClass: 2
Flags: W
AnchorPoint: "Anchor-2" 300 0 basechar 0
AnchorPoint: "Anchor-0" 300 705 basechar 0
LayerCount: 2
Fore
SplineSet
280 -9 m 0
 238.666666667 -9 199.833333333 -3.33333333333 163.5 8 c 128
 127.166666667 19.3333333333 94.3333333333 36.6666666667 65 60 c 0
 55.6666666667 66.6666666667 49.3333333333 74.5 46 83.5 c 128
 42.6666666667 92.5 41.8333333333 101.333333333 43.5 110 c 128
 45.1666666667 118.666666667 48.8333333333 125.833333333 54.5 131.5 c 128
 60.1666666667 137.166666667 67.3333333333 140.5 76 141.5 c 128
 84.6666666667 142.5 94.3333333333 139 105 131 c 0
 131.666666667 111 158.833333333 96.6666666667 186.5 88 c 128
 214.166666667 79.3333333333 244.666666667 75 278 75 c 0
 327.333333333 75 369.5 85.3333333333 404.5 106 c 128
 439.5 126.666666667 466.833333333 156.5 486.5 195.5 c 128
 506.166666667 234.5 516.666666667 282.333333333 518 339 c 1
 548 320 l 1
 205 320 l 2
 191.666666667 320 181.333333333 323.333333333 174 330 c 128
 166.666666667 336.666666667 163 346 163 358 c 256
 163 370 166.666666667 379.333333333 174 386 c 128
 181.333333333 392.666666667 191.666666667 396 205 396 c 2
 547 396 l 1
 517 370 l 1
 515 424.666666667 505 471.5 487 510.5 c 128
 469 549.5 443 579.166666667 409 599.5 c 128
 375 619.833333333 333.333333333 630 284 630 c 0
 251.333333333 630 220.666666667 625.166666667 192 615.5 c 128
 163.333333333 605.833333333 136 592.333333333 110 575 c 0
 99.3333333333 567.666666667 89.3333333333 564.333333333 80 565 c 128
 70.6666666667 565.666666667 62.8333333333 568.833333333 56.5 574.5 c 128
 50.1666666667 580.166666667 46.1666666667 587 44.5 595 c 128
 42.8333333333 603 43.5 611.333333333 46.5 620 c 128
 49.5 628.666666667 55.6666666667 636.333333333 65 643 c 0
 97.6666666667 667 133 684.833333333 171 696.5 c 128
 209 708.166666667 247.666666667 714 287 714 c 0
 356.333333333 714 415.5 699.166666667 464.5 669.5 c 128
 513.5 639.833333333 550.833333333 598 576.5 544 c 128
 602.166666667 490 615 426.333333333 615 353 c 0
 615 297 607.5 246.833333333 592.5 202.5 c 128
 577.5 158.166666667 555.5 120.166666667 526.5 88.5 c 128
 497.5 56.8333333333 462.333333333 32.6666666667 421 16 c 128
 379.666666667 -0.666666666667 332.666666667 -9 280 -9 c 0
EndSplineSet
EndChar

StartChar: uni040B
Encoding: 717 1035 577
Width: 852
GlyphClass: 1
Flags: W
LayerCount: 2
Fore
SplineSet
304 -7 m 256
 288.666666667 -7 277 -2.83333333333 269 5.5 c 128
 261 13.8333333333 257 25.6666666667 257 41 c 2
 257 626 l 1
 38 626 l 2
 25.3333333333 626 15.3333333333 629.5 8 636.5 c 128
 0.666666666667 643.5 -3 653.333333333 -3 666 c 256
 -3 678.666666667 0.666666666667 688.333333333 8 695 c 128
 15.3333333333 701.666666667 25.3333333333 705 38 705 c 2
 569 705 l 2
 582.333333333 705 592.5 701.666666667 599.5 695 c 128
 606.5 688.333333333 610 678.666666667 610 666 c 256
 610 653.333333333 606.5 643.5 599.5 636.5 c 128
 592.5 629.5 582.333333333 626 569 626 c 2
 350 626 l 1
 350 402 l 1
 370 413.333333333 395.333333333 422 426 428 c 128
 456.666666667 434 487.333333333 437 518 437 c 0
 578 437 628.666666667 426.166666667 670 404.5 c 128
 711.333333333 382.833333333 742.666666667 350.666666667 764 308 c 128
 785.333333333 265.333333333 796 211.333333333 796 146 c 2
 796 41 l 2
 796 25.6666666667 792 13.8333333333 784 5.5 c 128
 776 -2.83333333333 764.333333333 -7 749 -7 c 0
 734.333333333 -7 723.166666667 -2.83333333333 715.5 5.5 c 128
 707.833333333 13.8333333333 704 25.6666666667 704 41 c 2
 704 140 l 2
 704 214.666666667 687.5 269.166666667 654.5 303.5 c 128
 621.5 337.833333333 573 355 509 355 c 0
 481 355 453.5 352.333333333 426.5 347 c 128
 399.5 341.666666667 374 332 350 318 c 1
 350 41 l 2
 350 25.6666666667 346.166666667 13.8333333333 338.5 5.5 c 128
 330.833333333 -2.83333333333 319.333333333 -7 304 -7 c 256
EndSplineSet
EndChar

StartChar: uni042E
Encoding: 718 1070 578
Width: 1021
GlyphClass: 1
Flags: W
LayerCount: 2
Fore
SplineSet
644 -9 m 0
 582.666666667 -9 529.333333333 4.33333333333 484 31 c 128
 438.666666667 57.6666666667 402.5 95.3333333333 375.5 144 c 128
 348.5 192.666666667 332.666666667 250.666666667 328 318 c 1
 178 318 l 1
 178 41 l 2
 178 25.6666666667 174.166666667 13.8333333333 166.5 5.5 c 128
 158.833333333 -2.83333333333 147 -7 131 -7 c 0
 116.333333333 -7 105 -2.83333333333 97 5.5 c 128
 89 13.8333333333 85 25.6666666667 85 41 c 2
 85 664 l 2
 85 680 89 692 97 700 c 128
 105 708 116.333333333 712 131 712 c 0
 146.333333333 712 158 708 166 700 c 128
 174 692 178 680 178 664 c 2
 178 397 l 1
 329 397 l 1
 334.333333333 463 350.5 519.5 377.5 566.5 c 128
 404.5 613.5 440.5 649.833333333 485.5 675.5 c 128
 530.5 701.166666667 583.333333333 714 644 714 c 0
 709.333333333 714 765.666666667 699.333333333 813 670 c 128
 860.333333333 640.666666667 897 599 923 545 c 128
 949 491 962 427 962 353 c 0
 962 297.666666667 954.5 247.666666667 939.5 203 c 128
 924.5 158.333333333 903.166666667 120.166666667 875.5 88.5 c 128
 847.833333333 56.8333333333 814.5 32.6666666667 775.5 16 c 128
 736.5 -0.666666666667 692.666666667 -9 644 -9 c 0
644 73 m 0
 690.666666667 73 730.5 84 763.5 106 c 128
 796.5 128 821.5 160 838.5 202 c 128
 855.5 244 864 294.333333333 864 353 c 0
 864 441.666666667 845 510.333333333 807 559 c 128
 769 607.666666667 714.666666667 632 644 632 c 0
 597.333333333 632 557.5 621.166666667 524.5 599.5 c 128
 491.5 577.833333333 466.333333333 546.166666667 449 504.5 c 128
 431.666666667 462.833333333 423 412.333333333 423 353 c 0
 423 265 442.333333333 196.333333333 481 147 c 128
 519.666666667 97.6666666667 574 73 644 73 c 0
EndSplineSet
EndChar

StartChar: uni042F
Encoding: 719 1071 579
Width: 674
GlyphClass: 1
Flags: W
LayerCount: 2
Fore
SplineSet
543 -7 m 0
 528.333333333 -7 517 -2.83333333333 509 5.5 c 128
 501 13.8333333333 497 25.6666666667 497 41 c 2
 497 294 l 1
 386 294 l 2
 366 294 348.5 292.166666667 333.5 288.5 c 128
 318.5 284.833333333 305.166666667 278 293.5 268 c 128
 281.833333333 258 271 243.666666667 261 225 c 2
 151 22 l 2
 144.333333333 10.6666666667 136.333333333 2.83333333333 127 -1.5 c 128
 117.666666667 -5.83333333333 108.5 -7.33333333333 99.5 -6 c 128
 90.5 -4.66666666667 82.5 -0.833333333333 75.5 5.5 c 128
 68.5 11.8333333333 64.3333333333 20 63 30 c 128
 61.6666666667 40 64 51 70 63 c 2
 160 227 l 2
 175.333333333 255.666666667 192.833333333 276.833333333 212.5 290.5 c 128
 232.166666667 304.166666667 255.333333333 311 282 311 c 2
 309 311 l 1
 304 297 l 1
 229.333333333 297 171.333333333 314.833333333 130 350.5 c 128
 88.6666666667 386.166666667 68 436 68 500 c 0
 68 544 77 581.166666667 95 611.5 c 128
 113 641.833333333 139.666666667 665 175 681 c 128
 210.333333333 697 253.333333333 705 304 705 c 2
 539 705 l 2
 555.666666667 705 568.333333333 700.666666667 577 692 c 128
 585.666666667 683.333333333 590 671 590 655 c 2
 590 41 l 2
 590 25.6666666667 586 13.8333333333 578 5.5 c 128
 570 -2.83333333333 558.333333333 -7 543 -7 c 0
319 366 m 2
 497 366 l 1
 497 629 l 1
 319 629 l 2
 266.333333333 629 226.5 618 199.5 596 c 128
 172.5 574 159 541.333333333 159 498 c 256
 159 454.666666667 172.5 421.833333333 199.5 399.5 c 128
 226.5 377.166666667 266.333333333 366 319 366 c 2
EndSplineSet
EndChar

StartChar: uni0402
Encoding: 720 1026 580
Width: 848
GlyphClass: 1
Flags: W
LayerCount: 2
Fore
SplineSet
581 -189 m 0
 565.666666667 -189 549.833333333 -188 533.5 -186 c 128
 517.166666667 -184 502.333333333 -181 489 -177 c 0
 479.666666667 -173.666666667 472.5 -168.833333333 467.5 -162.5 c 128
 462.5 -156.166666667 459.833333333 -149.166666667 459.5 -141.5 c 128
 459.166666667 -133.833333333 460.666666667 -126.833333333 464 -120.5 c 128
 467.333333333 -114.166666667 472.333333333 -109.333333333 479 -106 c 128
 485.666666667 -102.666666667 493.666666667 -102 503 -104 c 0
 515 -107.333333333 526.333333333 -109.666666667 537 -111 c 128
 547.666666667 -112.333333333 559.333333333 -113 572 -113 c 0
 612.666666667 -113 644 -99.3333333333 666 -72 c 128
 688 -44.6666666667 699 -4 699 50 c 2
 699 140 l 2
 699 214 682.5 268.333333333 649.5 303 c 128
 616.5 337.666666667 567 355 501 355 c 0
 471.666666667 355 444.333333333 352 419 346 c 128
 393.666666667 340 370.666666667 330.666666667 350 318 c 1
 350 41 l 2
 350 25.6666666667 346.166666667 13.8333333333 338.5 5.5 c 128
 330.833333333 -2.83333333333 319.333333333 -7 304 -7 c 256
 288.666666667 -7 277 -2.83333333333 269 5.5 c 128
 261 13.8333333333 257 25.6666666667 257 41 c 2
 257 626 l 1
 38 626 l 2
 25.3333333333 626 15.3333333333 629.5 8 636.5 c 128
 0.666666666667 643.5 -3 653.333333333 -3 666 c 256
 -3 678.666666667 0.666666666667 688.333333333 8 695 c 128
 15.3333333333 701.666666667 25.3333333333 705 38 705 c 2
 569 705 l 2
 582.333333333 705 592.5 701.666666667 599.5 695 c 128
 606.5 688.333333333 610 678.666666667 610 666 c 256
 610 653.333333333 606.5 643.5 599.5 636.5 c 128
 592.5 629.5 582.333333333 626 569 626 c 2
 350 626 l 1
 350 402 l 1
 368 412.666666667 391.5 421.166666667 420.5 427.5 c 128
 449.5 433.833333333 479.333333333 437 510 437 c 0
 556 437 596.666666667 430.833333333 632 418.5 c 128
 667.333333333 406.166666667 696.833333333 388 720.5 364 c 128
 744.166666667 340 762 309.833333333 774 273.5 c 128
 786 237.166666667 792 194.666666667 792 146 c 2
 792 53 l 2
 792 1 783.666666667 -43 767 -79 c 128
 750.333333333 -115 726 -142.333333333 694 -161 c 128
 662 -179.666666667 624.333333333 -189 581 -189 c 0
EndSplineSet
EndChar

StartChar: uni0462
Encoding: 721 1122 581
Width: 729
GlyphClass: 1
Flags: W
LayerCount: 2
Fore
SplineSet
203 0 m 2
 187 0 174.666666667 4.33333333333 166 13 c 128
 157.333333333 21.6666666667 153 34 153 50 c 2
 153 533 l 1
 11 533 l 2
 -1.66666666667 533 -11.1666666667 536.333333333 -17.5 543 c 128
 -23.8333333333 549.666666667 -27 558.333333333 -27 569 c 0
 -27 592.333333333 -14.3333333333 604 11 604 c 2
 176 604 l 1
 153 562 l 1
 153 664 l 2
 153 680 157 692 165 700 c 128
 173 708 184 712 198 712 c 0
 212.666666667 712 223.833333333 708 231.5 700 c 128
 239.166666667 692 243 680 243 664 c 2
 243 562 l 1
 220 604 l 1
 450 604 l 2
 462.666666667 604 472.166666667 601 478.5 595 c 128
 484.833333333 589 488 580.333333333 488 569 c 0
 488 545 475.333333333 533 450 533 c 2
 243 533 l 1
 243 398 l 1
 449 398 l 2
 523.666666667 398 581.5 381.333333333 622.5 348 c 128
 663.5 314.666666667 684 265.333333333 684 200 c 256
 684 134.666666667 663.5 85 622.5 51 c 128
 581.5 17 523.666666667 0 449 0 c 2
 203 0 l 2
243 76 m 1
 440 76 l 2
 491.333333333 76 529.833333333 86.1666666667 555.5 106.5 c 128
 581.166666667 126.833333333 594 157.666666667 594 199 c 0
 594 241 581.166666667 272 555.5 292 c 128
 529.833333333 312 491.333333333 322 440 322 c 2
 243 322 l 1
 243 76 l 1
EndSplineSet
EndChar

StartChar: uni046A
Encoding: 722 1130 582
Width: 968
GlyphClass: 1
Flags: W
LayerCount: 2
Fore
SplineSet
484 -7 m 256
 468.666666667 -7 457 -2.83333333333 449 5.5 c 128
 441 13.8333333333 437 25.6666666667 437 41 c 2
 437 315 l 1
 362 315 l 2
 324.666666667 315 294.166666667 306.5 270.5 289.5 c 128
 246.833333333 272.5 226 244.666666667 208 206 c 2
 120 23 l 2
 114.666666667 11.6666666667 107.5 3.83333333333 98.5 -0.5 c 128
 89.5 -4.83333333333 80.3333333333 -6.66666666667 71 -6 c 128
 61.6666666667 -5.33333333333 53.3333333333 -2.16666666667 46 3.5 c 128
 38.6666666667 9.16666666667 33.8333333333 16.6666666667 31.5 26 c 128
 29.1666666667 35.3333333333 31 46 37 58 c 2
 130 248 l 2
 144.666666667 277.333333333 162.166666667 302.833333333 182.5 324.5 c 128
 202.833333333 346.166666667 227.666666667 363 257 375 c 128
 286.333333333 387 321.333333333 393 362 393 c 2
 416 393 l 1
 412 370 l 1
 174 644 l 2
 165.333333333 654 160.666666667 663.666666667 160 673 c 128
 159.333333333 682.333333333 162.833333333 690 170.5 696 c 128
 178.166666667 702 189.333333333 705 204 705 c 2
 763 705 l 2
 778.333333333 705 789.666666667 702 797 696 c 128
 804.333333333 690 807.666666667 682.333333333 807 673 c 128
 806.333333333 663.666666667 801.666666667 654 793 644 c 2
 555 370 l 1
 551 393 l 1
 605 393 l 2
 645.666666667 393 680.5 387 709.5 375 c 128
 738.5 363 763.333333333 346.166666667 784 324.5 c 128
 804.666666667 302.833333333 822.333333333 277.333333333 837 248 c 2
 930 58 l 2
 936 46 937.833333333 35.3333333333 935.5 26 c 128
 933.166666667 16.6666666667 928.333333333 9.16666666667 921 3.5 c 128
 913.666666667 -2.16666666667 905.333333333 -5.33333333333 896 -6 c 128
 886.666666667 -6.66666666667 877.5 -4.83333333333 868.5 -0.5 c 128
 859.5 3.83333333333 852.333333333 11.6666666667 847 23 c 2
 759 206 l 2
 741 244.666666667 720.166666667 272.5 696.5 289.5 c 128
 672.833333333 306.5 642.333333333 315 605 315 c 2
 530 315 l 1
 530 41 l 2
 530 25.6666666667 526.166666667 13.8333333333 518.5 5.5 c 128
 510.833333333 -2.83333333333 499.333333333 -7 484 -7 c 256
483 395 m 1
 485 395 l 1
 716 668 l 1
 716 637 l 1
 251 637 l 1
 251 668 l 1
 483 395 l 1
EndSplineSet
EndChar

